;TYPE=PLATED
;Layer: PTH_Through_Via
;EasyEDA Pro v2.2.47.7, 2026-04-14 20:21:41
;Gerber Generator version 0.3
M48
METRIC,LZ,0000.00000
;Hole size 1 = 0.30000 METRIC
T01C0.30000
%
G05
G90
T01
X286.0294Y-100.076
X286.02407Y-101.08535
X285.5214Y-99.6355
X285.53229Y-101.44807
X285.0388Y-99.1275
X285.04612Y-101.08288
X284.5308Y-98.687
X284.53277Y-101.4476
X274.066Y-101.727
X270.00802Y-101.73302
X273.4564Y-102.235
X268.859Y-102.235
X284.607Y-106.55706
X285.01135Y-107.05488
X285.369Y-107.55706
X285.75Y-108.05693
X262.8305Y-106.5022
X262.255Y-106.934
X263.271Y-106.045
X261.747Y-107.36847
X268.986Y-112.014
X261.239Y-112.014
X268.63084Y-112.51021
X268.22199Y-112.95272
X260.223Y-112.96118
X267.8196Y-113.40169
X259.72809Y-113.46173
X267.335Y-113.919
X259.207Y-113.919
X260.731Y-112.468
X272.669Y-102.997
X267.081Y-102.997
X283.972Y-98.13035
X286.385Y-109.22
X287.02Y-109.22
X299.974Y-86.36
X270.383Y-101.092
X274.447Y-101.092
X307.4298Y-108.8018
X276.225Y-114.808
X273.939Y-91.44
X276.606Y-137.541
X277.368Y-121.0818
X271.272Y-119.507
X276.352Y-119.38
X286.75Y-117.475
X273.177Y-108.204
X296.418Y-88.46718
X294.005Y-96.012
X279.4254Y-114.6977
X267.589Y-110.236
X275.971Y-111.252
X271.145Y-122.555
X275.717Y-129.159
X272.796Y-129.54
X281.813Y-131.191
X281.813Y-128.27
X282.448Y-132.08
X282.448Y-128.46299
X288.6035Y-117.475
X289.941Y-116.1375
X274.32Y-145.542
X281.305Y-151.765
X275.463Y-150.5585
X280.416Y-150.876
X274.56137Y-153.0136
X273.558Y-153.035
X298.196Y-110.998
X295.63361Y-110.998
X291.465Y-110.871
X282.956Y-110.617
X260.096Y-90.297
X262.128Y-90.297
X260.096Y-92.583
X310.896Y-143.129
X308.3489Y-143.129
X305.78169Y-143.129
X308.356Y-150.876
X310.9161Y-150.876
X310.896Y-155.829
X277.876Y-129.794
X280.3989Y-129.794
X270.3737Y-125.71405
X280.797Y-108.839
X272.288Y-96.012
X286.131Y-98.552
X288.925Y-101.092
X289.687Y-108.585
X282.067Y-86.106
X286.5795Y-96.393
X288.2225Y-97.917
X289.5092Y-109.4486
X285.877Y-86.05418
X285.877Y-94.996
X287.655Y-98.27568
X288.671Y-109.474
X269.47285Y-117.348
X270.256Y-107.95
X270.256Y-105.537
X263.017Y-92.075
X270.77283Y-117.348
X270.77283Y-108.585
X270.74959Y-105.17923
X264.287Y-92.837
X287.528Y-112.395
X276.987Y-103.759
X276.987Y-104.55587
X275.47014Y-103.48074
X281.813Y-107.95
X285.623Y-105.791
X281.2709Y-103.251
X273.558Y-115.824
X271.399Y-115.951
X272.034Y-118.364
X273.85607Y-118.364
X271.907Y-111.379
X272.288Y-114.3
X289.66309Y-106.807
X289.53609Y-104.13986
X270.129Y-118.872
X272.542Y-82.042
X274.193Y-82.042
X297.815Y-82.169
X304.673Y-82.169
X300.609Y-93.726
X273.558Y-103.632
X281.178Y-97.0875
X281.178Y-97.7185
X282.956Y-97.7185
X275.082Y-97.0875
X270.764Y-94.488
X275.463Y-133.604
X287.528Y-100.965
X285.115Y-98.298
X268.097Y-90.424
X264.01959Y-90.424
X272.288Y-82.804
X283.718Y-82.55
X257.53314Y-102.2431
X257.53314Y-99.7031
X257.40614Y-97.1631
X257.53314Y-84.2091
X257.53314Y-81.9231
X257.53314Y-79.3831
X257.53314Y-107.3231
X257.53314Y-155.5831
X257.53314Y-153.0431
X257.53314Y-150.5031
X257.53314Y-147.9631
X257.53314Y-145.4231
X257.53314Y-142.8831
X257.53314Y-140.3431
X257.53314Y-137.8031
X257.53314Y-135.2631
X257.53314Y-132.7231
X257.53314Y-130.1831
X257.53314Y-127.6431
X257.53314Y-125.1031
X257.53314Y-122.5631
X257.53314Y-120.0231
X257.53314Y-117.4831
X257.53314Y-114.9431
X257.53314Y-112.4031
X260.07314Y-104.7831
X260.07314Y-102.2431
X260.07314Y-99.7031
X260.07314Y-97.1631
X260.07314Y-94.6231
X260.07314Y-87.0031
X260.07314Y-84.4631
X260.07314Y-81.9231
X259.56514Y-79.7641
X258.80314Y-110.1171
X260.07314Y-155.5831
X260.07314Y-153.0431
X260.07314Y-150.5031
X260.07314Y-147.9631
X260.07314Y-145.4231
X260.07314Y-142.8831
X260.07314Y-140.3431
X260.07314Y-137.8031
X260.07314Y-135.2631
X260.07314Y-132.7231
X260.07314Y-130.1831
X260.07314Y-127.6431
X260.07314Y-125.1031
X262.61314Y-102.2431
X262.61314Y-99.7031
X262.61314Y-97.1631
X262.61314Y-94.6231
X262.61314Y-87.0031
X262.61314Y-84.4631
X262.61314Y-81.9231
X262.61314Y-79.7641
X262.61314Y-155.5831
X262.61314Y-153.0431
X262.61314Y-150.5031
X262.61314Y-147.9631
X262.61314Y-145.4231
X262.61314Y-142.8831
X262.61314Y-140.3431
X262.61314Y-137.8031
X264.64514Y-104.7831
X265.15314Y-87.0031
X265.15314Y-84.4631
X265.15314Y-81.9231
X265.91514Y-79.7641
X265.15314Y-155.5831
X265.15314Y-153.0431
X265.15314Y-150.5031
X267.69314Y-102.2431
X267.69314Y-99.7031
X267.69314Y-97.1631
X267.69314Y-94.6231
X267.69314Y-87.0031
X267.69314Y-84.4631
X267.69314Y-81.9231
X267.69314Y-79.7641
X268.07414Y-118.8801
X267.69314Y-155.5831
X267.69314Y-153.0431
X267.69314Y-150.5031
X267.69314Y-147.9631
X267.69314Y-145.4231
X267.69314Y-142.8831
X267.69314Y-140.3431
X267.69314Y-137.8031
X267.69314Y-135.2631
X267.69314Y-132.7231
X267.69314Y-130.1831
X267.69314Y-127.6431
X267.69314Y-125.7381
X267.69314Y-122.5631
X270.23314Y-99.7031
X270.23314Y-97.1631
X270.23314Y-87.0031
X270.23314Y-84.4631
X270.23314Y-81.9231
X270.23314Y-79.3831
X270.23314Y-150.5031
X270.23314Y-147.9631
X270.23314Y-145.4231
X270.23314Y-140.3431
X270.23314Y-130.1831
X272.77314Y-155.5831
X272.77314Y-145.4231
X272.77314Y-140.3431
X272.77314Y-127.6431
X272.77314Y-94.6231
X272.77314Y-89.5431
X272.77314Y-87.0031
X272.77314Y-84.4631
X272.77314Y-79.3831
X275.31314Y-155.5831
X275.31314Y-147.4551
X275.31314Y-145.4231
X275.31314Y-140.3431
X275.31314Y-137.8031
X275.31314Y-135.2631
X275.31314Y-132.7231
X275.31314Y-117.4831
X275.31314Y-94.6231
X275.31314Y-92.0831
X275.31314Y-89.5431
X275.31314Y-87.0031
X275.31314Y-84.4631
X277.85314Y-155.5831
X277.85314Y-150.5031
X277.85314Y-147.9631
X277.85314Y-145.4231
X277.85314Y-142.8831
X277.85314Y-140.3431
X277.85314Y-137.8031
X277.85314Y-117.4831
X277.85314Y-114.9431
X277.85314Y-94.6231
X277.85314Y-92.0831
X277.85314Y-89.5431
X277.85314Y-87.0031
X277.85314Y-84.4631
X277.85314Y-79.3831
X280.39314Y-155.5831
X280.39314Y-147.9631
X280.39314Y-142.8831
X280.39314Y-140.3431
X280.39314Y-137.8031
X280.39314Y-135.2631
X280.39314Y-132.7231
X280.39314Y-127.6431
X280.39314Y-125.1031
X280.39314Y-122.5631
X280.39314Y-117.4831
X280.39314Y-94.6231
X280.39314Y-92.0831
X280.39314Y-89.5431
X280.39314Y-87.0031
X280.39314Y-84.4631
X280.39314Y-79.3831
X282.93314Y-155.5831
X282.93314Y-153.0431
X282.93314Y-150.5031
X282.93314Y-147.9631
X282.93314Y-142.8831
X282.93314Y-140.3431
X282.93314Y-137.8031
X282.93314Y-135.2631
X282.93314Y-132.7231
X282.93314Y-127.6431
X282.93314Y-122.5631
X282.93314Y-117.4831
X282.93314Y-94.6231
X282.93314Y-89.5431
X282.93314Y-79.3831
X285.47314Y-155.5831
X285.47314Y-153.0431
X285.47314Y-150.5031
X285.47314Y-147.9631
X285.47314Y-145.4231
X285.47314Y-142.8831
X285.47314Y-140.3431
X285.47314Y-137.8031
X285.47314Y-135.2631
X285.47314Y-127.6431
X285.47314Y-122.5631
X285.47314Y-117.4831
X285.47314Y-79.3831
X288.01314Y-155.5831
X288.01314Y-153.0431
X288.01314Y-150.5031
X288.01314Y-147.9631
X288.01314Y-142.8831
X288.01314Y-140.3431
X288.01314Y-137.8031
X288.01314Y-135.2631
X288.01314Y-130.1831
X288.01314Y-127.6431
X288.01314Y-122.5631
X288.01314Y-120.0231
X288.01314Y-89.5431
X288.01314Y-84.4631
X290.55314Y-155.5831
X290.55314Y-153.0431
X290.55314Y-150.5031
X290.55314Y-147.9631
X290.55314Y-145.4231
X290.55314Y-142.8831
X290.55314Y-140.3431
X290.55314Y-137.8031
X290.55314Y-122.5631
X290.55314Y-120.0231
X290.55314Y-102.2431
X290.55314Y-97.1631
X290.55314Y-89.5431
X290.55314Y-84.4631
X289.53714Y-79.5101
X293.09314Y-155.5831
X293.09314Y-153.0431
X293.09314Y-150.5031
X293.09314Y-142.8831
X293.09314Y-140.3431
X293.09314Y-137.8031
X293.09314Y-135.2631
X293.09314Y-132.7231
X293.09314Y-127.6431
X293.09314Y-122.5631
X293.09314Y-120.0231
X293.09314Y-114.9431
X293.09314Y-102.2431
X293.09314Y-99.7031
X293.09314Y-92.0831
X293.09314Y-84.4631
X294.36314Y-79.5101
X295.63314Y-155.5831
X295.63314Y-150.5031
X295.63314Y-142.8831
X295.63314Y-140.3431
X295.63314Y-137.8031
X295.63314Y-135.2631
X295.63314Y-132.7231
X295.63314Y-127.6431
X295.63314Y-122.5631
X295.63314Y-120.0231
X295.63314Y-114.9431
X295.63314Y-102.2431
X295.63314Y-99.7031
X295.63314Y-84.4631
X298.17314Y-155.5831
X298.17314Y-153.0431
X298.17314Y-150.5031
X298.17314Y-142.8831
X298.17314Y-140.3431
X298.17314Y-137.8031
X298.17314Y-135.2631
X298.17314Y-132.7231
X298.17314Y-122.5631
X298.17314Y-120.0231
X298.17314Y-114.9431
X298.17314Y-102.2431
X298.17314Y-99.7031
X298.17314Y-97.1631
X298.17314Y-84.4631
X300.71314Y-155.5831
X300.71314Y-147.9631
X300.71314Y-145.4231
X300.71314Y-142.8831
X300.71314Y-140.3431
X300.71314Y-137.8031
X300.71314Y-135.2631
X300.71314Y-132.7231
X300.71314Y-130.1831
X300.71314Y-127.6431
X300.71314Y-125.1031
X300.71314Y-122.5631
X300.71314Y-120.0231
X278.23414Y-90.6861
X300.71314Y-97.1631
X300.71314Y-84.4631
X303.25314Y-155.5831
X303.25314Y-153.0431
X303.25314Y-150.5031
X303.25314Y-102.2431
X303.25314Y-99.7031
X303.25314Y-92.0831
X303.25314Y-87.0031
X303.25314Y-84.4631
X305.79314Y-155.5831
X305.79314Y-153.0431
X305.79314Y-147.9631
X305.79314Y-145.4231
X305.79314Y-140.3431
X305.79314Y-104.7831
X305.79314Y-102.2431
X305.79314Y-99.7031
X305.79314Y-97.1631
X305.79314Y-94.6231
X305.79314Y-89.5431
X305.79314Y-87.0031
X305.79314Y-84.4631
X305.79314Y-81.9231
X308.33314Y-155.8371
X308.33314Y-153.1701
X308.33314Y-148.2171
X308.33314Y-145.6771
X308.33314Y-140.5971
X308.33314Y-138.1841
X308.33314Y-135.5171
X308.33314Y-132.9771
X308.33314Y-130.3101
X308.33314Y-127.8971
X308.33314Y-107.3231
X308.33314Y-104.7831
X308.33314Y-102.2431
X308.33314Y-99.7031
X308.33314Y-97.1631
X308.33314Y-92.0831
X308.33314Y-89.5431
X308.33314Y-87.0031
X308.33314Y-84.4631
X308.33314Y-81.9231
X308.84114Y-80.5261
X310.87314Y-153.1701
X310.87314Y-148.2171
X310.87314Y-145.6771
X310.87314Y-140.5971
X310.87314Y-138.0571
X310.87314Y-135.5171
X310.87314Y-132.9771
X310.87314Y-130.3101
X310.87314Y-127.8971
X310.87314Y-125.3571
X310.87314Y-122.8171
X310.87314Y-120.2771
X311.00014Y-117.8641
X311.38114Y-115.0701
X310.87314Y-109.8631
X310.87314Y-107.3231
X310.87314Y-104.7831
X310.87314Y-102.2431
X310.87314Y-99.7031
X310.87314Y-92.0831
X310.87314Y-89.5431
X310.87314Y-84.4631
X310.87314Y-81.9231
X311.63514Y-80.3991
X313.41314Y-97.1631
X313.41314Y-84.4631
X313.41314Y-81.9231
X313.41314Y-79.3831
X260.985Y-110.109
X283.083Y-101.473
X282.829Y-103.251
X286.004Y-104.267
X298.32295Y-93.853
X272.288Y-134.493
M30