G04 Layer: BottomSilkscreenLayer*
G04 EasyEDA Pro v2.2.47.7, 2026-04-14 20:21:41*
G04 Gerber Generator version 0.3*
G04 Scale: 100 percent, Rotated: No, Reflected: No*
G04 Dimensions in millimeters*
G04 Leading zeros omitted, absolute positions, 4 integers and 5 decimals*
G04 Generated by custom config*
G04 Object Configs: Pad,Via,Track,Text,Image,Dimension,BoardOutline,BoardCutout,CopperFilled,SolidRegion,FPCStiffener,Line,PlaneZone,ComponentProperty,ComponentSilkscreen,TearDrop*
G04 Layer Configs: 1,2,3,4,7,8,5,6,11,14,9,10,56*
G04 Copper Areas: 0*
%FSLAX45Y45*%
%MOMM*%
%ADD10C,0.127*%
%ADD11C,0.254*%
%ADD12C,0.2032*%
%ADD13C,0.1524*%
%ADD14C,0.2810*%
G75*


G04 Text Start*
G54D10*
G01X31122112Y-10343642D02*
G01X31129224Y-10336530D01*
G01X31139892Y-10332974D01*
G01X31154370Y-10332974D01*
G01X31165038Y-10336530D01*
G01X31172150Y-10343642D01*
G01X31172150Y-10351008D01*
G01X31168594Y-10358120D01*
G01X31165038Y-10361676D01*
G01X31157926Y-10365232D01*
G01X31136336Y-10372344D01*
G01X31129224Y-10375900D01*
G01X31125668Y-10379456D01*
G01X31122112Y-10386568D01*
G01X31122112Y-10397236D01*
G01X31129224Y-10404602D01*
G01X31139892Y-10408158D01*
G01X31154370Y-10408158D01*
G01X31165038Y-10404602D01*
G01X31172150Y-10397236D01*
G01X31092140Y-10332974D02*
G01X31092140Y-10408158D01*
G01X31042356Y-10332974D02*
G01X31042356Y-10408158D01*
G01X31092140Y-10368788D02*
G01X31042356Y-10368788D01*
G01X31012384Y-10332974D02*
G01X31012384Y-10408158D01*
G01X30982412Y-10332974D02*
G01X30982412Y-10408158D01*
G01X30982412Y-10332974D02*
G01X30936184Y-10332974D01*
G01X30982412Y-10368788D02*
G01X30953964Y-10368788D01*
G01X30982412Y-10408158D02*
G01X30936184Y-10408158D01*
G01X30906212Y-10332974D02*
G01X30906212Y-10408158D01*
G01X30906212Y-10408158D02*
G01X30863540Y-10408158D01*
G01X30833568Y-10332974D02*
G01X30833568Y-10408158D01*
G01X30833568Y-10332974D02*
G01X30808676Y-10332974D01*
G01X30798008Y-10336530D01*
G01X30790896Y-10343642D01*
G01X30787340Y-10351008D01*
G01X30783784Y-10361676D01*
G01X30783784Y-10379456D01*
G01X30787340Y-10390124D01*
G01X30790896Y-10397236D01*
G01X30798008Y-10404602D01*
G01X30808676Y-10408158D01*
G01X30833568Y-10408158D01*
G01X31122112Y-10610342D02*
G01X31129224Y-10603230D01*
G01X31139892Y-10599674D01*
G01X31154370Y-10599674D01*
G01X31165038Y-10603230D01*
G01X31172150Y-10610342D01*
G01X31172150Y-10617708D01*
G01X31168594Y-10624820D01*
G01X31165038Y-10628376D01*
G01X31157926Y-10631932D01*
G01X31136336Y-10639044D01*
G01X31129224Y-10642600D01*
G01X31125668Y-10646156D01*
G01X31122112Y-10653268D01*
G01X31122112Y-10663936D01*
G01X31129224Y-10671302D01*
G01X31139892Y-10674858D01*
G01X31154370Y-10674858D01*
G01X31165038Y-10671302D01*
G01X31172150Y-10663936D01*
G01X31092140Y-10599674D02*
G01X31092140Y-10674858D01*
G01X31042356Y-10599674D02*
G01X31042356Y-10674858D01*
G01X31092140Y-10635488D02*
G01X31042356Y-10635488D01*
G01X31012384Y-10599674D02*
G01X31012384Y-10674858D01*
G01X30982412Y-10599674D02*
G01X30982412Y-10674858D01*
G01X30982412Y-10599674D02*
G01X30936184Y-10599674D01*
G01X30982412Y-10635488D02*
G01X30953964Y-10635488D01*
G01X30982412Y-10674858D02*
G01X30936184Y-10674858D01*
G01X30906212Y-10599674D02*
G01X30906212Y-10674858D01*
G01X30906212Y-10674858D02*
G01X30863540Y-10674858D01*
G01X30833568Y-10599674D02*
G01X30833568Y-10674858D01*
G01X30833568Y-10599674D02*
G01X30808676Y-10599674D01*
G01X30798008Y-10603230D01*
G01X30790896Y-10610342D01*
G01X30787340Y-10617708D01*
G01X30783784Y-10628376D01*
G01X30783784Y-10646156D01*
G01X30787340Y-10656824D01*
G01X30790896Y-10663936D01*
G01X30798008Y-10671302D01*
G01X30808676Y-10674858D01*
G01X30833568Y-10674858D01*
G01X31122112Y-10864342D02*
G01X31129224Y-10857230D01*
G01X31139892Y-10853674D01*
G01X31154370Y-10853674D01*
G01X31165038Y-10857230D01*
G01X31172150Y-10864342D01*
G01X31172150Y-10871708D01*
G01X31168594Y-10878820D01*
G01X31165038Y-10882376D01*
G01X31157926Y-10885932D01*
G01X31136336Y-10893044D01*
G01X31129224Y-10896600D01*
G01X31125668Y-10900156D01*
G01X31122112Y-10907268D01*
G01X31122112Y-10917936D01*
G01X31129224Y-10925302D01*
G01X31139892Y-10928858D01*
G01X31154370Y-10928858D01*
G01X31165038Y-10925302D01*
G01X31172150Y-10917936D01*
G01X31092140Y-10853674D02*
G01X31092140Y-10928858D01*
G01X31042356Y-10853674D02*
G01X31042356Y-10928858D01*
G01X31092140Y-10889488D02*
G01X31042356Y-10889488D01*
G01X31012384Y-10853674D02*
G01X31012384Y-10928858D01*
G01X30982412Y-10853674D02*
G01X30982412Y-10928858D01*
G01X30982412Y-10853674D02*
G01X30936184Y-10853674D01*
G01X30982412Y-10889488D02*
G01X30953964Y-10889488D01*
G01X30982412Y-10928858D02*
G01X30936184Y-10928858D01*
G01X30906212Y-10853674D02*
G01X30906212Y-10928858D01*
G01X30906212Y-10928858D02*
G01X30863540Y-10928858D01*
G01X30833568Y-10853674D02*
G01X30833568Y-10928858D01*
G01X30833568Y-10853674D02*
G01X30808676Y-10853674D01*
G01X30798008Y-10857230D01*
G01X30790896Y-10864342D01*
G01X30787340Y-10871708D01*
G01X30783784Y-10882376D01*
G01X30783784Y-10900156D01*
G01X30787340Y-10910824D01*
G01X30790896Y-10917936D01*
G01X30798008Y-10925302D01*
G01X30808676Y-10928858D01*
G01X30833568Y-10928858D01*
G54D11*
G01X31058612Y-11100562D02*
G01X31065724Y-11086338D01*
G01X31079948Y-11072114D01*
G01X31094426Y-11065002D01*
G01X31122874Y-11065002D01*
G01X31137098Y-11072114D01*
G01X31151576Y-11086338D01*
G01X31158688Y-11100562D01*
G01X31165800Y-11122152D01*
G01X31165800Y-11157712D01*
G01X31158688Y-11179302D01*
G01X31151576Y-11193526D01*
G01X31137098Y-11207750D01*
G01X31122874Y-11214862D01*
G01X31094426Y-11214862D01*
G01X31079948Y-11207750D01*
G01X31065724Y-11193526D01*
G01X31058612Y-11179302D01*
G01X31058612Y-11157712D01*
G01X31094426Y-11157712D02*
G01X31058612Y-11157712D01*
G01X30998922Y-11065002D02*
G01X30998922Y-11214862D01*
G01X30998922Y-11065002D02*
G01X30898846Y-11214862D01*
G01X30898846Y-11065002D02*
G01X30898846Y-11214862D01*
G01X30839156Y-11065002D02*
G01X30839156Y-11214862D01*
G01X30839156Y-11065002D02*
G01X30789118Y-11065002D01*
G01X30767782Y-11072114D01*
G01X30753304Y-11086338D01*
G01X30746192Y-11100562D01*
G01X30739080Y-11122152D01*
G01X30739080Y-11157712D01*
G01X30746192Y-11179302D01*
G01X30753304Y-11193526D01*
G01X30767782Y-11207750D01*
G01X30789118Y-11214862D01*
G01X30839156Y-11214862D01*
G01X31165800Y-11425936D02*
G01X31165800Y-11411712D01*
G01X31158688Y-11390376D01*
G01X31144464Y-11383264D01*
G01X31129986Y-11383264D01*
G01X31115762Y-11390376D01*
G01X31087314Y-11411712D01*
G01X31072836Y-11418824D01*
G01X31058612Y-11418824D01*
G01X31044388Y-11411712D01*
G01X31037276Y-11397488D01*
G01X31165800Y-11411712D02*
G01X31158688Y-11397488D01*
G01X31144464Y-11390376D01*
G01X31129986Y-11390376D01*
G01X31115762Y-11397488D01*
G01X31087314Y-11418824D01*
G01X31072836Y-11425936D01*
G01X31058612Y-11425936D01*
G01X31044388Y-11418824D01*
G01X31037276Y-11397488D01*
G01X31037276Y-11383264D01*
G01X30977586Y-11319002D02*
G01X30977586Y-11468862D01*
G01X30977586Y-11319002D02*
G01X30927548Y-11319002D01*
G01X30906212Y-11326114D01*
G01X30891734Y-11340338D01*
G01X30884622Y-11354562D01*
G01X30877510Y-11376152D01*
G01X30877510Y-11411712D01*
G01X30884622Y-11433302D01*
G01X30891734Y-11447526D01*
G01X30906212Y-11461750D01*
G01X30927548Y-11468862D01*
G01X30977586Y-11468862D01*
G01X30817820Y-11347450D02*
G01X30803596Y-11340338D01*
G01X30782006Y-11319002D01*
G01X30782006Y-11468862D01*
G01X30622240Y-11319002D02*
G01X30693614Y-11468862D01*
G01X30722316Y-11319002D02*
G01X30622240Y-11319002D01*
G01X31165800Y-11667236D02*
G01X31165800Y-11653012D01*
G01X31158688Y-11631676D01*
G01X31144464Y-11624564D01*
G01X31129986Y-11624564D01*
G01X31115762Y-11631676D01*
G01X31087314Y-11653012D01*
G01X31072836Y-11660124D01*
G01X31058612Y-11660124D01*
G01X31044388Y-11653012D01*
G01X31037276Y-11638788D01*
G01X31165800Y-11653012D02*
G01X31158688Y-11638788D01*
G01X31144464Y-11631676D01*
G01X31129986Y-11631676D01*
G01X31115762Y-11638788D01*
G01X31087314Y-11660124D01*
G01X31072836Y-11667236D01*
G01X31058612Y-11667236D01*
G01X31044388Y-11660124D01*
G01X31037276Y-11638788D01*
G01X31037276Y-11624564D01*
G01X30977586Y-11560302D02*
G01X30977586Y-11710162D01*
G01X30977586Y-11560302D02*
G01X30927548Y-11560302D01*
G01X30906212Y-11567414D01*
G01X30891734Y-11581638D01*
G01X30884622Y-11595862D01*
G01X30877510Y-11617452D01*
G01X30877510Y-11653012D01*
G01X30884622Y-11674602D01*
G01X30891734Y-11688826D01*
G01X30906212Y-11703050D01*
G01X30927548Y-11710162D01*
G01X30977586Y-11710162D01*
G01X30817820Y-11588750D02*
G01X30803596Y-11581638D01*
G01X30782006Y-11560302D01*
G01X30782006Y-11710162D01*
G01X30636464Y-11581638D02*
G01X30643830Y-11567414D01*
G01X30665166Y-11560302D01*
G01X30679390Y-11560302D01*
G01X30700980Y-11567414D01*
G01X30715204Y-11588750D01*
G01X30722316Y-11624564D01*
G01X30722316Y-11660124D01*
G01X30715204Y-11688826D01*
G01X30700980Y-11703050D01*
G01X30679390Y-11710162D01*
G01X30672278Y-11710162D01*
G01X30650942Y-11703050D01*
G01X30636464Y-11688826D01*
G01X30629352Y-11667236D01*
G01X30629352Y-11660124D01*
G01X30636464Y-11638788D01*
G01X30650942Y-11624564D01*
G01X30672278Y-11617452D01*
G01X30679390Y-11617452D01*
G01X30700980Y-11624564D01*
G01X30715204Y-11638788D01*
G01X30722316Y-11660124D01*
G01X31165800Y-11827002D02*
G01X31165800Y-11976862D01*
G01X31165800Y-11827002D02*
G01X31115762Y-11827002D01*
G01X31094426Y-11834114D01*
G01X31079948Y-11848338D01*
G01X31072836Y-11862562D01*
G01X31065724Y-11884152D01*
G01X31065724Y-11919712D01*
G01X31072836Y-11941302D01*
G01X31079948Y-11955526D01*
G01X31094426Y-11969750D01*
G01X31115762Y-11976862D01*
G01X31165800Y-11976862D01*
G01X31006034Y-11855450D02*
G01X30991810Y-11848338D01*
G01X30970220Y-11827002D01*
G01X30970220Y-11976862D01*
G01X30824678Y-11827002D02*
G01X30896306Y-11827002D01*
G01X30903418Y-11891264D01*
G01X30896306Y-11884152D01*
G01X30874716Y-11876786D01*
G01X30853380Y-11876786D01*
G01X30832044Y-11884152D01*
G01X30817566Y-11898376D01*
G01X30810454Y-11919712D01*
G01X30810454Y-11933936D01*
G01X30817566Y-11955526D01*
G01X30832044Y-11969750D01*
G01X30853380Y-11976862D01*
G01X30874716Y-11976862D01*
G01X30896306Y-11969750D01*
G01X30903418Y-11962638D01*
G01X30910530Y-11948414D01*
G01X30622240Y-11798300D02*
G01X30750764Y-12026900D01*
G01X30562550Y-11827002D02*
G01X30562550Y-11976862D01*
G01X30562550Y-11827002D02*
G01X30498288Y-11827002D01*
G01X30476698Y-11834114D01*
G01X30469586Y-11841226D01*
G01X30462474Y-11855450D01*
G01X30462474Y-11869674D01*
G01X30469586Y-11884152D01*
G01X30476698Y-11891264D01*
G01X30498288Y-11898376D01*
G01X30562550Y-11898376D01*
G01X30512512Y-11898376D02*
G01X30462474Y-11976862D01*
G01X30402784Y-11827002D02*
G01X30302708Y-11976862D01*
G01X30302708Y-11827002D02*
G01X30402784Y-11976862D01*
G01X30243018Y-11855450D02*
G01X30228794Y-11848338D01*
G01X30207204Y-11827002D01*
G01X30207204Y-11976862D01*
G01X31165800Y-12081002D02*
G01X31165800Y-12230862D01*
G01X31165800Y-12081002D02*
G01X31115762Y-12081002D01*
G01X31094426Y-12088114D01*
G01X31079948Y-12102338D01*
G01X31072836Y-12116562D01*
G01X31065724Y-12138152D01*
G01X31065724Y-12173712D01*
G01X31072836Y-12195302D01*
G01X31079948Y-12209526D01*
G01X31094426Y-12223750D01*
G01X31115762Y-12230862D01*
G01X31165800Y-12230862D01*
G01X31006034Y-12109450D02*
G01X30991810Y-12102338D01*
G01X30970220Y-12081002D01*
G01X30970220Y-12230862D01*
G01X30839156Y-12081002D02*
G01X30910530Y-12180824D01*
G01X30803342Y-12180824D01*
G01X30839156Y-12081002D02*
G01X30839156Y-12230862D01*
G01X30615128Y-12052300D02*
G01X30743652Y-12280900D01*
G01X30505400Y-12081002D02*
G01X30505400Y-12230862D01*
G01X30555438Y-12081002D02*
G01X30455362Y-12081002D01*
G01X30395672Y-12081002D02*
G01X30295596Y-12230862D01*
G01X30295596Y-12081002D02*
G01X30395672Y-12230862D01*
G01X30235906Y-12109450D02*
G01X30221682Y-12102338D01*
G01X30200092Y-12081002D01*
G01X30200092Y-12230862D01*
G01X31165800Y-12441936D02*
G01X31165800Y-12427712D01*
G01X31158688Y-12406376D01*
G01X31144464Y-12399264D01*
G01X31129986Y-12399264D01*
G01X31115762Y-12406376D01*
G01X31087314Y-12427712D01*
G01X31072836Y-12434824D01*
G01X31058612Y-12434824D01*
G01X31044388Y-12427712D01*
G01X31037276Y-12413488D01*
G01X31165800Y-12427712D02*
G01X31158688Y-12413488D01*
G01X31144464Y-12406376D01*
G01X31129986Y-12406376D01*
G01X31115762Y-12413488D01*
G01X31087314Y-12434824D01*
G01X31072836Y-12441936D01*
G01X31058612Y-12441936D01*
G01X31044388Y-12434824D01*
G01X31037276Y-12413488D01*
G01X31037276Y-12399264D01*
G01X30977586Y-12335002D02*
G01X30977586Y-12484862D01*
G01X30977586Y-12335002D02*
G01X30927548Y-12335002D01*
G01X30906212Y-12342114D01*
G01X30891734Y-12356338D01*
G01X30884622Y-12370562D01*
G01X30877510Y-12392152D01*
G01X30877510Y-12427712D01*
G01X30884622Y-12449302D01*
G01X30891734Y-12463526D01*
G01X30906212Y-12477750D01*
G01X30927548Y-12484862D01*
G01X30977586Y-12484862D01*
G01X30817820Y-12363450D02*
G01X30803596Y-12356338D01*
G01X30782006Y-12335002D01*
G01X30782006Y-12484862D01*
G01X30708092Y-12335002D02*
G01X30629352Y-12335002D01*
G01X30672278Y-12392152D01*
G01X30650942Y-12392152D01*
G01X30636464Y-12399264D01*
G01X30629352Y-12406376D01*
G01X30622240Y-12427712D01*
G01X30622240Y-12441936D01*
G01X30629352Y-12463526D01*
G01X30643830Y-12477750D01*
G01X30665166Y-12484862D01*
G01X30686502Y-12484862D01*
G01X30708092Y-12477750D01*
G01X30715204Y-12470638D01*
G01X30722316Y-12456414D01*
G01X31165800Y-12589002D02*
G01X31165800Y-12738862D01*
G01X31165800Y-12589002D02*
G01X31115762Y-12589002D01*
G01X31094426Y-12596114D01*
G01X31079948Y-12610338D01*
G01X31072836Y-12624562D01*
G01X31065724Y-12646152D01*
G01X31065724Y-12681712D01*
G01X31072836Y-12703302D01*
G01X31079948Y-12717526D01*
G01X31094426Y-12731750D01*
G01X31115762Y-12738862D01*
G01X31165800Y-12738862D01*
G01X31006034Y-12617450D02*
G01X30991810Y-12610338D01*
G01X30970220Y-12589002D01*
G01X30970220Y-12738862D01*
G01X30903418Y-12624562D02*
G01X30903418Y-12617450D01*
G01X30896306Y-12603226D01*
G01X30889194Y-12596114D01*
G01X30874716Y-12589002D01*
G01X30846268Y-12589002D01*
G01X30832044Y-12596114D01*
G01X30824678Y-12603226D01*
G01X30817566Y-12617450D01*
G01X30817566Y-12631674D01*
G01X30824678Y-12646152D01*
G01X30839156Y-12667488D01*
G01X30910530Y-12738862D01*
G01X30810454Y-12738862D01*
G01X31165800Y-12843002D02*
G01X31165800Y-12992862D01*
G01X31165800Y-12843002D02*
G01X31115762Y-12843002D01*
G01X31094426Y-12850114D01*
G01X31079948Y-12864338D01*
G01X31072836Y-12878562D01*
G01X31065724Y-12900152D01*
G01X31065724Y-12935712D01*
G01X31072836Y-12957302D01*
G01X31079948Y-12971526D01*
G01X31094426Y-12985750D01*
G01X31115762Y-12992862D01*
G01X31165800Y-12992862D01*
G01X31006034Y-12871450D02*
G01X30991810Y-12864338D01*
G01X30970220Y-12843002D01*
G01X30970220Y-12992862D01*
G01X30910530Y-12871450D02*
G01X30896306Y-12864338D01*
G01X30874716Y-12843002D01*
G01X30874716Y-12992862D01*
G01X31165800Y-13109702D02*
G01X31165800Y-13259562D01*
G01X31165800Y-13109702D02*
G01X31115762Y-13109702D01*
G01X31094426Y-13116814D01*
G01X31079948Y-13131038D01*
G01X31072836Y-13145262D01*
G01X31065724Y-13166852D01*
G01X31065724Y-13202412D01*
G01X31072836Y-13224002D01*
G01X31079948Y-13238226D01*
G01X31094426Y-13252450D01*
G01X31115762Y-13259562D01*
G01X31165800Y-13259562D01*
G01X31006034Y-13138150D02*
G01X30991810Y-13131038D01*
G01X30970220Y-13109702D01*
G01X30970220Y-13259562D01*
G01X30867604Y-13109702D02*
G01X30889194Y-13116814D01*
G01X30903418Y-13138150D01*
G01X30910530Y-13173964D01*
G01X30910530Y-13195300D01*
G01X30903418Y-13231114D01*
G01X30889194Y-13252450D01*
G01X30867604Y-13259562D01*
G01X30853380Y-13259562D01*
G01X30832044Y-13252450D01*
G01X30817566Y-13231114D01*
G01X30810454Y-13195300D01*
G01X30810454Y-13173964D01*
G01X30817566Y-13138150D01*
G01X30832044Y-13116814D01*
G01X30853380Y-13109702D01*
G01X30867604Y-13109702D01*
G01X31165800Y-13359892D02*
G01X31165800Y-13509752D01*
G01X31165800Y-13359892D02*
G01X31101538Y-13359892D01*
G01X31079948Y-13367004D01*
G01X31072836Y-13374116D01*
G01X31065724Y-13388340D01*
G01X31065724Y-13402564D01*
G01X31072836Y-13417042D01*
G01X31079948Y-13424154D01*
G01X31101538Y-13431266D01*
G01X31165800Y-13431266D01*
G01X31115762Y-13431266D02*
G01X31065724Y-13509752D01*
G01X31006034Y-13359892D02*
G01X30905958Y-13509752D01*
G01X30905958Y-13359892D02*
G01X31006034Y-13509752D01*
G01X30832044Y-13359892D02*
G01X30753304Y-13359892D01*
G01X30796230Y-13417042D01*
G01X30774894Y-13417042D01*
G01X30760416Y-13424154D01*
G01X30753304Y-13431266D01*
G01X30746192Y-13452602D01*
G01X30746192Y-13466826D01*
G01X30753304Y-13488416D01*
G01X30767782Y-13502640D01*
G01X30789118Y-13509752D01*
G01X30810454Y-13509752D01*
G01X30832044Y-13502640D01*
G01X30839156Y-13495528D01*
G01X30846268Y-13481304D01*
G01X31115762Y-13604438D02*
G01X31115762Y-13754298D01*
G01X31165800Y-13604438D02*
G01X31065724Y-13604438D01*
G01X31006034Y-13604438D02*
G01X30905958Y-13754298D01*
G01X30905958Y-13604438D02*
G01X31006034Y-13754298D01*
G01X30832044Y-13604438D02*
G01X30753304Y-13604438D01*
G01X30796230Y-13661588D01*
G01X30774894Y-13661588D01*
G01X30760416Y-13668700D01*
G01X30753304Y-13675812D01*
G01X30746192Y-13697148D01*
G01X30746192Y-13711372D01*
G01X30753304Y-13732962D01*
G01X30767782Y-13747186D01*
G01X30789118Y-13754298D01*
G01X30810454Y-13754298D01*
G01X30832044Y-13747186D01*
G01X30839156Y-13740074D01*
G01X30846268Y-13725850D01*
G01X31058612Y-13894562D02*
G01X31065724Y-13880338D01*
G01X31079948Y-13866114D01*
G01X31094426Y-13859002D01*
G01X31122874Y-13859002D01*
G01X31137098Y-13866114D01*
G01X31151576Y-13880338D01*
G01X31158688Y-13894562D01*
G01X31165800Y-13916152D01*
G01X31165800Y-13951712D01*
G01X31158688Y-13973302D01*
G01X31151576Y-13987526D01*
G01X31137098Y-14001750D01*
G01X31122874Y-14008862D01*
G01X31094426Y-14008862D01*
G01X31079948Y-14001750D01*
G01X31065724Y-13987526D01*
G01X31058612Y-13973302D01*
G01X30898846Y-13880338D02*
G01X30913070Y-13866114D01*
G01X30934660Y-13859002D01*
G01X30963108Y-13859002D01*
G01X30984698Y-13866114D01*
G01X30998922Y-13880338D01*
G01X30998922Y-13894562D01*
G01X30991810Y-13908786D01*
G01X30984698Y-13916152D01*
G01X30970220Y-13923264D01*
G01X30927548Y-13937488D01*
G01X30913070Y-13944600D01*
G01X30905958Y-13951712D01*
G01X30898846Y-13965936D01*
G01X30898846Y-13987526D01*
G01X30913070Y-14001750D01*
G01X30934660Y-14008862D01*
G01X30963108Y-14008862D01*
G01X30984698Y-14001750D01*
G01X30998922Y-13987526D01*
G01X31065724Y-14140265D02*
G01X31079948Y-14126041D01*
G01X31101538Y-14118929D01*
G01X31129986Y-14118929D01*
G01X31151576Y-14126041D01*
G01X31165800Y-14140265D01*
G01X31165800Y-14154489D01*
G01X31158688Y-14168713D01*
G01X31151576Y-14176079D01*
G01X31137098Y-14183191D01*
G01X31094426Y-14197415D01*
G01X31079948Y-14204527D01*
G01X31072836Y-14211639D01*
G01X31065724Y-14225863D01*
G01X31065724Y-14247453D01*
G01X31079948Y-14261677D01*
G01X31101538Y-14268789D01*
G01X31129986Y-14268789D01*
G01X31151576Y-14261677D01*
G01X31165800Y-14247453D01*
G01X30898846Y-14154489D02*
G01X30905958Y-14140265D01*
G01X30920182Y-14126041D01*
G01X30934660Y-14118929D01*
G01X30963108Y-14118929D01*
G01X30977332Y-14126041D01*
G01X30991810Y-14140265D01*
G01X30998922Y-14154489D01*
G01X31006034Y-14176079D01*
G01X31006034Y-14211639D01*
G01X30998922Y-14233229D01*
G01X30991810Y-14247453D01*
G01X30977332Y-14261677D01*
G01X30963108Y-14268789D01*
G01X30934660Y-14268789D01*
G01X30920182Y-14261677D01*
G01X30905958Y-14247453D01*
G01X30898846Y-14233229D01*
G01X30839156Y-14118929D02*
G01X30839156Y-14268789D01*
G01X30739080Y-14118929D02*
G01X30839156Y-14218751D01*
G01X30803342Y-14183191D02*
G01X30739080Y-14268789D01*
G01X31165800Y-14376174D02*
G01X31165800Y-14526034D01*
G01X31165800Y-14376174D02*
G01X31108650Y-14526034D01*
G01X31051500Y-14376174D02*
G01X31108650Y-14526034D01*
G01X31051500Y-14376174D02*
G01X31051500Y-14526034D01*
G01X30991810Y-14376174D02*
G01X30991810Y-14526034D01*
G01X30832044Y-14397510D02*
G01X30846268Y-14383286D01*
G01X30867858Y-14376174D01*
G01X30896306Y-14376174D01*
G01X30917896Y-14383286D01*
G01X30932120Y-14397510D01*
G01X30932120Y-14411734D01*
G01X30925008Y-14425958D01*
G01X30917896Y-14433324D01*
G01X30903418Y-14440436D01*
G01X30860746Y-14454660D01*
G01X30846268Y-14461772D01*
G01X30839156Y-14468884D01*
G01X30832044Y-14483108D01*
G01X30832044Y-14504698D01*
G01X30846268Y-14518922D01*
G01X30867858Y-14526034D01*
G01X30896306Y-14526034D01*
G01X30917896Y-14518922D01*
G01X30932120Y-14504698D01*
G01X30729428Y-14376174D02*
G01X30743652Y-14383286D01*
G01X30758130Y-14397510D01*
G01X30765242Y-14411734D01*
G01X30772354Y-14433324D01*
G01X30772354Y-14468884D01*
G01X30765242Y-14490474D01*
G01X30758130Y-14504698D01*
G01X30743652Y-14518922D01*
G01X30729428Y-14526034D01*
G01X30700980Y-14526034D01*
G01X30686502Y-14518922D01*
G01X30672278Y-14504698D01*
G01X30665166Y-14490474D01*
G01X30658054Y-14468884D01*
G01X30658054Y-14433324D01*
G01X30665166Y-14411734D01*
G01X30672278Y-14397510D01*
G01X30686502Y-14383286D01*
G01X30700980Y-14376174D01*
G01X30729428Y-14376174D01*
G01X31165800Y-14620720D02*
G01X31165800Y-14770580D01*
G01X31165800Y-14620720D02*
G01X31108650Y-14770580D01*
G01X31051500Y-14620720D02*
G01X31108650Y-14770580D01*
G01X31051500Y-14620720D02*
G01X31051500Y-14770580D01*
G01X30948884Y-14620720D02*
G01X30963108Y-14627832D01*
G01X30977586Y-14642056D01*
G01X30984698Y-14656280D01*
G01X30991810Y-14677870D01*
G01X30991810Y-14713430D01*
G01X30984698Y-14735020D01*
G01X30977586Y-14749244D01*
G01X30963108Y-14763468D01*
G01X30948884Y-14770580D01*
G01X30920436Y-14770580D01*
G01X30905958Y-14763468D01*
G01X30891734Y-14749244D01*
G01X30884622Y-14735020D01*
G01X30877510Y-14713430D01*
G01X30877510Y-14677870D01*
G01X30884622Y-14656280D01*
G01X30891734Y-14642056D01*
G01X30905958Y-14627832D01*
G01X30920436Y-14620720D01*
G01X30948884Y-14620720D01*
G01X30717744Y-14642056D02*
G01X30731968Y-14627832D01*
G01X30753558Y-14620720D01*
G01X30782006Y-14620720D01*
G01X30803596Y-14627832D01*
G01X30817820Y-14642056D01*
G01X30817820Y-14656280D01*
G01X30810708Y-14670504D01*
G01X30803596Y-14677870D01*
G01X30789118Y-14684982D01*
G01X30746446Y-14699206D01*
G01X30731968Y-14706318D01*
G01X30724856Y-14713430D01*
G01X30717744Y-14727654D01*
G01X30717744Y-14749244D01*
G01X30731968Y-14763468D01*
G01X30753558Y-14770580D01*
G01X30782006Y-14770580D01*
G01X30803596Y-14763468D01*
G01X30817820Y-14749244D01*
G01X30658054Y-14620720D02*
G01X30658054Y-14770580D01*
G01X31065724Y-14899301D02*
G01X31079948Y-14885077D01*
G01X31101538Y-14877965D01*
G01X31129986Y-14877965D01*
G01X31151576Y-14885077D01*
G01X31165800Y-14899301D01*
G01X31165800Y-14913525D01*
G01X31158688Y-14927749D01*
G01X31151576Y-14935115D01*
G01X31137098Y-14942227D01*
G01X31094426Y-14956451D01*
G01X31079948Y-14963563D01*
G01X31072836Y-14970675D01*
G01X31065724Y-14984899D01*
G01X31065724Y-15006489D01*
G01X31079948Y-15020713D01*
G01X31101538Y-15027825D01*
G01X31129986Y-15027825D01*
G01X31151576Y-15020713D01*
G01X31165800Y-15006489D01*
G01X30898846Y-14913525D02*
G01X30905958Y-14899301D01*
G01X30920182Y-14885077D01*
G01X30934660Y-14877965D01*
G01X30963108Y-14877965D01*
G01X30977332Y-14885077D01*
G01X30991810Y-14899301D01*
G01X30998922Y-14913525D01*
G01X31006034Y-14935115D01*
G01X31006034Y-14970675D01*
G01X30998922Y-14992265D01*
G01X30991810Y-15006489D01*
G01X30977332Y-15020713D01*
G01X30963108Y-15027825D01*
G01X30934660Y-15027825D01*
G01X30920182Y-15020713D01*
G01X30905958Y-15006489D01*
G01X30898846Y-14992265D01*
G01X30839156Y-14877965D02*
G01X30839156Y-15027825D01*
G01X30839156Y-15027825D02*
G01X30753304Y-15027825D01*
G01X31065724Y-15156547D02*
G01X31079948Y-15142323D01*
G01X31101538Y-15135211D01*
G01X31129986Y-15135211D01*
G01X31151576Y-15142323D01*
G01X31165800Y-15156547D01*
G01X31165800Y-15170771D01*
G01X31158688Y-15184995D01*
G01X31151576Y-15192361D01*
G01X31137098Y-15199473D01*
G01X31094426Y-15213697D01*
G01X31079948Y-15220809D01*
G01X31072836Y-15227921D01*
G01X31065724Y-15242145D01*
G01X31065724Y-15263735D01*
G01X31079948Y-15277959D01*
G01X31101538Y-15285071D01*
G01X31129986Y-15285071D01*
G01X31151576Y-15277959D01*
G01X31165800Y-15263735D01*
G01X31006034Y-15135211D02*
G01X31006034Y-15285071D01*
G01X31006034Y-15135211D02*
G01X30955996Y-15135211D01*
G01X30934660Y-15142323D01*
G01X30920182Y-15156547D01*
G01X30913070Y-15170771D01*
G01X30905958Y-15192361D01*
G01X30905958Y-15227921D01*
G01X30913070Y-15249511D01*
G01X30920182Y-15263735D01*
G01X30934660Y-15277959D01*
G01X30955996Y-15285071D01*
G01X31006034Y-15285071D01*
G01X30789118Y-15135211D02*
G01X30846268Y-15285071D01*
G01X30789118Y-15135211D02*
G01X30731968Y-15285071D01*
G01X30824932Y-15235033D02*
G01X30753304Y-15235033D01*
G01X31165800Y-15392456D02*
G01X31165800Y-15542316D01*
G01X31165800Y-15392456D02*
G01X31101538Y-15392456D01*
G01X31079948Y-15399568D01*
G01X31072836Y-15406680D01*
G01X31065724Y-15420904D01*
G01X31065724Y-15435128D01*
G01X31072836Y-15449606D01*
G01X31079948Y-15456718D01*
G01X31101538Y-15463830D01*
G01X31165800Y-15463830D01*
G01X31115762Y-15463830D02*
G01X31065724Y-15542316D01*
G01X31006034Y-15392456D02*
G01X30905958Y-15542316D01*
G01X30905958Y-15392456D02*
G01X31006034Y-15542316D01*
G01X30803342Y-15392456D02*
G01X30824932Y-15399568D01*
G01X30839156Y-15420904D01*
G01X30846268Y-15456718D01*
G01X30846268Y-15478054D01*
G01X30839156Y-15513868D01*
G01X30824932Y-15535204D01*
G01X30803342Y-15542316D01*
G01X30789118Y-15542316D01*
G01X30767782Y-15535204D01*
G01X30753304Y-15513868D01*
G01X30746192Y-15478054D01*
G01X30746192Y-15456718D01*
G01X30753304Y-15420904D01*
G01X30767782Y-15399568D01*
G01X30789118Y-15392456D01*
G01X30803342Y-15392456D01*
G01X31115762Y-15649702D02*
G01X31115762Y-15799562D01*
G01X31165800Y-15649702D02*
G01X31065724Y-15649702D01*
G01X31006034Y-15649702D02*
G01X30905958Y-15799562D01*
G01X30905958Y-15649702D02*
G01X31006034Y-15799562D01*
G01X30803342Y-15649702D02*
G01X30824932Y-15656814D01*
G01X30839156Y-15678150D01*
G01X30846268Y-15713964D01*
G01X30846268Y-15735300D01*
G01X30839156Y-15771114D01*
G01X30824932Y-15792450D01*
G01X30803342Y-15799562D01*
G01X30789118Y-15799562D01*
G01X30767782Y-15792450D01*
G01X30753304Y-15771114D01*
G01X30746192Y-15735300D01*
G01X30746192Y-15713964D01*
G01X30753304Y-15678150D01*
G01X30767782Y-15656814D01*
G01X30789118Y-15649702D01*
G01X30803342Y-15649702D01*
G01X25991312Y-15649702D02*
G01X26048462Y-15799562D01*
G01X25991312Y-15649702D02*
G01X25934162Y-15799562D01*
G01X26027126Y-15749524D02*
G01X25955498Y-15749524D01*
G01X25831546Y-15649702D02*
G01X25853136Y-15656814D01*
G01X25867360Y-15678150D01*
G01X25874472Y-15713964D01*
G01X25874472Y-15735300D01*
G01X25867360Y-15771114D01*
G01X25853136Y-15792450D01*
G01X25831546Y-15799562D01*
G01X25817322Y-15799562D01*
G01X25795986Y-15792450D01*
G01X25781508Y-15771114D01*
G01X25774396Y-15735300D01*
G01X25774396Y-15713964D01*
G01X25781508Y-15678150D01*
G01X25795986Y-15656814D01*
G01X25817322Y-15649702D01*
G01X25831546Y-15649702D01*
G01X25927050Y-15392456D02*
G01X25984200Y-15542316D01*
G01X25927050Y-15392456D02*
G01X25869900Y-15542316D01*
G01X25962864Y-15492278D02*
G01X25891236Y-15492278D01*
G01X25810210Y-15420904D02*
G01X25795986Y-15413792D01*
G01X25774396Y-15392456D01*
G01X25774396Y-15542316D01*
G01X25991312Y-15135211D02*
G01X26048462Y-15285071D01*
G01X25991312Y-15135211D02*
G01X25934162Y-15285071D01*
G01X26027126Y-15235033D02*
G01X25955498Y-15235033D01*
G01X25867360Y-15170771D02*
G01X25867360Y-15163659D01*
G01X25860248Y-15149435D01*
G01X25853136Y-15142323D01*
G01X25838658Y-15135211D01*
G01X25810210Y-15135211D01*
G01X25795986Y-15142323D01*
G01X25788620Y-15149435D01*
G01X25781508Y-15163659D01*
G01X25781508Y-15177883D01*
G01X25788620Y-15192361D01*
G01X25803098Y-15213697D01*
G01X25874472Y-15285071D01*
G01X25774396Y-15285071D01*
G01X25991312Y-14877965D02*
G01X26048462Y-15027825D01*
G01X25991312Y-14877965D02*
G01X25934162Y-15027825D01*
G01X26027126Y-14977787D02*
G01X25955498Y-14977787D01*
G01X25860248Y-14877965D02*
G01X25781508Y-14877965D01*
G01X25824434Y-14935115D01*
G01X25803098Y-14935115D01*
G01X25788620Y-14942227D01*
G01X25781508Y-14949339D01*
G01X25774396Y-14970675D01*
G01X25774396Y-14984899D01*
G01X25781508Y-15006489D01*
G01X25795986Y-15020713D01*
G01X25817322Y-15027825D01*
G01X25838658Y-15027825D01*
G01X25860248Y-15020713D01*
G01X25867360Y-15013601D01*
G01X25874472Y-14999377D01*
G01X25998424Y-14620720D02*
G01X26055574Y-14770580D01*
G01X25998424Y-14620720D02*
G01X25941274Y-14770580D01*
G01X26034238Y-14720542D02*
G01X25962610Y-14720542D01*
G01X25810210Y-14620720D02*
G01X25881584Y-14720542D01*
G01X25774396Y-14720542D01*
G01X25810210Y-14620720D02*
G01X25810210Y-14770580D01*
G01X25984200Y-14118929D02*
G01X26041350Y-14268789D01*
G01X25984200Y-14118929D02*
G01X25927050Y-14268789D01*
G01X26020014Y-14218751D02*
G01X25948386Y-14218751D01*
G01X25781508Y-14140265D02*
G01X25788874Y-14126041D01*
G01X25810210Y-14118929D01*
G01X25824434Y-14118929D01*
G01X25846024Y-14126041D01*
G01X25860248Y-14147377D01*
G01X25867360Y-14183191D01*
G01X25867360Y-14218751D01*
G01X25860248Y-14247453D01*
G01X25846024Y-14261677D01*
G01X25824434Y-14268789D01*
G01X25817322Y-14268789D01*
G01X25795986Y-14261677D01*
G01X25781508Y-14247453D01*
G01X25774396Y-14225863D01*
G01X25774396Y-14218751D01*
G01X25781508Y-14197415D01*
G01X25795986Y-14183191D01*
G01X25817322Y-14176079D01*
G01X25824434Y-14176079D01*
G01X25846024Y-14183191D01*
G01X25860248Y-14197415D01*
G01X25867360Y-14218751D01*
G01X26194004Y-13861683D02*
G01X26194004Y-14011543D01*
G01X26194004Y-13861683D02*
G01X26143966Y-13861683D01*
G01X26122630Y-13868795D01*
G01X26108152Y-13883019D01*
G01X26101040Y-13897243D01*
G01X26093928Y-13918833D01*
G01X26093928Y-13954393D01*
G01X26101040Y-13975983D01*
G01X26108152Y-13990207D01*
G01X26122630Y-14004431D01*
G01X26143966Y-14011543D01*
G01X26194004Y-14011543D01*
G01X26020014Y-13861683D02*
G01X25941274Y-13861683D01*
G01X25984200Y-13918833D01*
G01X25962864Y-13918833D01*
G01X25948386Y-13925945D01*
G01X25941274Y-13933057D01*
G01X25934162Y-13954393D01*
G01X25934162Y-13968617D01*
G01X25941274Y-13990207D01*
G01X25955752Y-14004431D01*
G01X25977088Y-14011543D01*
G01X25998424Y-14011543D01*
G01X26020014Y-14004431D01*
G01X26027126Y-13997319D01*
G01X26034238Y-13983095D01*
G01X25831546Y-13861683D02*
G01X25853136Y-13868795D01*
G01X25867360Y-13890131D01*
G01X25874472Y-13925945D01*
G01X25874472Y-13947281D01*
G01X25867360Y-13983095D01*
G01X25853136Y-14004431D01*
G01X25831546Y-14011543D01*
G01X25817322Y-14011543D01*
G01X25795986Y-14004431D01*
G01X25781508Y-13983095D01*
G01X25774396Y-13947281D01*
G01X25774396Y-13925945D01*
G01X25781508Y-13890131D01*
G01X25795986Y-13868795D01*
G01X25817322Y-13861683D01*
G01X25831546Y-13861683D01*
G01X26129742Y-13604438D02*
G01X26129742Y-13754298D01*
G01X26129742Y-13604438D02*
G01X26079704Y-13604438D01*
G01X26058368Y-13611550D01*
G01X26043890Y-13625774D01*
G01X26036778Y-13639998D01*
G01X26029666Y-13661588D01*
G01X26029666Y-13697148D01*
G01X26036778Y-13718738D01*
G01X26043890Y-13732962D01*
G01X26058368Y-13747186D01*
G01X26079704Y-13754298D01*
G01X26129742Y-13754298D01*
G01X25955752Y-13604438D02*
G01X25877012Y-13604438D01*
G01X25919938Y-13661588D01*
G01X25898602Y-13661588D01*
G01X25884124Y-13668700D01*
G01X25877012Y-13675812D01*
G01X25869900Y-13697148D01*
G01X25869900Y-13711372D01*
G01X25877012Y-13732962D01*
G01X25891490Y-13747186D01*
G01X25912826Y-13754298D01*
G01X25934162Y-13754298D01*
G01X25955752Y-13747186D01*
G01X25962864Y-13740074D01*
G01X25969976Y-13725850D01*
G01X25810210Y-13632886D02*
G01X25795986Y-13625774D01*
G01X25774396Y-13604438D01*
G01X25774396Y-13754298D01*
G01X26194004Y-13359892D02*
G01X26194004Y-13509752D01*
G01X26194004Y-13359892D02*
G01X26143966Y-13359892D01*
G01X26122630Y-13367004D01*
G01X26108152Y-13381228D01*
G01X26101040Y-13395452D01*
G01X26093928Y-13417042D01*
G01X26093928Y-13452602D01*
G01X26101040Y-13474192D01*
G01X26108152Y-13488416D01*
G01X26122630Y-13502640D01*
G01X26143966Y-13509752D01*
G01X26194004Y-13509752D01*
G01X26020014Y-13359892D02*
G01X25941274Y-13359892D01*
G01X25984200Y-13417042D01*
G01X25962864Y-13417042D01*
G01X25948386Y-13424154D01*
G01X25941274Y-13431266D01*
G01X25934162Y-13452602D01*
G01X25934162Y-13466826D01*
G01X25941274Y-13488416D01*
G01X25955752Y-13502640D01*
G01X25977088Y-13509752D01*
G01X25998424Y-13509752D01*
G01X26020014Y-13502640D01*
G01X26027126Y-13495528D01*
G01X26034238Y-13481304D01*
G01X25867360Y-13395452D02*
G01X25867360Y-13388340D01*
G01X25860248Y-13374116D01*
G01X25853136Y-13367004D01*
G01X25838658Y-13359892D01*
G01X25810210Y-13359892D01*
G01X25795986Y-13367004D01*
G01X25788620Y-13374116D01*
G01X25781508Y-13388340D01*
G01X25781508Y-13402564D01*
G01X25788620Y-13417042D01*
G01X25803098Y-13438378D01*
G01X25874472Y-13509752D01*
G01X25774396Y-13509752D01*
G01X26186892Y-12845401D02*
G01X26186892Y-12995261D01*
G01X26186892Y-12845401D02*
G01X26136854Y-12845401D01*
G01X26115518Y-12852513D01*
G01X26101040Y-12866737D01*
G01X26093928Y-12880961D01*
G01X26086816Y-12902551D01*
G01X26086816Y-12938111D01*
G01X26093928Y-12959701D01*
G01X26101040Y-12973925D01*
G01X26115518Y-12988149D01*
G01X26136854Y-12995261D01*
G01X26186892Y-12995261D01*
G01X26012902Y-12845401D02*
G01X25934162Y-12845401D01*
G01X25977088Y-12902551D01*
G01X25955752Y-12902551D01*
G01X25941274Y-12909663D01*
G01X25934162Y-12916775D01*
G01X25927050Y-12938111D01*
G01X25927050Y-12952335D01*
G01X25934162Y-12973925D01*
G01X25948640Y-12988149D01*
G01X25969976Y-12995261D01*
G01X25991312Y-12995261D01*
G01X26012902Y-12988149D01*
G01X26020014Y-12981037D01*
G01X26027126Y-12966813D01*
G01X25781508Y-12866737D02*
G01X25788874Y-12852513D01*
G01X25810210Y-12845401D01*
G01X25824434Y-12845401D01*
G01X25846024Y-12852513D01*
G01X25860248Y-12873849D01*
G01X25867360Y-12909663D01*
G01X25867360Y-12945223D01*
G01X25860248Y-12973925D01*
G01X25846024Y-12988149D01*
G01X25824434Y-12995261D01*
G01X25817322Y-12995261D01*
G01X25795986Y-12988149D01*
G01X25781508Y-12973925D01*
G01X25774396Y-12952335D01*
G01X25774396Y-12945223D01*
G01X25781508Y-12923887D01*
G01X25795986Y-12909663D01*
G01X25817322Y-12902551D01*
G01X25824434Y-12902551D01*
G01X25846024Y-12909663D01*
G01X25860248Y-12923887D01*
G01X25867360Y-12945223D01*
G54D12*
G01X26641298Y-12352020D02*
G01X26641298Y-12472162D01*
G01X26641298Y-12352020D02*
G01X26601166Y-12352020D01*
G01X26584148Y-12357862D01*
G01X26572718Y-12369292D01*
G01X26566876Y-12380722D01*
G01X26561288Y-12397740D01*
G01X26561288Y-12426442D01*
G01X26566876Y-12443460D01*
G01X26572718Y-12454890D01*
G01X26584148Y-12466320D01*
G01X26601166Y-12472162D01*
G01X26641298Y-12472162D01*
G01X26502106Y-12352020D02*
G01X26439114Y-12352020D01*
G01X26473404Y-12397740D01*
G01X26456386Y-12397740D01*
G01X26444956Y-12403582D01*
G01X26439114Y-12409170D01*
G01X26433526Y-12426442D01*
G01X26433526Y-12437872D01*
G01X26439114Y-12454890D01*
G01X26450544Y-12466320D01*
G01X26467816Y-12472162D01*
G01X26484834Y-12472162D01*
G01X26502106Y-12466320D01*
G01X26507694Y-12460732D01*
G01X26513536Y-12449302D01*
G01X26357072Y-12352020D02*
G01X26374344Y-12357862D01*
G01X26379932Y-12369292D01*
G01X26379932Y-12380722D01*
G01X26374344Y-12392152D01*
G01X26362914Y-12397740D01*
G01X26340054Y-12403582D01*
G01X26322782Y-12409170D01*
G01X26311352Y-12420600D01*
G01X26305764Y-12432030D01*
G01X26305764Y-12449302D01*
G01X26311352Y-12460732D01*
G01X26317194Y-12466320D01*
G01X26334212Y-12472162D01*
G01X26357072Y-12472162D01*
G01X26374344Y-12466320D01*
G01X26379932Y-12460732D01*
G01X26385774Y-12449302D01*
G01X26385774Y-12432030D01*
G01X26379932Y-12420600D01*
G01X26368502Y-12409170D01*
G01X26351484Y-12403582D01*
G01X26328624Y-12397740D01*
G01X26317194Y-12392152D01*
G01X26311352Y-12380722D01*
G01X26311352Y-12369292D01*
G01X26317194Y-12357862D01*
G01X26334212Y-12352020D01*
G01X26357072Y-12352020D01*
G01X26155142Y-12329160D02*
G01X26258012Y-12512040D01*
G01X26067258Y-12352020D02*
G01X26067258Y-12472162D01*
G01X26107390Y-12352020D02*
G01X26027380Y-12352020D01*
G01X25979628Y-12352020D02*
G01X25899618Y-12472162D01*
G01X25899618Y-12352020D02*
G01X25979628Y-12472162D01*
G01X25846024Y-12380722D02*
G01X25846024Y-12374880D01*
G01X25840436Y-12363450D01*
G01X25834594Y-12357862D01*
G01X25823164Y-12352020D01*
G01X25800304Y-12352020D01*
G01X25788874Y-12357862D01*
G01X25783286Y-12363450D01*
G01X25777444Y-12374880D01*
G01X25777444Y-12386310D01*
G01X25783286Y-12397740D01*
G01X25794716Y-12415012D01*
G01X25851866Y-12472162D01*
G01X25771856Y-12472162D01*
G54D11*
G01X26194004Y-13102646D02*
G01X26194004Y-13252506D01*
G01X26194004Y-13102646D02*
G01X26143966Y-13102646D01*
G01X26122630Y-13109758D01*
G01X26108152Y-13123982D01*
G01X26101040Y-13138206D01*
G01X26093928Y-13159796D01*
G01X26093928Y-13195356D01*
G01X26101040Y-13216946D01*
G01X26108152Y-13231170D01*
G01X26122630Y-13245394D01*
G01X26143966Y-13252506D01*
G01X26194004Y-13252506D01*
G01X26020014Y-13102646D02*
G01X25941274Y-13102646D01*
G01X25984200Y-13159796D01*
G01X25962864Y-13159796D01*
G01X25948386Y-13166908D01*
G01X25941274Y-13174020D01*
G01X25934162Y-13195356D01*
G01X25934162Y-13209580D01*
G01X25941274Y-13231170D01*
G01X25955752Y-13245394D01*
G01X25977088Y-13252506D01*
G01X25998424Y-13252506D01*
G01X26020014Y-13245394D01*
G01X26027126Y-13238282D01*
G01X26034238Y-13224058D01*
G01X25860248Y-13102646D02*
G01X25781508Y-13102646D01*
G01X25824434Y-13159796D01*
G01X25803098Y-13159796D01*
G01X25788620Y-13166908D01*
G01X25781508Y-13174020D01*
G01X25774396Y-13195356D01*
G01X25774396Y-13209580D01*
G01X25781508Y-13231170D01*
G01X25795986Y-13245394D01*
G01X25817322Y-13252506D01*
G01X25838658Y-13252506D01*
G01X25860248Y-13245394D01*
G01X25867360Y-13238282D01*
G01X25874472Y-13224058D01*
G54D12*
G01X26635710Y-12123420D02*
G01X26635710Y-12243562D01*
G01X26635710Y-12123420D02*
G01X26595578Y-12123420D01*
G01X26578560Y-12129262D01*
G01X26567130Y-12140692D01*
G01X26561288Y-12152122D01*
G01X26555700Y-12169140D01*
G01X26555700Y-12197842D01*
G01X26561288Y-12214860D01*
G01X26567130Y-12226290D01*
G01X26578560Y-12237720D01*
G01X26595578Y-12243562D01*
G01X26635710Y-12243562D01*
G01X26496518Y-12123420D02*
G01X26433526Y-12123420D01*
G01X26467816Y-12169140D01*
G01X26450798Y-12169140D01*
G01X26439368Y-12174982D01*
G01X26433526Y-12180570D01*
G01X26427938Y-12197842D01*
G01X26427938Y-12209272D01*
G01X26433526Y-12226290D01*
G01X26444956Y-12237720D01*
G01X26462228Y-12243562D01*
G01X26479246Y-12243562D01*
G01X26496518Y-12237720D01*
G01X26502106Y-12232132D01*
G01X26507948Y-12220702D01*
G01X26305764Y-12163552D02*
G01X26311606Y-12180570D01*
G01X26323036Y-12192000D01*
G01X26340054Y-12197842D01*
G01X26345896Y-12197842D01*
G01X26362914Y-12192000D01*
G01X26374344Y-12180570D01*
G01X26380186Y-12163552D01*
G01X26380186Y-12157710D01*
G01X26374344Y-12140692D01*
G01X26362914Y-12129262D01*
G01X26345896Y-12123420D01*
G01X26340054Y-12123420D01*
G01X26323036Y-12129262D01*
G01X26311606Y-12140692D01*
G01X26305764Y-12163552D01*
G01X26305764Y-12192000D01*
G01X26311606Y-12220702D01*
G01X26323036Y-12237720D01*
G01X26340054Y-12243562D01*
G01X26351484Y-12243562D01*
G01X26368756Y-12237720D01*
G01X26374344Y-12226290D01*
G01X26155142Y-12100560D02*
G01X26258012Y-12283440D01*
G01X26107390Y-12123420D02*
G01X26107390Y-12243562D01*
G01X26107390Y-12123420D02*
G01X26055828Y-12123420D01*
G01X26038810Y-12129262D01*
G01X26032968Y-12134850D01*
G01X26027380Y-12146280D01*
G01X26027380Y-12157710D01*
G01X26032968Y-12169140D01*
G01X26038810Y-12174982D01*
G01X26055828Y-12180570D01*
G01X26107390Y-12180570D01*
G01X26067258Y-12180570D02*
G01X26027380Y-12243562D01*
G01X25979628Y-12123420D02*
G01X25899618Y-12243562D01*
G01X25899618Y-12123420D02*
G01X25979628Y-12243562D01*
G01X25846024Y-12152122D02*
G01X25846024Y-12146280D01*
G01X25840436Y-12134850D01*
G01X25834594Y-12129262D01*
G01X25823164Y-12123420D01*
G01X25800304Y-12123420D01*
G01X25788874Y-12129262D01*
G01X25783286Y-12134850D01*
G01X25777444Y-12146280D01*
G01X25777444Y-12157710D01*
G01X25783286Y-12169140D01*
G01X25794716Y-12186412D01*
G01X25851866Y-12243562D01*
G01X25771856Y-12243562D01*
G01X26647140Y-11856720D02*
G01X26647140Y-11976862D01*
G01X26647140Y-11856720D02*
G01X26607008Y-11856720D01*
G01X26589990Y-11862562D01*
G01X26578560Y-11873992D01*
G01X26572718Y-11885422D01*
G01X26567130Y-11902440D01*
G01X26567130Y-11931142D01*
G01X26572718Y-11948160D01*
G01X26578560Y-11959590D01*
G01X26589990Y-11971020D01*
G01X26607008Y-11976862D01*
G01X26647140Y-11976862D01*
G01X26462228Y-11856720D02*
G01X26519378Y-11936730D01*
G01X26433526Y-11936730D01*
G01X26462228Y-11856720D02*
G01X26462228Y-11976862D01*
G01X26351484Y-11856720D02*
G01X26368502Y-11862562D01*
G01X26379932Y-11879580D01*
G01X26385774Y-11908282D01*
G01X26385774Y-11925300D01*
G01X26379932Y-11954002D01*
G01X26368502Y-11971020D01*
G01X26351484Y-11976862D01*
G01X26340054Y-11976862D01*
G01X26322782Y-11971020D01*
G01X26311352Y-11954002D01*
G01X26305764Y-11925300D01*
G01X26305764Y-11908282D01*
G01X26311352Y-11879580D01*
G01X26322782Y-11862562D01*
G01X26340054Y-11856720D01*
G01X26351484Y-11856720D01*
G01X26155142Y-11833860D02*
G01X26258012Y-12016740D01*
G01X26107390Y-11856720D02*
G01X26107390Y-11976862D01*
G01X26107390Y-11856720D02*
G01X26055828Y-11856720D01*
G01X26038810Y-11862562D01*
G01X26032968Y-11868150D01*
G01X26027380Y-11879580D01*
G01X26027380Y-11891010D01*
G01X26032968Y-11902440D01*
G01X26038810Y-11908282D01*
G01X26055828Y-11913870D01*
G01X26107390Y-11913870D01*
G01X26067258Y-11913870D02*
G01X26027380Y-11976862D01*
G01X25899618Y-11873992D02*
G01X25911048Y-11862562D01*
G01X25928066Y-11856720D01*
G01X25950926Y-11856720D01*
G01X25968198Y-11862562D01*
G01X25979628Y-11873992D01*
G01X25979628Y-11885422D01*
G01X25973786Y-11896852D01*
G01X25968198Y-11902440D01*
G01X25956768Y-11908282D01*
G01X25922478Y-11919712D01*
G01X25911048Y-11925300D01*
G01X25905206Y-11931142D01*
G01X25899618Y-11942572D01*
G01X25899618Y-11959590D01*
G01X25911048Y-11971020D01*
G01X25928066Y-11976862D01*
G01X25950926Y-11976862D01*
G01X25968198Y-11971020D01*
G01X25979628Y-11959590D01*
G01X25811734Y-11856720D02*
G01X25811734Y-11976862D01*
G01X25851866Y-11856720D02*
G01X25771856Y-11856720D01*
G54D11*
G01X26093928Y-11608562D02*
G01X26101040Y-11594338D01*
G01X26115264Y-11580114D01*
G01X26129742Y-11573002D01*
G01X26158190Y-11573002D01*
G01X26172414Y-11580114D01*
G01X26186892Y-11594338D01*
G01X26194004Y-11608562D01*
G01X26201116Y-11630152D01*
G01X26201116Y-11665712D01*
G01X26194004Y-11687302D01*
G01X26186892Y-11701526D01*
G01X26172414Y-11715750D01*
G01X26158190Y-11722862D01*
G01X26129742Y-11722862D01*
G01X26115264Y-11715750D01*
G01X26101040Y-11701526D01*
G01X26093928Y-11687302D01*
G01X26093928Y-11665712D01*
G01X26129742Y-11665712D02*
G01X26093928Y-11665712D01*
G01X26034238Y-11573002D02*
G01X26034238Y-11722862D01*
G01X26034238Y-11573002D02*
G01X25934162Y-11722862D01*
G01X25934162Y-11573002D02*
G01X25934162Y-11722862D01*
G01X25874472Y-11573002D02*
G01X25874472Y-11722862D01*
G01X25874472Y-11573002D02*
G01X25824434Y-11573002D01*
G01X25803098Y-11580114D01*
G01X25788620Y-11594338D01*
G01X25781508Y-11608562D01*
G01X25774396Y-11630152D01*
G01X25774396Y-11665712D01*
G01X25781508Y-11687302D01*
G01X25788620Y-11701526D01*
G01X25803098Y-11715750D01*
G01X25824434Y-11722862D01*
G01X25874472Y-11722862D01*
G01X26353770Y-11331702D02*
G01X26296620Y-11481562D01*
G01X26239470Y-11331702D02*
G01X26296620Y-11481562D01*
G01X26179780Y-11331702D02*
G01X26179780Y-11481562D01*
G01X26179780Y-11331702D02*
G01X26115518Y-11331702D01*
G01X26093928Y-11338814D01*
G01X26086816Y-11345926D01*
G01X26079704Y-11360150D01*
G01X26079704Y-11374374D01*
G01X26086816Y-11388852D01*
G01X26093928Y-11395964D01*
G01X26115518Y-11403076D01*
G01X26179780Y-11403076D01*
G01X26129742Y-11403076D02*
G01X26079704Y-11481562D01*
G01X26020014Y-11331702D02*
G01X26020014Y-11481562D01*
G01X26020014Y-11331702D02*
G01X25927050Y-11331702D01*
G01X26020014Y-11403076D02*
G01X25962864Y-11403076D01*
G01X26020014Y-11481562D02*
G01X25927050Y-11481562D01*
G01X25867360Y-11331702D02*
G01X25867360Y-11481562D01*
G01X25867360Y-11331702D02*
G01X25774396Y-11331702D01*
G01X25867360Y-11403076D02*
G01X25810210Y-11403076D01*
G01X26093928Y-11100562D02*
G01X26101040Y-11086338D01*
G01X26115264Y-11072114D01*
G01X26129742Y-11065002D01*
G01X26158190Y-11065002D01*
G01X26172414Y-11072114D01*
G01X26186892Y-11086338D01*
G01X26194004Y-11100562D01*
G01X26201116Y-11122152D01*
G01X26201116Y-11157712D01*
G01X26194004Y-11179302D01*
G01X26186892Y-11193526D01*
G01X26172414Y-11207750D01*
G01X26158190Y-11214862D01*
G01X26129742Y-11214862D01*
G01X26115264Y-11207750D01*
G01X26101040Y-11193526D01*
G01X26093928Y-11179302D01*
G01X26093928Y-11157712D01*
G01X26129742Y-11157712D02*
G01X26093928Y-11157712D01*
G01X26034238Y-11065002D02*
G01X26034238Y-11214862D01*
G01X26034238Y-11065002D02*
G01X25934162Y-11214862D01*
G01X25934162Y-11065002D02*
G01X25934162Y-11214862D01*
G01X25874472Y-11065002D02*
G01X25874472Y-11214862D01*
G01X25874472Y-11065002D02*
G01X25824434Y-11065002D01*
G01X25803098Y-11072114D01*
G01X25788620Y-11086338D01*
G01X25781508Y-11100562D01*
G01X25774396Y-11122152D01*
G01X25774396Y-11157712D01*
G01X25781508Y-11179302D01*
G01X25788620Y-11193526D01*
G01X25803098Y-11207750D01*
G01X25824434Y-11214862D01*
G01X25874472Y-11214862D01*
G01X25962610Y-10811002D02*
G01X26034238Y-10811002D01*
G01X26041350Y-10875264D01*
G01X26034238Y-10868152D01*
G01X26012648Y-10860786D01*
G01X25991312Y-10860786D01*
G01X25969976Y-10868152D01*
G01X25955498Y-10882376D01*
G01X25948386Y-10903712D01*
G01X25948386Y-10917936D01*
G01X25955498Y-10939526D01*
G01X25969976Y-10953750D01*
G01X25991312Y-10960862D01*
G01X26012648Y-10960862D01*
G01X26034238Y-10953750D01*
G01X26041350Y-10946638D01*
G01X26048462Y-10932414D01*
G01X25888696Y-10811002D02*
G01X25831546Y-10960862D01*
G01X25774396Y-10811002D02*
G01X25831546Y-10960862D01*
G01X26093928Y-10592562D02*
G01X26101040Y-10578338D01*
G01X26115264Y-10564114D01*
G01X26129742Y-10557002D01*
G01X26158190Y-10557002D01*
G01X26172414Y-10564114D01*
G01X26186892Y-10578338D01*
G01X26194004Y-10592562D01*
G01X26201116Y-10614152D01*
G01X26201116Y-10649712D01*
G01X26194004Y-10671302D01*
G01X26186892Y-10685526D01*
G01X26172414Y-10699750D01*
G01X26158190Y-10706862D01*
G01X26129742Y-10706862D01*
G01X26115264Y-10699750D01*
G01X26101040Y-10685526D01*
G01X26093928Y-10671302D01*
G01X26093928Y-10649712D01*
G01X26129742Y-10649712D02*
G01X26093928Y-10649712D01*
G01X26034238Y-10557002D02*
G01X26034238Y-10706862D01*
G01X26034238Y-10557002D02*
G01X25934162Y-10706862D01*
G01X25934162Y-10557002D02*
G01X25934162Y-10706862D01*
G01X25874472Y-10557002D02*
G01X25874472Y-10706862D01*
G01X25874472Y-10557002D02*
G01X25824434Y-10557002D01*
G01X25803098Y-10564114D01*
G01X25788620Y-10578338D01*
G01X25781508Y-10592562D01*
G01X25774396Y-10614152D01*
G01X25774396Y-10649712D01*
G01X25781508Y-10671302D01*
G01X25788620Y-10685526D01*
G01X25803098Y-10699750D01*
G01X25824434Y-10706862D01*
G01X25874472Y-10706862D01*
G01X26194004Y-10315702D02*
G01X26115264Y-10315702D01*
G01X26158190Y-10372852D01*
G01X26136854Y-10372852D01*
G01X26122376Y-10379964D01*
G01X26115264Y-10387076D01*
G01X26108152Y-10408412D01*
G01X26108152Y-10422636D01*
G01X26115264Y-10444226D01*
G01X26129742Y-10458450D01*
G01X26151078Y-10465562D01*
G01X26172414Y-10465562D01*
G01X26194004Y-10458450D01*
G01X26201116Y-10451338D01*
G01X26208228Y-10437114D01*
G01X26048462Y-10315702D02*
G01X25991312Y-10465562D01*
G01X25934162Y-10315702D02*
G01X25991312Y-10465562D01*
G01X25860248Y-10315702D02*
G01X25781508Y-10315702D01*
G01X25824434Y-10372852D01*
G01X25803098Y-10372852D01*
G01X25788620Y-10379964D01*
G01X25781508Y-10387076D01*
G01X25774396Y-10408412D01*
G01X25774396Y-10422636D01*
G01X25781508Y-10444226D01*
G01X25795986Y-10458450D01*
G01X25817322Y-10465562D01*
G01X25838658Y-10465562D01*
G01X25860248Y-10458450D01*
G01X25867360Y-10451338D01*
G01X25874472Y-10437114D01*
G01X25944576Y-9706102D02*
G01X25865836Y-9706102D01*
G01X25908762Y-9763252D01*
G01X25887426Y-9763252D01*
G01X25872948Y-9770364D01*
G01X25865836Y-9777476D01*
G01X25858724Y-9798812D01*
G01X25858724Y-9813036D01*
G01X25865836Y-9834626D01*
G01X25880314Y-9848850D01*
G01X25901650Y-9855962D01*
G01X25922986Y-9855962D01*
G01X25944576Y-9848850D01*
G01X25951688Y-9841738D01*
G01X25958800Y-9827514D01*
G01X25799034Y-9706102D02*
G01X25741884Y-9855962D01*
G01X25684734Y-9706102D02*
G01X25741884Y-9855962D01*
G01X25610820Y-9706102D02*
G01X25532080Y-9706102D01*
G01X25575006Y-9763252D01*
G01X25553670Y-9763252D01*
G01X25539192Y-9770364D01*
G01X25532080Y-9777476D01*
G01X25524968Y-9798812D01*
G01X25524968Y-9813036D01*
G01X25532080Y-9834626D01*
G01X25546558Y-9848850D01*
G01X25567894Y-9855962D01*
G01X25589230Y-9855962D01*
G01X25610820Y-9848850D01*
G01X25617932Y-9841738D01*
G01X25625044Y-9827514D01*
G01X25720548Y-8398002D02*
G01X25792176Y-8398002D01*
G01X25799288Y-8462264D01*
G01X25792176Y-8455152D01*
G01X25770586Y-8447786D01*
G01X25749250Y-8447786D01*
G01X25727914Y-8455152D01*
G01X25713436Y-8469376D01*
G01X25706324Y-8490712D01*
G01X25706324Y-8504936D01*
G01X25713436Y-8526526D01*
G01X25727914Y-8540750D01*
G01X25749250Y-8547862D01*
G01X25770586Y-8547862D01*
G01X25792176Y-8540750D01*
G01X25799288Y-8533638D01*
G01X25806400Y-8519414D01*
G01X25646634Y-8398002D02*
G01X25589484Y-8547862D01*
G01X25532334Y-8398002D02*
G01X25589484Y-8547862D01*
G01X26720800Y-7928102D02*
G01X26720800Y-8077962D01*
G01X26720800Y-7928102D02*
G01X26656538Y-7928102D01*
G01X26634948Y-7935214D01*
G01X26627836Y-7942326D01*
G01X26620724Y-7956550D01*
G01X26620724Y-7970774D01*
G01X26627836Y-7985252D01*
G01X26634948Y-7992364D01*
G01X26656538Y-7999476D01*
G01X26720800Y-7999476D01*
G01X26670762Y-7999476D02*
G01X26620724Y-8077962D01*
G01X26561034Y-7928102D02*
G01X26561034Y-8077962D01*
G01X26561034Y-7928102D02*
G01X26468070Y-7928102D01*
G01X26561034Y-7999476D02*
G01X26503884Y-7999476D01*
G01X26561034Y-8077962D02*
G01X26468070Y-8077962D01*
G01X26308304Y-7949438D02*
G01X26322528Y-7935214D01*
G01X26344118Y-7928102D01*
G01X26372566Y-7928102D01*
G01X26394156Y-7935214D01*
G01X26408380Y-7949438D01*
G01X26408380Y-7963662D01*
G01X26401268Y-7977886D01*
G01X26394156Y-7985252D01*
G01X26379678Y-7992364D01*
G01X26337006Y-8006588D01*
G01X26322528Y-8013700D01*
G01X26315416Y-8020812D01*
G01X26308304Y-8035036D01*
G01X26308304Y-8056626D01*
G01X26322528Y-8070850D01*
G01X26344118Y-8077962D01*
G01X26372566Y-8077962D01*
G01X26394156Y-8070850D01*
G01X26408380Y-8056626D01*
G01X26248614Y-7928102D02*
G01X26248614Y-8077962D01*
G01X26248614Y-7928102D02*
G01X26155650Y-7928102D01*
G01X26248614Y-7999476D02*
G01X26191464Y-7999476D01*
G01X26248614Y-8077962D02*
G01X26155650Y-8077962D01*
G01X26045922Y-7928102D02*
G01X26045922Y-8077962D01*
G01X26095960Y-7928102D02*
G01X25995884Y-7928102D01*
G54D10*
G01X28043886Y-7916926D02*
G01X28049474Y-7919720D01*
G01X28055062Y-7925308D01*
G01X28057856Y-7930642D01*
G01X28060650Y-7939024D01*
G01X28060650Y-7952994D01*
G01X28057856Y-7961376D01*
G01X28055062Y-7966964D01*
G01X28049474Y-7972552D01*
G01X28043886Y-7975092D01*
G01X28032964Y-7975092D01*
G01X28027376Y-7972552D01*
G01X28021788Y-7966964D01*
G01X28018994Y-7961376D01*
G01X28016200Y-7952994D01*
G01X28016200Y-7939024D01*
G01X28018994Y-7930642D01*
G01X28021788Y-7925308D01*
G01X28027376Y-7919720D01*
G01X28032964Y-7916926D01*
G01X28043886Y-7916926D01*
G01X28035758Y-7964170D02*
G01X28018994Y-7980680D01*
G01X27990038Y-7936230D02*
G01X27979116Y-7975092D01*
G01X27967940Y-7936230D02*
G01X27979116Y-7975092D01*
G01X27967940Y-7936230D02*
G01X27956764Y-7975092D01*
G01X27945588Y-7936230D02*
G01X27956764Y-7975092D01*
G01X27919426Y-7916926D02*
G01X27916886Y-7919720D01*
G01X27914092Y-7916926D01*
G01X27916886Y-7914132D01*
G01X27919426Y-7916926D01*
G01X27916886Y-7936230D02*
G01X27916886Y-7975092D01*
G01X27887930Y-7916926D02*
G01X27885390Y-7919720D01*
G01X27882596Y-7916926D01*
G01X27885390Y-7914132D01*
G01X27887930Y-7916926D01*
G01X27885390Y-7936230D02*
G01X27885390Y-7975092D01*
G01X27823160Y-7944612D02*
G01X27828748Y-7939024D01*
G01X27834336Y-7936230D01*
G01X27842718Y-7936230D01*
G01X27848306Y-7939024D01*
G01X27853894Y-7944612D01*
G01X27856434Y-7952994D01*
G01X27856434Y-7958582D01*
G01X27853894Y-7966964D01*
G01X27848306Y-7972552D01*
G01X27842718Y-7975092D01*
G01X27834336Y-7975092D01*
G01X27828748Y-7972552D01*
G01X27823160Y-7966964D01*
G01X28021788Y-8026908D02*
G01X28027376Y-8021320D01*
G01X28035758Y-8018526D01*
G01X28046680Y-8018526D01*
G01X28055062Y-8021320D01*
G01X28060650Y-8026908D01*
G01X28060650Y-8032242D01*
G01X28057856Y-8037830D01*
G01X28055062Y-8040624D01*
G01X28049474Y-8043418D01*
G01X28032964Y-8049006D01*
G01X28027376Y-8051800D01*
G01X28024582Y-8054594D01*
G01X28021788Y-8060182D01*
G01X28021788Y-8068564D01*
G01X28027376Y-8074152D01*
G01X28035758Y-8076692D01*
G01X28046680Y-8076692D01*
G01X28055062Y-8074152D01*
G01X28060650Y-8068564D01*
G01X27976322Y-8018526D02*
G01X27976322Y-8076692D01*
G01X27995626Y-8018526D02*
G01X27956764Y-8018526D01*
G01X27930602Y-8018526D02*
G01X27930602Y-8076692D01*
G01X27930602Y-8018526D02*
G01X27894534Y-8018526D01*
G01X27930602Y-8046212D02*
G01X27908504Y-8046212D01*
G01X27930602Y-8076692D02*
G01X27894534Y-8076692D01*
G01X27868372Y-8018526D02*
G01X27868372Y-8076692D01*
G01X27868372Y-8018526D02*
G01X27846274Y-8076692D01*
G01X27823922Y-8018526D02*
G01X27846274Y-8076692D01*
G01X27823922Y-8018526D02*
G01X27823922Y-8076692D01*
G01X27797760Y-8018526D02*
G01X27797760Y-8076692D01*
G01X27797760Y-8018526D02*
G01X27775662Y-8076692D01*
G01X27753310Y-8018526D02*
G01X27775662Y-8076692D01*
G01X27753310Y-8018526D02*
G01X27753310Y-8076692D01*
G01X27705050Y-8018526D02*
G01X27727148Y-8076692D01*
G01X27705050Y-8018526D02*
G01X27682698Y-8076692D01*
G01X27719020Y-8057388D02*
G01X27691080Y-8057388D01*
G01X27577796Y-8018526D02*
G01X27583384Y-8021320D01*
G01X27588972Y-8026908D01*
G01X27591766Y-8032242D01*
G01X27594306Y-8040624D01*
G01X27594306Y-8054594D01*
G01X27591766Y-8062976D01*
G01X27588972Y-8068564D01*
G01X27583384Y-8074152D01*
G01X27577796Y-8076692D01*
G01X27566620Y-8076692D01*
G01X27561032Y-8074152D01*
G01X27555444Y-8068564D01*
G01X27552650Y-8062976D01*
G01X27549856Y-8054594D01*
G01X27549856Y-8040624D01*
G01X27552650Y-8032242D01*
G01X27555444Y-8026908D01*
G01X27561032Y-8021320D01*
G01X27566620Y-8018526D01*
G01X27577796Y-8018526D01*
G01X27569414Y-8065770D02*
G01X27552650Y-8082280D01*
G01X27504390Y-8018526D02*
G01X27504390Y-8076692D01*
G01X27523694Y-8018526D02*
G01X27484832Y-8018526D01*
G54D11*
G01X29514800Y-7928102D02*
G01X29514800Y-8035036D01*
G01X29507688Y-8056626D01*
G01X29493464Y-8070850D01*
G01X29471874Y-8077962D01*
G01X29457650Y-8077962D01*
G01X29436314Y-8070850D01*
G01X29421836Y-8056626D01*
G01X29414724Y-8035036D01*
G01X29414724Y-7928102D01*
G01X29355034Y-7928102D02*
G01X29355034Y-8077962D01*
G01X29355034Y-7928102D02*
G01X29290772Y-7928102D01*
G01X29269182Y-7935214D01*
G01X29262070Y-7942326D01*
G01X29254958Y-7956550D01*
G01X29254958Y-7977886D01*
G01X29262070Y-7992364D01*
G01X29269182Y-7999476D01*
G01X29290772Y-8006588D01*
G01X29355034Y-8006588D01*
G01X29195268Y-7928102D02*
G01X29195268Y-8077962D01*
G01X29195268Y-8077962D02*
G01X29109416Y-8077962D01*
G01X29049726Y-7928102D02*
G01X29049726Y-8077962D01*
G01X31419800Y-8372602D02*
G01X31419800Y-8522462D01*
G01X31419800Y-8372602D02*
G01X31319724Y-8522462D01*
G01X31319724Y-8372602D02*
G01X31319724Y-8522462D01*
G01X31217108Y-8372602D02*
G01X31231332Y-8379714D01*
G01X31245810Y-8393938D01*
G01X31252922Y-8408162D01*
G01X31260034Y-8429752D01*
G01X31260034Y-8465312D01*
G01X31252922Y-8486902D01*
G01X31245810Y-8501126D01*
G01X31231332Y-8515350D01*
G01X31217108Y-8522462D01*
G01X31188660Y-8522462D01*
G01X31174182Y-8515350D01*
G01X31159958Y-8501126D01*
G01X31152846Y-8486902D01*
G01X31145734Y-8465312D01*
G01X31145734Y-8429752D01*
G01X31152846Y-8408162D01*
G01X31159958Y-8393938D01*
G01X31174182Y-8379714D01*
G01X31188660Y-8372602D01*
G01X31217108Y-8372602D01*
G01X31419800Y-9769602D02*
G01X31362650Y-9840976D01*
G01X31362650Y-9919462D01*
G01X31305500Y-9769602D02*
G01X31362650Y-9840976D01*
G01X31245810Y-9769602D02*
G01X31245810Y-9919462D01*
G01X31245810Y-9769602D02*
G01X31152846Y-9769602D01*
G01X31245810Y-9840976D02*
G01X31188660Y-9840976D01*
G01X31245810Y-9919462D02*
G01X31152846Y-9919462D01*
G01X30993080Y-9790938D02*
G01X31007304Y-9776714D01*
G01X31028894Y-9769602D01*
G01X31057342Y-9769602D01*
G01X31078932Y-9776714D01*
G01X31093156Y-9790938D01*
G01X31093156Y-9805162D01*
G01X31086044Y-9819386D01*
G01X31078932Y-9826752D01*
G01X31064454Y-9833864D01*
G01X31021782Y-9848088D01*
G01X31007304Y-9855200D01*
G01X31000192Y-9862312D01*
G01X30993080Y-9876536D01*
G01X30993080Y-9898126D01*
G01X31007304Y-9912350D01*
G01X31028894Y-9919462D01*
G01X31057342Y-9919462D01*
G01X31078932Y-9912350D01*
G01X31093156Y-9898126D01*
G54D13*
G01X30967934Y-9453880D02*
G01X30902910Y-9453880D01*
G01X30952440Y-9420606D02*
G01X30955488Y-9420606D01*
G01X30961838Y-9417558D01*
G01X30964886Y-9414510D01*
G01X30967934Y-9408414D01*
G01X30967934Y-9395968D01*
G01X30964886Y-9389618D01*
G01X30961838Y-9386570D01*
G01X30955488Y-9383522D01*
G01X30949392Y-9383522D01*
G01X30943296Y-9386570D01*
G01X30933898Y-9392920D01*
G01X30902910Y-9423654D01*
G01X30902910Y-9380474D01*
G01X30952440Y-9304020D02*
G01X30958790Y-9307068D01*
G01X30964886Y-9313164D01*
G01X30967934Y-9319514D01*
G01X30967934Y-9331706D01*
G01X30964886Y-9338056D01*
G01X30958790Y-9344152D01*
G01X30952440Y-9347200D01*
G01X30943296Y-9350248D01*
G01X30927802Y-9350248D01*
G01X30918404Y-9347200D01*
G01X30912308Y-9344152D01*
G01X30905958Y-9338056D01*
G01X30902910Y-9331706D01*
G01X30902910Y-9319514D01*
G01X30905958Y-9313164D01*
G01X30912308Y-9307068D01*
G01X30918404Y-9304020D01*
G01X30967934Y-9204452D02*
G01X30902910Y-9204452D01*
G01X30967934Y-9204452D02*
G01X30967934Y-9176766D01*
G01X30964886Y-9167368D01*
G01X30961838Y-9164320D01*
G01X30955488Y-9161272D01*
G01X30946344Y-9161272D01*
G01X30940248Y-9164320D01*
G01X30936946Y-9167368D01*
G01X30933898Y-9176766D01*
G01X30933898Y-9204452D01*
G01X30946344Y-9131046D02*
G01X30915356Y-9131046D01*
G01X30905958Y-9127998D01*
G01X30902910Y-9121902D01*
G01X30902910Y-9112504D01*
G01X30905958Y-9106408D01*
G01X30915356Y-9097010D01*
G01X30946344Y-9097010D02*
G01X30902910Y-9097010D01*
G01X30967934Y-9066784D02*
G01X30902910Y-9066784D01*
G01X30967934Y-9036558D02*
G01X30902910Y-9036558D01*
G01X30930850Y-9006332D02*
G01X30930850Y-8950706D01*
G01X30946344Y-8920480D02*
G01X30915356Y-8920480D01*
G01X30905958Y-8917432D01*
G01X30902910Y-8911336D01*
G01X30902910Y-8901938D01*
G01X30905958Y-8895842D01*
G01X30915356Y-8886444D01*
G01X30946344Y-8886444D02*
G01X30902910Y-8886444D01*
G01X30946344Y-8856218D02*
G01X30881320Y-8856218D01*
G01X30936946Y-8856218D02*
G01X30943296Y-8850122D01*
G01X30946344Y-8844026D01*
G01X30946344Y-8834628D01*
G01X30943296Y-8828532D01*
G01X30936946Y-8822182D01*
G01X30927802Y-8819134D01*
G01X30921452Y-8819134D01*
G01X30912308Y-8822182D01*
G01X30905958Y-8828532D01*
G01X30902910Y-8834628D01*
G01X30902910Y-8844026D01*
G01X30905958Y-8850122D01*
G01X30912308Y-8856218D01*
G36*
G01X28122803Y-9616979D02*
G01X28109333Y-9605433D01*
G01X28095864Y-9588115D01*
G01X28088167Y-9574646D01*
G01X28086243Y-9563100D01*
G01X28088167Y-9549630D01*
G01X28092015Y-9538085D01*
G01X28097788Y-9526539D01*
G01X28105485Y-9514994D01*
G01X28124727Y-9495751D01*
G01X28134349Y-9488054D01*
G01X28147818Y-9480357D01*
G01X28165136Y-9468812D01*
G01X28180530Y-9459191D01*
G01X28211318Y-9443797D01*
G01X28238257Y-9428403D01*
G01X28251727Y-9422630D01*
G01X28263273Y-9416857D01*
G01X28276743Y-9409161D01*
G01X28338318Y-9378373D01*
G01X28355636Y-9368751D01*
G01X28390273Y-9351433D01*
G01X28403743Y-9343736D01*
G01X28465318Y-9312949D01*
G01X28482636Y-9303327D01*
G01X28513424Y-9287933D01*
G01X28530743Y-9278312D01*
G01X28561530Y-9262918D01*
G01X28575000Y-9255221D01*
G01X28586546Y-9245600D01*
G01X28598091Y-9234054D01*
G01X28605788Y-9222509D01*
G01X28611561Y-9207115D01*
G01X28617333Y-9193646D01*
G01X28623106Y-9182100D01*
G01X28632727Y-9164782D01*
G01X28648121Y-9151312D01*
G01X28667364Y-9147464D01*
G01X28678428Y-9149388D01*
G01X28688530Y-9155161D01*
G01X28700076Y-9168630D01*
G01X28705849Y-9180176D01*
G01X28711621Y-9199418D01*
G01X28715470Y-9222509D01*
G01X28719318Y-9241751D01*
G01X28721243Y-9291782D01*
G01X28719318Y-9337964D01*
G01X28715470Y-9357206D01*
G01X28711621Y-9386070D01*
G01X28705849Y-9407236D01*
G01X28698151Y-9420706D01*
G01X28686606Y-9432251D01*
G01X28673136Y-9438024D01*
G01X28657743Y-9439949D01*
G01X28640424Y-9434176D01*
G01X28626954Y-9424554D01*
G01X28617333Y-9414933D01*
G01X28605788Y-9407236D01*
G01X28592318Y-9403388D01*
G01X28580773Y-9403388D01*
G01X28563454Y-9407236D01*
G01X28544212Y-9413009D01*
G01X28526894Y-9422630D01*
G01X28507651Y-9432251D01*
G01X28494182Y-9439949D01*
G01X28482636Y-9447646D01*
G01X28471091Y-9457267D01*
G01X28465318Y-9468812D01*
G01X28463394Y-9484206D01*
G01X28471091Y-9503449D01*
G01X28488409Y-9518843D01*
G01X28507651Y-9530388D01*
G01X28542288Y-9547706D01*
G01X28561530Y-9555403D01*
G01X28586546Y-9557327D01*
G01X28601939Y-9549630D01*
G01X28621182Y-9530388D01*
G01X28630803Y-9522691D01*
G01X28642349Y-9516918D01*
G01X28661591Y-9513070D01*
G01X28678909Y-9516918D01*
G01X28688530Y-9528464D01*
G01X28698151Y-9545782D01*
G01X28705849Y-9565024D01*
G01X28711621Y-9591964D01*
G01X28715470Y-9618903D01*
G01X28719318Y-9638146D01*
G01X28721243Y-9736282D01*
G01X28717394Y-9832494D01*
G01X28713546Y-9851736D01*
G01X28711621Y-9869054D01*
G01X28707773Y-9888297D01*
G01X28702000Y-9907539D01*
G01X28694303Y-9922933D01*
G01X28682757Y-9942176D01*
G01X28663515Y-9955646D01*
G01X28642349Y-9959494D01*
G01X28626954Y-9955646D01*
G01X28617333Y-9947949D01*
G01X28607712Y-9934479D01*
G01X28598091Y-9917161D01*
G01X28592318Y-9899843D01*
G01X28586546Y-9886373D01*
G01X28578849Y-9876751D01*
G01X28565379Y-9865206D01*
G01X28548061Y-9853661D01*
G01X28530743Y-9844039D01*
G01X28499954Y-9828646D01*
G01X28465318Y-9809403D01*
G01X28426833Y-9790161D01*
G01X28392197Y-9770918D01*
G01X28361409Y-9755524D01*
G01X28347939Y-9747827D01*
G01X28338318Y-9742054D01*
G01X28272894Y-9709343D01*
G01X28245954Y-9693949D01*
G01X28215167Y-9678554D01*
G01X28201697Y-9670857D01*
G01X28188227Y-9661236D01*
G01X28170909Y-9651615D01*
G01X28153591Y-9640070D01*
G01X28136273Y-9626600D01*
G01X28122803Y-9616979D01*
G37*
G36*
G01X28097788Y-8897312D02*
G01X28095864Y-8883843D01*
G01X28093939Y-8864600D01*
G01X28092015Y-8849206D01*
G01X28090091Y-8766464D01*
G01X28092015Y-8679873D01*
G01X28095864Y-8629843D01*
G01X28099712Y-8591357D01*
G01X28103561Y-8560570D01*
G01X28107409Y-8539403D01*
G01X28113182Y-8516312D01*
G01X28118954Y-8498994D01*
G01X28124727Y-8483600D01*
G01X28132424Y-8472054D01*
G01X28145894Y-8460509D01*
G01X28165136Y-8452812D01*
G01X28184379Y-8452812D01*
G01X28197849Y-8458585D01*
G01X28207470Y-8470130D01*
G01X28217091Y-8489373D01*
G01X28220939Y-8516312D01*
G01X28222864Y-8537479D01*
G01X28226712Y-8556721D01*
G01X28234409Y-8579812D01*
G01X28245954Y-8593282D01*
G01X28257500Y-8600979D01*
G01X28280591Y-8606751D01*
G01X28303682Y-8610600D01*
G01X28396046Y-8614449D01*
G01X28457621Y-8618297D01*
G01X28499954Y-8620221D01*
G01X28542288Y-8618297D01*
G01X28607712Y-8614449D01*
G01X28676985Y-8610600D01*
G01X28690454Y-8604827D01*
G01X28703924Y-8591357D01*
G01X28713546Y-8575964D01*
G01X28728939Y-8549024D01*
G01X28736636Y-8537479D01*
G01X28753954Y-8529782D01*
G01X28775121Y-8527857D01*
G01X28792439Y-8535554D01*
G01X28803985Y-8549024D01*
G01X28809757Y-8560570D01*
G01X28813606Y-8574039D01*
G01X28815530Y-8587509D01*
G01X28817454Y-8652933D01*
G01X28815530Y-8718357D01*
G01X28811682Y-8760691D01*
G01X28807833Y-8791479D01*
G01X28798212Y-8829964D01*
G01X28792439Y-8858827D01*
G01X28788591Y-8879994D01*
G01X28782818Y-8899236D01*
G01X28775121Y-8920403D01*
G01X28763576Y-8955039D01*
G01X28757803Y-8970433D01*
G01X28752030Y-8983903D01*
G01X28744333Y-9001221D01*
G01X28734712Y-9022388D01*
G01X28725091Y-9037782D01*
G01X28713546Y-9053176D01*
G01X28698151Y-9066646D01*
G01X28684682Y-9074343D01*
G01X28667364Y-9078191D01*
G01X28651970Y-9074343D01*
G01X28642349Y-9066646D01*
G01X28634651Y-9057024D01*
G01X28630803Y-9045479D01*
G01X28628879Y-9016615D01*
G01X28630803Y-8987751D01*
G01X28630803Y-8968509D01*
G01X28625030Y-8945418D01*
G01X28613485Y-8931949D01*
G01X28596167Y-8926176D01*
G01X28576924Y-8922327D01*
G01X28492257Y-8920403D01*
G01X28411439Y-8922327D01*
G01X28292136Y-8926176D01*
G01X28274818Y-8930024D01*
G01X28257500Y-8935797D01*
G01X28244030Y-8943494D01*
G01X28230561Y-8956964D01*
G01X28222864Y-8980054D01*
G01X28222864Y-9003146D01*
G01X28226712Y-9026236D01*
G01X28228636Y-9053176D01*
G01X28224788Y-9072418D01*
G01X28217091Y-9083964D01*
G01X28207470Y-9093585D01*
G01X28195924Y-9101282D01*
G01X28178606Y-9105130D01*
G01X28159364Y-9099357D01*
G01X28143970Y-9083964D01*
G01X28132424Y-9064721D01*
G01X28124727Y-9043554D01*
G01X28118954Y-9020464D01*
G01X28113182Y-9001221D01*
G01X28109333Y-8985827D01*
G01X28107409Y-8972357D01*
G01X28103561Y-8953115D01*
G01X28099712Y-8922327D01*
G01X28097788Y-8897312D01*
G37*
G36*
G01X28105485Y-11735570D02*
G01X28099712Y-11716327D01*
G01X28095864Y-11697085D01*
G01X28092015Y-11687464D01*
G01X28090091Y-11648979D01*
G01X28093939Y-11606646D01*
G01X28099712Y-11587403D01*
G01X28107409Y-11566236D01*
G01X28115106Y-11548918D01*
G01X28117672Y-11545070D01*
G01X28242106Y-11545070D01*
G01X28242106Y-11558539D01*
G01X28244030Y-11568161D01*
G01X28247879Y-11581630D01*
G01X28255576Y-11593176D01*
G01X28265197Y-11602797D01*
G01X28276743Y-11610494D01*
G01X28292136Y-11618191D01*
G01X28309454Y-11625888D01*
G01X28324849Y-11629736D01*
G01X28338318Y-11631661D01*
G01X28380651Y-11635509D01*
G01X28405667Y-11637433D01*
G01X28430682Y-11635509D01*
G01X28476864Y-11631661D01*
G01X28496106Y-11627812D01*
G01X28515349Y-11622039D01*
G01X28542288Y-11610494D01*
G01X28557682Y-11602797D01*
G01X28571151Y-11593176D01*
G01X28578849Y-11581630D01*
G01X28586546Y-11564312D01*
G01X28590394Y-11541221D01*
G01X28588470Y-11523903D01*
G01X28582697Y-11510433D01*
G01X28571151Y-11498888D01*
G01X28555757Y-11491191D01*
G01X28536515Y-11483494D01*
G01X28517273Y-11479646D01*
G01X28503803Y-11477721D01*
G01X28424909Y-11475797D01*
G01X28346015Y-11477721D01*
G01X28319076Y-11481570D01*
G01X28301757Y-11487343D01*
G01X28280591Y-11495039D01*
G01X28261349Y-11506585D01*
G01X28261349Y-11506585D01*
G01X28247879Y-11523903D01*
G01X28242106Y-11545070D01*
G01X28117672Y-11545070D01*
G01X28122803Y-11537373D01*
G01X28130500Y-11527751D01*
G01X28138197Y-11514282D01*
G01X28147818Y-11500812D01*
G01X28155515Y-11487343D01*
G01X28157439Y-11471949D01*
G01X28153110Y-11465695D01*
G01X28143970Y-11462327D01*
G01X28124727Y-11456554D01*
G01X28109333Y-11450782D01*
G01X28102599Y-11446933D01*
G01X28097788Y-11439236D01*
G01X28093939Y-11396903D01*
G01X28095864Y-11358418D01*
G01X28103561Y-11296843D01*
G01X28115106Y-11244888D01*
G01X28120879Y-11225646D01*
G01X28126651Y-11210251D01*
G01X28134349Y-11192933D01*
G01X28143970Y-11175615D01*
G01X28153591Y-11164070D01*
G01X28163212Y-11154449D01*
G01X28176682Y-11146751D01*
G01X28192076Y-11142903D01*
G01X28203621Y-11142903D01*
G01X28217091Y-11148676D01*
G01X28228636Y-11158297D01*
G01X28238257Y-11167918D01*
G01X28253651Y-11187161D01*
G01X28263273Y-11194857D01*
G01X28276743Y-11200630D01*
G01X28303682Y-11204479D01*
G01X28621182Y-11206403D01*
G01X28848243Y-11207846D01*
G01X28929061Y-11212176D01*
G01X28940606Y-11221797D01*
G01X28948303Y-11235267D01*
G01X28954076Y-11254509D01*
G01X28956000Y-11271827D01*
G01X28954076Y-11285297D01*
G01X28950227Y-11304539D01*
G01X28942530Y-11350721D01*
G01X28936757Y-11371888D01*
G01X28919439Y-11441161D01*
G01X28915591Y-11462327D01*
G01X28909818Y-11477721D01*
G01X28902121Y-11498888D01*
G01X28894424Y-11516206D01*
G01X28888651Y-11527751D01*
G01X28880954Y-11537373D01*
G01X28871333Y-11546994D01*
G01X28859788Y-11556615D01*
G01X28844394Y-11562388D01*
G01X28830924Y-11562388D01*
G01X28815530Y-11554691D01*
G01X28803985Y-11541221D01*
G01X28798212Y-11527751D01*
G01X28792439Y-11512357D01*
G01X28782818Y-11493115D01*
G01X28767424Y-11481570D01*
G01X28753954Y-11477721D01*
G01X28727015Y-11475797D01*
G01X28700076Y-11479646D01*
G01X28690454Y-11491191D01*
G01X28690454Y-11506585D01*
G01X28698151Y-11523903D01*
G01X28705849Y-11539297D01*
G01X28717394Y-11573933D01*
G01X28721243Y-11597024D01*
G01X28723167Y-11620115D01*
G01X28725091Y-11641282D01*
G01X28723167Y-11662449D01*
G01X28721243Y-11681691D01*
G01X28717394Y-11700933D01*
G01X28705849Y-11735570D01*
G01X28688530Y-11770206D01*
G01X28676985Y-11789449D01*
G01X28667364Y-11804843D01*
G01X28651970Y-11824085D01*
G01X28632727Y-11843327D01*
G01X28609636Y-11862570D01*
G01X28600015Y-11870267D01*
G01X28586546Y-11877964D01*
G01X28569227Y-11889509D01*
G01X28542288Y-11902979D01*
G01X28524970Y-11910676D01*
G01X28490333Y-11922221D01*
G01X28469167Y-11927994D01*
G01X28449924Y-11931843D01*
G01X28399894Y-11933767D01*
G01X28353712Y-11931843D01*
G01X28322924Y-11924146D01*
G01X28305606Y-11918373D01*
G01X28288288Y-11910676D01*
G01X28261349Y-11899130D01*
G01X28234409Y-11883736D01*
G01X28219015Y-11874115D01*
G01X28199773Y-11860646D01*
G01X28186303Y-11847176D01*
G01X28174757Y-11837554D01*
G01X28165136Y-11827933D01*
G01X28157439Y-11818312D01*
G01X28134349Y-11791373D01*
G01X28126651Y-11779827D01*
G01X28120879Y-11766357D01*
G01X28105485Y-11735570D01*
G37*
G36*
G01X28118954Y-10615661D02*
G01X28105485Y-10607964D01*
G01X28097788Y-10594494D01*
G01X28092015Y-10582949D01*
G01X28090091Y-10569479D01*
G01X28092015Y-10554085D01*
G01X28095864Y-10511751D01*
G01X28099712Y-10477115D01*
G01X28103561Y-10446327D01*
G01X28105485Y-10432857D01*
G01X28115106Y-10394373D01*
G01X28120879Y-10373206D01*
G01X28132424Y-10342418D01*
G01X28140121Y-10327024D01*
G01X28149743Y-10313554D01*
G01X28157439Y-10303933D01*
G01X28167061Y-10294312D01*
G01X28178606Y-10286615D01*
G01X28199773Y-10282767D01*
G01X28220939Y-10286615D01*
G01X28230561Y-10294312D01*
G01X28238257Y-10305857D01*
G01X28245954Y-10321251D01*
G01X28255576Y-10334721D01*
G01X28272894Y-10342418D01*
G01X28480712Y-10344343D01*
G01X28680833Y-10348191D01*
G01X28692379Y-10353964D01*
G01X28705849Y-10365509D01*
G01X28715470Y-10382827D01*
G01X28719318Y-10396297D01*
G01X28721243Y-10434782D01*
G01X28719318Y-10473267D01*
G01X28715470Y-10507903D01*
G01X28711621Y-10527146D01*
G01X28709697Y-10548312D01*
G01X28703924Y-10588721D01*
G01X28698151Y-10607964D01*
G01X28692379Y-10632979D01*
G01X28686606Y-10650297D01*
G01X28680833Y-10663767D01*
G01X28675061Y-10675312D01*
G01X28667364Y-10683009D01*
G01X28655818Y-10690706D01*
G01X28634651Y-10694554D01*
G01X28622144Y-10692630D01*
G01X28611561Y-10686857D01*
G01X28598091Y-10671464D01*
G01X28582697Y-10648373D01*
G01X28569227Y-10634903D01*
G01X28546136Y-10629130D01*
G01X28526894Y-10627206D01*
G01X28421061Y-10625282D01*
G01X28315227Y-10627206D01*
G01X28301757Y-10629130D01*
G01X28286364Y-10632979D01*
G01X28272894Y-10640676D01*
G01X28263273Y-10650297D01*
G01X28255576Y-10661843D01*
G01X28249803Y-10681085D01*
G01X28247879Y-10704176D01*
G01X28251727Y-10721494D01*
G01X28259424Y-10734964D01*
G01X28272894Y-10746509D01*
G01X28294061Y-10756130D01*
G01X28315227Y-10761903D01*
G01X28505727Y-10763827D01*
G01X28692379Y-10765751D01*
G01X28703924Y-10769600D01*
G01X28713546Y-10781146D01*
G01X28719318Y-10800388D01*
G01X28721243Y-10836949D01*
G01X28719318Y-10869661D01*
G01X28717394Y-10898524D01*
G01X28713546Y-10929312D01*
G01X28709697Y-10950479D01*
G01X28707773Y-10969721D01*
G01X28703924Y-10996661D01*
G01X28692379Y-11054388D01*
G01X28686606Y-11071706D01*
G01X28680833Y-11083251D01*
G01X28673136Y-11094797D01*
G01X28663515Y-11104418D01*
G01X28646197Y-11114039D01*
G01X28623106Y-11115964D01*
G01X28609636Y-11108267D01*
G01X28601939Y-11098646D01*
G01X28594243Y-11087100D01*
G01X28586546Y-11073630D01*
G01X28578849Y-11062085D01*
G01X28567303Y-11054388D01*
G01X28555757Y-11048615D01*
G01X28538439Y-11042843D01*
G01X28519197Y-11038994D01*
G01X28295985Y-11035146D01*
G01X28261349Y-11031297D01*
G01X28245954Y-11027449D01*
G01X28224788Y-11023600D01*
G01X28207470Y-11017827D01*
G01X28190151Y-11010130D01*
G01X28174757Y-11002433D01*
G01X28165136Y-10994736D01*
G01X28149743Y-10983191D01*
G01X28134349Y-10965873D01*
G01X28122803Y-10948554D01*
G01X28115106Y-10933161D01*
G01X28109333Y-10919691D01*
G01X28103561Y-10900449D01*
G01X28099712Y-10881206D01*
G01X28095864Y-10854267D01*
G01X28093939Y-10827327D01*
G01X28095864Y-10800388D01*
G01X28099712Y-10773449D01*
G01X28103561Y-10758054D01*
G01X28120879Y-10717646D01*
G01X28128576Y-10704176D01*
G01X28138197Y-10690706D01*
G01X28158401Y-10660399D01*
G01X28161288Y-10646449D01*
G01X28160807Y-10632498D01*
G01X28155515Y-10625282D01*
G01X28138197Y-10619509D01*
G01X28118954Y-10615661D01*
G37*
G36*
G01X28105485Y-13122949D02*
G01X28101636Y-13107554D01*
G01X28099712Y-13094085D01*
G01X28093939Y-13076767D01*
G01X28090657Y-13020964D01*
G01X28201697Y-13020964D01*
G01X28203621Y-13032509D01*
G01X28207470Y-13040206D01*
G01X28219015Y-13053676D01*
G01X28242106Y-13065221D01*
G01X28267121Y-13069070D01*
G01X28284439Y-13070994D01*
G01X28407591Y-13074843D01*
G01X28438379Y-13076767D01*
G01X28469167Y-13074843D01*
G01X28488409Y-13072918D01*
G01X28507651Y-13069070D01*
G01X28519197Y-13061373D01*
G01X28528818Y-13049827D01*
G01X28534591Y-13032509D01*
G01X28536515Y-13013267D01*
G01X28532667Y-12995949D01*
G01X28524970Y-12980554D01*
G01X28515349Y-12969009D01*
G01X28503803Y-12961312D01*
G01X28488409Y-12951691D01*
G01X28467243Y-12942070D01*
G01X28444151Y-12934373D01*
G01X28424909Y-12930524D01*
G01X28411439Y-12928600D01*
G01X28347939Y-12926676D01*
G01X28284439Y-12928600D01*
G01X28267121Y-12934373D01*
G01X28247879Y-12942070D01*
G01X28234409Y-12949767D01*
G01X28222864Y-12959388D01*
G01X28211318Y-12974782D01*
G01X28211318Y-12974782D01*
G01X28203621Y-12997873D01*
G01X28201697Y-13020964D01*
G01X28090657Y-13020964D01*
G01X28090091Y-13011343D01*
G01X28092015Y-12951691D01*
G01X28097788Y-12932449D01*
G01X28103561Y-12907433D01*
G01X28109333Y-12888191D01*
G01X28117030Y-12868949D01*
G01X28124727Y-12851630D01*
G01X28130500Y-12840085D01*
G01X28138197Y-12826615D01*
G01X28147818Y-12811221D01*
G01X28155515Y-12799676D01*
G01X28163212Y-12790054D01*
G01X28172833Y-12780433D01*
G01X28192076Y-12757343D01*
G01X28201697Y-12749646D01*
G01X28215167Y-12738100D01*
G01X28228636Y-12724630D01*
G01X28238257Y-12716933D01*
G01X28247879Y-12711161D01*
G01X28259424Y-12703464D01*
G01X28286364Y-12688070D01*
G01X28301757Y-12680373D01*
G01X28332546Y-12668827D01*
G01X28353712Y-12663054D01*
G01X28372954Y-12659206D01*
G01X28388349Y-12655357D01*
G01X28407591Y-12653433D01*
G01X28422985Y-12651509D01*
G01X28459546Y-12649585D01*
G01X28496106Y-12651509D01*
G01X28513424Y-12653433D01*
G01X28532667Y-12657282D01*
G01X28551909Y-12663054D01*
G01X28569227Y-12668827D01*
G01X28603864Y-12686146D01*
G01X28619257Y-12695767D01*
G01X28634651Y-12707312D01*
G01X28648121Y-12718857D01*
G01X28659667Y-12732327D01*
G01X28673136Y-12745797D01*
G01X28682757Y-12757343D01*
G01X28692379Y-12772736D01*
G01X28705849Y-12799676D01*
G01X28711621Y-12815070D01*
G01X28717394Y-12834312D01*
G01X28723167Y-12859327D01*
G01X28725091Y-12897812D01*
G01X28723167Y-12924751D01*
G01X28715470Y-12955539D01*
G01X28709697Y-12972857D01*
G01X28702000Y-12990176D01*
G01X28694303Y-13003646D01*
G01X28655818Y-13061373D01*
G01X28653894Y-13072918D01*
G01X28692379Y-13076767D01*
G01X28734712Y-13074843D01*
G01X28880954Y-13070994D01*
G01X28905970Y-13069070D01*
G01X28932909Y-13072918D01*
G01X28944454Y-13080615D01*
G01X28950227Y-13097933D01*
G01X28952151Y-13128721D01*
G01X28950227Y-13151812D01*
G01X28942530Y-13213388D01*
G01X28938682Y-13228782D01*
G01X28934833Y-13248024D01*
G01X28929061Y-13269191D01*
G01X28921364Y-13294206D01*
G01X28913667Y-13317297D01*
G01X28905970Y-13338464D01*
G01X28898273Y-13355782D01*
G01X28882879Y-13382721D01*
G01X28873257Y-13398115D01*
G01X28861712Y-13411585D01*
G01X28852091Y-13421206D01*
G01X28838621Y-13430827D01*
G01X28823227Y-13436600D01*
G01X28809757Y-13436600D01*
G01X28796288Y-13430827D01*
G01X28784743Y-13423130D01*
G01X28777046Y-13413509D01*
G01X28771273Y-13401964D01*
G01X28755879Y-13375024D01*
G01X28748182Y-13363479D01*
G01X28736636Y-13353857D01*
G01X28719318Y-13350009D01*
G01X28703924Y-13348085D01*
G01X28528818Y-13346161D01*
G01X28353712Y-13348085D01*
G01X28299833Y-13351933D01*
G01X28253651Y-13355782D01*
G01X28222864Y-13359630D01*
G01X28192076Y-13367327D01*
G01X28174757Y-13369251D01*
G01X28164655Y-13366846D01*
G01X28157439Y-13359630D01*
G01X28149743Y-13336539D01*
G01X28149743Y-13313449D01*
G01X28153591Y-13298054D01*
G01X28159364Y-13280736D01*
G01X28165136Y-13259570D01*
G01X28163212Y-13240327D01*
G01X28155515Y-13226857D01*
G01X28145894Y-13213388D01*
G01X28136273Y-13196070D01*
G01X28128576Y-13180676D01*
G01X28120879Y-13163357D01*
G01X28113182Y-13142191D01*
G01X28105485Y-13122949D01*
G37*
G36*
G01X28109333Y-12403282D02*
G01X28101636Y-12378267D01*
G01X28095864Y-12351327D01*
G01X28092015Y-12334009D01*
G01X28090091Y-12278206D01*
G01X28092015Y-12220479D01*
G01X28095864Y-12199312D01*
G01X28101636Y-12176221D01*
G01X28113182Y-12141585D01*
G01X28120879Y-12124267D01*
G01X28128576Y-12108873D01*
G01X28136273Y-12095403D01*
G01X28145894Y-12080009D01*
G01X28157439Y-12062691D01*
G01X28168985Y-12049221D01*
G01X28184379Y-12029979D01*
G01X28199773Y-12018433D01*
G01X28219015Y-12006888D01*
G01X28234409Y-12001115D01*
G01X28253651Y-11999191D01*
G01X28272894Y-12003039D01*
G01X28286364Y-12010736D01*
G01X28297909Y-12020357D01*
G01X28305606Y-12031903D01*
G01X28309454Y-12047297D01*
G01X28305606Y-12062691D01*
G01X28290212Y-12089630D01*
G01X28282515Y-12105024D01*
G01X28274818Y-12122343D01*
G01X28269046Y-12139661D01*
G01X28261349Y-12170449D01*
G01X28257500Y-12193539D01*
G01X28257500Y-12222403D01*
G01X28261349Y-12243570D01*
G01X28267121Y-12258964D01*
G01X28274818Y-12274357D01*
G01X28282515Y-12285903D01*
G01X28294061Y-12301297D01*
G01X28307530Y-12314767D01*
G01X28321000Y-12324388D01*
G01X28338318Y-12334009D01*
G01X28357561Y-12339782D01*
G01X28374879Y-12339782D01*
G01X28380651Y-12299373D01*
G01X28380998Y-12278206D01*
G01X28501879Y-12278206D01*
G01X28503803Y-12328236D01*
G01X28507651Y-12335933D01*
G01X28512462Y-12340744D01*
G01X28523046Y-12343630D01*
G01X28546136Y-12345554D01*
G01X28561530Y-12341706D01*
G01X28573076Y-12335933D01*
G01X28588470Y-12326312D01*
G01X28601939Y-12310918D01*
G01X28609636Y-12289751D01*
G01X28613485Y-12268585D01*
G01X28611561Y-12255115D01*
G01X28605788Y-12241646D01*
G01X28596167Y-12230100D01*
G01X28586546Y-12222403D01*
G01X28573076Y-12214706D01*
G01X28546136Y-12208933D01*
G01X28521121Y-12208933D01*
G01X28507651Y-12220479D01*
G01X28507651Y-12220479D01*
G01X28503322Y-12239721D01*
G01X28501879Y-12278206D01*
G01X28380998Y-12278206D01*
G01X28382576Y-12181994D01*
G01X28384500Y-12020357D01*
G01X28392197Y-12004964D01*
G01X28403743Y-11993418D01*
G01X28413364Y-11987646D01*
G01X28428757Y-11979949D01*
G01X28449924Y-11974176D01*
G01X28482636Y-11972251D01*
G01X28511500Y-11974176D01*
G01X28526894Y-11978024D01*
G01X28544212Y-11983797D01*
G01X28561530Y-11991494D01*
G01X28578849Y-12001115D01*
G01X28596167Y-12012661D01*
G01X28615409Y-12026130D01*
G01X28648121Y-12058843D01*
G01X28671212Y-12087706D01*
G01X28678909Y-12099251D01*
G01X28686606Y-12112721D01*
G01X28694303Y-12128115D01*
G01X28702000Y-12145433D01*
G01X28707773Y-12162751D01*
G01X28715470Y-12193539D01*
G01X28719318Y-12212782D01*
G01X28723167Y-12239721D01*
G01X28725091Y-12280130D01*
G01X28723167Y-12308994D01*
G01X28719318Y-12335933D01*
G01X28715470Y-12353251D01*
G01X28709697Y-12372494D01*
G01X28698151Y-12403282D01*
G01X28690454Y-12420600D01*
G01X28682757Y-12435994D01*
G01X28675061Y-12449464D01*
G01X28665439Y-12464857D01*
G01X28653894Y-12482176D01*
G01X28642349Y-12495646D01*
G01X28613485Y-12524509D01*
G01X28600015Y-12536054D01*
G01X28573076Y-12555297D01*
G01X28557682Y-12564918D01*
G01X28526894Y-12580312D01*
G01X28509576Y-12588009D01*
G01X28486485Y-12595706D01*
G01X28463394Y-12601479D01*
G01X28446076Y-12605327D01*
G01X28411439Y-12609176D01*
G01X28388349Y-12609176D01*
G01X28363333Y-12607251D01*
G01X28349864Y-12605327D01*
G01X28334470Y-12601479D01*
G01X28282515Y-12584161D01*
G01X28265197Y-12576464D01*
G01X28249803Y-12568767D01*
G01X28234409Y-12559146D01*
G01X28215167Y-12545676D01*
G01X28199773Y-12534130D01*
G01X28161288Y-12495646D01*
G01X28153591Y-12486024D01*
G01X28147818Y-12476403D01*
G01X28138197Y-12462933D01*
G01X28126651Y-12443691D01*
G01X28117030Y-12424449D01*
G01X28109333Y-12403282D01*
G37*
G36*
G01X28097788Y-14527646D02*
G01X28095864Y-14506479D01*
G01X28093939Y-14483388D01*
G01X28092015Y-14464146D01*
G01X28092015Y-14452600D01*
G01X28093939Y-14425661D01*
G01X28095864Y-14402570D01*
G01X28099712Y-14367933D01*
G01X28103561Y-14348691D01*
G01X28109333Y-14327524D01*
G01X28115106Y-14312130D01*
G01X28120879Y-14300585D01*
G01X28128576Y-14290964D01*
G01X28140121Y-14279418D01*
G01X28157439Y-14271721D01*
G01X28174757Y-14269797D01*
G01X28188227Y-14271721D01*
G01X28201697Y-14277494D01*
G01X28219015Y-14285191D01*
G01X28234409Y-14290964D01*
G01X28272894Y-14298661D01*
G01X28347939Y-14300585D01*
G01X28422985Y-14298661D01*
G01X28453773Y-14294812D01*
G01X28496106Y-14290964D01*
G01X28511500Y-14283267D01*
G01X28524970Y-14269797D01*
G01X28532667Y-14250554D01*
G01X28534591Y-14229388D01*
G01X28526894Y-14210146D01*
G01X28513424Y-14196676D01*
G01X28499954Y-14190903D01*
G01X28482636Y-14185130D01*
G01X28463394Y-14181282D01*
G01X28449924Y-14179357D01*
G01X28378727Y-14177433D01*
G01X28307530Y-14179357D01*
G01X28245954Y-14183206D01*
G01X28230561Y-14188979D01*
G01X28217091Y-14198600D01*
G01X28197849Y-14217843D01*
G01X28186303Y-14227464D01*
G01X28172833Y-14233236D01*
G01X28155515Y-14235161D01*
G01X28138197Y-14231312D01*
G01X28126651Y-14223615D01*
G01X28117030Y-14210146D01*
G01X28109333Y-14192827D01*
G01X28103561Y-14169736D01*
G01X28099712Y-14148570D01*
G01X28095864Y-14102388D01*
G01X28092015Y-14052357D01*
G01X28092015Y-14036964D01*
G01X28093939Y-14011949D01*
G01X28099712Y-13948449D01*
G01X28107409Y-13913812D01*
G01X28113182Y-13898418D01*
G01X28120879Y-13884949D01*
G01X28128576Y-13875327D01*
G01X28138197Y-13865706D01*
G01X28151667Y-13858009D01*
G01X28168985Y-13854161D01*
G01X28188227Y-13859933D01*
G01X28238257Y-13884949D01*
G01X28257500Y-13890721D01*
G01X28292136Y-13892646D01*
G01X28322924Y-13894570D01*
G01X28392197Y-13896494D01*
G01X28461470Y-13894570D01*
G01X28484561Y-13892646D01*
G01X28507651Y-13888797D01*
G01X28519197Y-13881100D01*
G01X28528818Y-13871479D01*
G01X28536515Y-13858009D01*
G01X28542288Y-13838767D01*
G01X28542288Y-13821449D01*
G01X28536515Y-13806054D01*
G01X28524970Y-13792585D01*
G01X28511500Y-13784888D01*
G01X28492257Y-13779115D01*
G01X28473015Y-13775267D01*
G01X28446076Y-13771418D01*
G01X28371030Y-13769494D01*
G01X28295985Y-13771418D01*
G01X28261349Y-13775267D01*
G01X28242106Y-13779115D01*
G01X28220939Y-13786812D01*
G01X28194000Y-13806054D01*
G01X28172833Y-13813751D01*
G01X28160326Y-13813751D01*
G01X28149743Y-13809903D01*
G01X28136273Y-13800282D01*
G01X28128576Y-13790661D01*
G01X28120879Y-13777191D01*
G01X28113182Y-13759873D01*
G01X28105485Y-13736782D01*
G01X28099712Y-13709843D01*
G01X28097788Y-13686751D01*
G01X28095864Y-13671357D01*
G01X28093939Y-13623251D01*
G01X28095864Y-13575146D01*
G01X28099712Y-13536661D01*
G01X28103561Y-13519343D01*
G01X28109333Y-13502024D01*
G01X28117030Y-13486630D01*
G01X28128576Y-13467388D01*
G01X28143970Y-13453918D01*
G01X28161288Y-13446221D01*
G01X28178606Y-13444297D01*
G01X28194000Y-13451994D01*
G01X28207470Y-13461615D01*
G01X28217091Y-13469312D01*
G01X28230561Y-13477009D01*
G01X28247879Y-13484706D01*
G01X28267121Y-13488554D01*
G01X28284439Y-13490479D01*
G01X28307530Y-13490479D01*
G01X28422985Y-13488554D01*
G01X28526894Y-13486630D01*
G01X28542288Y-13486630D01*
G01X28567303Y-13488554D01*
G01X28590394Y-13492403D01*
G01X28605788Y-13496251D01*
G01X28619257Y-13500100D01*
G01X28634651Y-13509721D01*
G01X28651970Y-13519343D01*
G01X28663515Y-13528964D01*
G01X28673136Y-13538585D01*
G01X28682757Y-13550130D01*
G01X28692379Y-13565524D01*
G01X28700076Y-13578994D01*
G01X28703924Y-13590539D01*
G01X28709697Y-13605933D01*
G01X28715470Y-13625176D01*
G01X28719318Y-13640570D01*
G01X28721243Y-13667509D01*
G01X28719318Y-13694449D01*
G01X28715470Y-13713691D01*
G01X28709697Y-13736782D01*
G01X28703924Y-13756024D01*
G01X28698151Y-13771418D01*
G01X28690454Y-13786812D01*
G01X28680833Y-13804130D01*
G01X28671212Y-13817600D01*
G01X28655818Y-13836843D01*
G01X28644273Y-13852236D01*
G01X28630803Y-13865706D01*
G01X28621182Y-13879176D01*
G01X28619257Y-13894570D01*
G01X28630803Y-13904191D01*
G01X28644273Y-13913812D01*
G01X28667364Y-13929206D01*
G01X28676985Y-13938827D01*
G01X28688530Y-13952297D01*
G01X28700076Y-13969615D01*
G01X28707773Y-13988857D01*
G01X28711621Y-14006176D01*
G01X28719318Y-14044661D01*
G01X28721243Y-14061979D01*
G01X28719318Y-14079297D01*
G01X28715470Y-14102388D01*
G01X28709697Y-14125479D01*
G01X28703924Y-14140873D01*
G01X28696227Y-14160115D01*
G01X28682757Y-14187054D01*
G01X28675061Y-14200524D01*
G01X28646197Y-14235161D01*
G01X28617333Y-14264024D01*
G01X28611561Y-14275570D01*
G01X28613485Y-14287115D01*
G01X28626954Y-14292888D01*
G01X28642349Y-14294812D01*
G01X28676985Y-14294812D01*
G01X28694303Y-14300585D01*
G01X28704405Y-14305876D01*
G01X28711621Y-14314054D01*
G01X28719318Y-14333297D01*
G01X28719318Y-14360236D01*
G01X28715470Y-14383327D01*
G01X28713546Y-14396797D01*
G01X28698151Y-14458373D01*
G01X28686606Y-14498782D01*
G01X28680833Y-14516100D01*
G01X28675061Y-14535343D01*
G01X28663515Y-14569979D01*
G01X28655818Y-14587297D01*
G01X28648121Y-14600767D01*
G01X28640424Y-14610388D01*
G01X28626954Y-14621933D01*
G01X28605788Y-14631554D01*
G01X28586546Y-14631554D01*
G01X28573076Y-14623857D01*
G01X28561530Y-14612312D01*
G01X28549985Y-14598843D01*
G01X28536515Y-14587297D01*
G01X28515349Y-14579600D01*
G01X28496106Y-14575751D01*
G01X28411439Y-14573827D01*
G01X28326773Y-14575751D01*
G01X28276743Y-14579600D01*
G01X28261349Y-14581524D01*
G01X28245954Y-14585373D01*
G01X28232485Y-14591146D01*
G01X28219015Y-14598843D01*
G01X28207470Y-14610388D01*
G01X28197849Y-14621933D01*
G01X28184379Y-14633479D01*
G01X28165136Y-14641176D01*
G01X28145894Y-14641176D01*
G01X28128576Y-14631554D01*
G01X28117030Y-14614236D01*
G01X28109333Y-14593070D01*
G01X28103561Y-14571903D01*
G01X28099712Y-14552661D01*
G01X28097788Y-14527646D01*
G37*
G36*
G01X28105485Y-15156873D02*
G01X28103561Y-14856691D01*
G01X28101636Y-14839373D01*
G01X28097788Y-14820130D01*
G01X28093939Y-14789343D01*
G01X28095382Y-14770100D01*
G01X28099712Y-14758554D01*
G01X28109333Y-14747009D01*
G01X28118954Y-14739312D01*
G01X28130500Y-14731615D01*
G01X28145894Y-14721994D01*
G01X28180530Y-14704676D01*
G01X28207470Y-14693130D01*
G01X28238257Y-14681585D01*
G01X28257500Y-14675812D01*
G01X28278667Y-14670039D01*
G01X28319076Y-14666191D01*
G01X28355636Y-14670039D01*
G01X28367182Y-14675812D01*
G01X28378727Y-14683509D01*
G01X28386424Y-14691206D01*
G01X28396046Y-14702751D01*
G01X28401818Y-14727767D01*
G01X28397970Y-14747009D01*
G01X28390273Y-14758554D01*
G01X28380651Y-14768176D01*
G01X28371030Y-14775873D01*
G01X28357561Y-14783570D01*
G01X28344091Y-14789343D01*
G01X28317151Y-14804736D01*
G01X28294061Y-14820130D01*
G01X28282515Y-14833600D01*
G01X28269046Y-14847070D01*
G01X28261349Y-14858615D01*
G01X28253651Y-14874009D01*
G01X28245954Y-14895176D01*
G01X28240182Y-14916343D01*
G01X28236333Y-14935585D01*
G01X28234409Y-14952903D01*
G01X28232485Y-15020251D01*
G01X28234409Y-15087600D01*
G01X28238257Y-15101070D01*
G01X28245954Y-15114539D01*
G01X28263273Y-15124161D01*
G01X28284439Y-15129933D01*
G01X28303682Y-15131857D01*
G01X28319076Y-15133782D01*
G01X28388349Y-15137630D01*
G01X28401818Y-15139554D01*
G01X28415288Y-15137630D01*
G01X28436454Y-15135706D01*
G01X28461470Y-15129933D01*
G01X28474939Y-15116464D01*
G01X28480712Y-15095297D01*
G01X28480712Y-15076054D01*
G01X28476864Y-15058736D01*
G01X28471091Y-15043343D01*
G01X28463394Y-15033721D01*
G01X28449924Y-15022176D01*
G01X28428757Y-15014479D01*
G01X28411439Y-15010630D01*
G01X28392197Y-15006782D01*
G01X28374879Y-15001009D01*
G01X28365257Y-14993312D01*
G01X28360447Y-14986577D01*
G01X28357561Y-14974070D01*
G01X28359485Y-14950979D01*
G01X28365257Y-14937509D01*
G01X28376803Y-14925964D01*
G01X28392197Y-14916343D01*
G01X28419136Y-14904797D01*
G01X28432606Y-14900949D01*
G01X28446076Y-14899024D01*
G01X28463394Y-14893251D01*
G01X28490333Y-14889403D01*
G01X28511500Y-14887479D01*
G01X28555757Y-14885554D01*
G01X28600015Y-14887479D01*
G01X28619257Y-14889403D01*
G01X28640424Y-14893251D01*
G01X28675061Y-14900949D01*
G01X28690454Y-14906721D01*
G01X28707773Y-14916343D01*
G01X28723167Y-14931736D01*
G01X28730864Y-14949054D01*
G01X28732788Y-14968297D01*
G01X28725091Y-14987539D01*
G01X28707773Y-15002933D01*
G01X28688530Y-15010630D01*
G01X28673136Y-15014479D01*
G01X28638500Y-15018327D01*
G01X28625030Y-15022176D01*
G01X28611561Y-15033721D01*
G01X28603864Y-15052964D01*
G01X28601939Y-15089524D01*
G01X28605788Y-15124161D01*
G01X28613485Y-15135706D01*
G01X28628879Y-15143403D01*
G01X28705849Y-15147251D01*
G01X28777046Y-15145327D01*
G01X28796288Y-15139554D01*
G01X28815530Y-15131857D01*
G01X28823227Y-15116464D01*
G01X28829000Y-15097221D01*
G01X28832849Y-15031797D01*
G01X28830924Y-14968297D01*
G01X28827076Y-14949054D01*
G01X28823227Y-14922115D01*
G01X28817454Y-14900949D01*
G01X28807833Y-14883630D01*
G01X28796288Y-14870161D01*
G01X28786667Y-14860539D01*
G01X28773197Y-14848994D01*
G01X28759727Y-14839373D01*
G01X28748182Y-14831676D01*
G01X28736636Y-14822054D01*
G01X28728939Y-14812433D01*
G01X28721243Y-14798964D01*
G01X28717394Y-14777797D01*
G01X28721243Y-14760479D01*
G01X28728939Y-14747009D01*
G01X28742409Y-14733539D01*
G01X28761651Y-14723918D01*
G01X28784743Y-14718146D01*
G01X28821303Y-14716221D01*
G01X28850167Y-14718146D01*
G01X28880954Y-14725843D01*
G01X28896349Y-14731615D01*
G01X28913667Y-14739312D01*
G01X28927136Y-14747009D01*
G01X28950227Y-14762403D01*
G01X28961773Y-14775873D01*
G01X28971394Y-14791267D01*
G01X28975243Y-14820130D01*
G01X28971394Y-14848994D01*
G01X28967546Y-14862464D01*
G01X28965621Y-14875933D01*
G01X28961773Y-14906721D01*
G01X28957924Y-14929812D01*
G01X28956000Y-14979843D01*
G01X28954076Y-15018327D01*
G01X28952151Y-15247312D01*
G01X28948303Y-15476297D01*
G01X28940606Y-15489767D01*
G01X28930985Y-15501312D01*
G01X28919439Y-15509009D01*
G01X28904046Y-15514782D01*
G01X28884803Y-15516706D01*
G01X28869409Y-15512857D01*
G01X28857864Y-15505161D01*
G01X28848243Y-15489767D01*
G01X28840546Y-15470524D01*
G01X28832849Y-15455130D01*
G01X28819379Y-15441661D01*
G01X28798212Y-15432039D01*
G01X28777046Y-15426267D01*
G01X28753954Y-15422418D01*
G01X28730864Y-15420494D01*
G01X28715470Y-15418570D01*
G01X28696227Y-15414721D01*
G01X28663515Y-15412797D01*
G01X28638500Y-15410873D01*
G01X28521121Y-15408949D01*
G01X28403743Y-15410873D01*
G01X28349864Y-15414721D01*
G01X28326773Y-15418570D01*
G01X28292136Y-15422418D01*
G01X28261349Y-15428191D01*
G01X28238257Y-15435888D01*
G01X28220939Y-15449357D01*
G01X28209394Y-15466676D01*
G01X28199773Y-15483994D01*
G01X28190151Y-15499388D01*
G01X28178606Y-15507085D01*
G01X28165136Y-15510933D01*
G01X28149743Y-15510933D01*
G01X28134349Y-15505161D01*
G01X28122803Y-15495539D01*
G01X28113182Y-15480146D01*
G01X28107409Y-15460903D01*
G01X28105485Y-15156873D01*
G37*
G54D11*
G01X25984327Y-14367002D02*
G01X26041477Y-14516862D01*
G01X25984327Y-14367002D02*
G01X25927177Y-14516862D01*
G01X26020141Y-14466824D02*
G01X25948513Y-14466824D01*
G01X25781635Y-14367002D02*
G01X25853263Y-14367002D01*
G01X25860375Y-14431264D01*
G01X25853263Y-14424152D01*
G01X25831673Y-14416786D01*
G01X25810337Y-14416786D01*
G01X25789001Y-14424152D01*
G01X25774523Y-14438376D01*
G01X25767411Y-14459712D01*
G01X25767411Y-14473936D01*
G01X25774523Y-14495526D01*
G01X25789001Y-14509750D01*
G01X25810337Y-14516862D01*
G01X25831673Y-14516862D01*
G01X25853263Y-14509750D01*
G01X25860375Y-14502638D01*
G01X25867487Y-14488414D01*
G01X26190448Y-12589002D02*
G01X26190448Y-12738862D01*
G01X26190448Y-12589002D02*
G01X26140410Y-12589002D01*
G01X26119074Y-12596114D01*
G01X26104596Y-12610338D01*
G01X26097484Y-12624562D01*
G01X26090372Y-12646152D01*
G01X26090372Y-12681712D01*
G01X26097484Y-12703302D01*
G01X26104596Y-12717526D01*
G01X26119074Y-12731750D01*
G01X26140410Y-12738862D01*
G01X26190448Y-12738862D01*
G01X26016458Y-12589002D02*
G01X25937718Y-12589002D01*
G01X25980644Y-12646152D01*
G01X25959308Y-12646152D01*
G01X25944830Y-12653264D01*
G01X25937718Y-12660376D01*
G01X25930606Y-12681712D01*
G01X25930606Y-12695936D01*
G01X25937718Y-12717526D01*
G01X25952196Y-12731750D01*
G01X25973532Y-12738862D01*
G01X25994868Y-12738862D01*
G01X26016458Y-12731750D01*
G01X26023570Y-12724638D01*
G01X26030682Y-12710414D01*
G01X25770840Y-12589002D02*
G01X25842214Y-12738862D01*
G01X25870916Y-12589002D02*
G01X25770840Y-12589002D01*
G04 Text End*

M02*

