G04 Layer: TopSolderMaskLayer*
G04 EasyEDA Pro v2.2.47.7, 2026-04-14 20:21:41*
G04 Gerber Generator version 0.3*
G04 Scale: 100 percent, Rotated: No, Reflected: No*
G04 Dimensions in millimeters*
G04 Leading zeros omitted, absolute positions, 4 integers and 5 decimals*
G04 Generated by custom config*
G04 Object Configs: Pad,Via,Track,Text,Image,Dimension,BoardOutline,BoardCutout,CopperFilled,SolidRegion,FPCStiffener,Line,PlaneZone,ComponentProperty,ComponentSilkscreen,TearDrop*
G04 Layer Configs: 1,2,3,4,7,8,5,6,11,14,9,10,56*
G04 Copper Areas: 0*
%FSLAX45Y45*%
%MOMM*%
%AMRoundRect*1,1,$1,$2,$3*1,1,$1,$4,$5*1,1,$1,0-$2,0-$3*1,1,$1,0-$4,0-$5*20,1,$1,$2,$3,$4,$5,0*20,1,$1,$4,$5,0-$2,0-$3,0*20,1,$1,0-$2,0-$3,0-$4,0-$5,0*20,1,$1,0-$4,0-$5,$2,$3,0*4,1,4,$2,$3,$4,$5,0-$2,0-$3,0-$4,0-$5,$2,$3,0*%
%ADD10RoundRect,0.08875X-0.30643X0.78143X0.30643X0.78143*%
%ADD11RoundRect,0.09424X-0.60368X0.90368X0.60368X0.90368*%
%ADD12RoundRect,0.09588X-0.80286X-0.80286X-0.80286X0.80286*%
%ADD13C,1.7016*%
%ADD14O,1.7016X1.70155*%
%ADD15O,2.70159X2.1016*%
%ADD16O,1.9016X0.38161*%
%ADD17O,0.38161X1.9016*%
%ADD18RoundRect,0.1012X-0.85271X0.85271X0.85271X0.85271*%
%ADD19RoundRect,0.09618X-0.85271X0.85271X0.85271X0.85271*%
%ADD20C,1.8016*%
%ADD21C,1.60002*%
%ADD22RoundRect,0.09017X-0.63072X0.35571X0.63072X0.35571*%
%ADD23RoundRect,0.09424X-0.60368X0.60368X0.60368X0.60368*%
%ADD24RoundRect,0.08771X-0.28977X0.27695X0.28977X0.27695*%
%ADD25RoundRect,0.09424X-0.60368X-0.60368X-0.60368X0.60368*%
%ADD26RoundRect,0.09368X-1.40396X0.55396X1.40396X0.55396*%
%ADD27O,3.60159X1.6016*%
%ADD28O,1.6016X3.60159*%
%ADD29RoundRect,0.09336X-0.52912X-1.23662X-0.52912X1.23662*%
%ADD30RoundRect,0.09773X-1.77193X-1.23443X-1.77193X1.23443*%
%ADD31RoundRect,0.09131X-0.45514X-0.40514X-0.45514X0.40514*%
%ADD32RoundRect,0.08771X-0.27695X-0.28977X-0.27695X0.28977*%
%ADD33RoundRect,0.09419X-0.59875X0.8677X0.59875X0.8677*%
%ADD34RoundRect,0.08756X-0.52576X0.27302X0.52576X0.27302*%
%ADD35RoundRect,0.09495X-0.70833X0.67833X0.70833X0.67833*%
%ADD36RoundRect,0.09131X-0.40514X0.45514X0.40514X0.45514*%
%ADD37RoundRect,0.09754X-1.80203X-1.17203X-1.80203X1.17203*%
%ADD38RoundRect,0.09368X-0.55396X-1.25396X-0.55396X1.25396*%
%ADD39RoundRect,0.09302X-0.50429X0.75429X0.50429X0.75429*%
%ADD40RoundRect,0.08692X-0.27734X-0.25734X-0.27734X0.25734*%
%ADD41RoundRect,0.09017X-0.35571X-0.63072X-0.35571X0.63072*%
%ADD42RoundRect,0.09598X-0.82031X1.0828X0.82031X1.0828*%
%ADD43RoundRect,0.0879X-0.28186X0.73186X0.28186X0.73186*%
%ADD44RoundRect,0.08109X-0.16026X0.73526X0.16026X0.73526*%
%ADD45O,1.1016X1.9016*%
%ADD46O,1.1016X2.2016*%
%ADD47C,1.3016*%
%ADD48RoundRect,0.09169X-0.60186X0.42406X0.60186X0.42406*%
%ADD49RoundRect,0.09169X-0.42406X0.42406X0.42406X0.42406*%
%ADD50O,0.7316X1.9666*%
%ADD51RoundRect,0.08449X-0.20856X0.40856X0.20856X0.40856*%
%ADD52RoundRect,0.09131X-0.40514X-0.40514X-0.40514X0.40514*%
G75*


G04 Pad Start*
G54D10*
G01X28523387Y-8372602D03*
G01X28623387Y-8372602D03*
G01X28323362Y-8372551D03*
G01X28423362Y-8372551D03*
G54D11*
G01X28753410Y-7985049D03*
G01X28193390Y-7984998D03*
G54D12*
G01X31343600Y-15709900D03*
G54D13*
G01X31343600Y-15455900D03*
G01X31343600Y-15201900D03*
G01X31343600Y-14947900D03*
G01X31343600Y-14693900D03*
G01X31343600Y-14439900D03*
G01X31343600Y-14185900D03*
G01X31343600Y-13931900D03*
G01X31343600Y-13677900D03*
G01X31343600Y-13423900D03*
G01X31343600Y-13169900D03*
G01X31343600Y-12915900D03*
G01X31343600Y-12661900D03*
G01X31343600Y-12407900D03*
G01X31343600Y-12153900D03*
G01X31343600Y-11899900D03*
G01X31343600Y-11645900D03*
G01X31343600Y-11391900D03*
G01X31343600Y-11137900D03*
G01X31343600Y-10883900D03*
G01X31343600Y-10629900D03*
G01X31343600Y-10375900D03*
G54D12*
G01X25590500Y-15709900D03*
G54D13*
G01X25590500Y-15455900D03*
G01X25590500Y-15201900D03*
G01X25590500Y-14947900D03*
G01X25590500Y-14693900D03*
G01X25590500Y-14439900D03*
G01X25590500Y-14185900D03*
G01X25590500Y-13931900D03*
G01X25590500Y-13677900D03*
G01X25590500Y-13423900D03*
G01X25590500Y-13169900D03*
G01X25590500Y-12915900D03*
G01X25590500Y-12661900D03*
G01X25590500Y-12407900D03*
G01X25590500Y-12153900D03*
G01X25590500Y-11899900D03*
G01X25590500Y-11645900D03*
G01X25590500Y-11391900D03*
G01X25590500Y-11137900D03*
G01X25590500Y-10883900D03*
G01X25590500Y-10629900D03*
G01X25590500Y-10375900D03*
G54D14*
G01X25679405Y-8944000D03*
G01X25679405Y-9344000D03*
G01X25679405Y-9144000D03*
G54D15*
G01X25679405Y-9559011D03*
G01X25679405Y-8728989D03*
G54D14*
G01X31241995Y-9344000D03*
G01X31241995Y-8944000D03*
G01X31241995Y-9144000D03*
G54D15*
G01X31241995Y-8728989D03*
G01X31241995Y-9559011D03*
G54D16*
G01X29132403Y-10955706D03*
G01X29132403Y-10905693D03*
G01X29132403Y-10855706D03*
G01X29132403Y-10805693D03*
G01X29132403Y-10755706D03*
G01X29132403Y-10705694D03*
G01X29132403Y-10655706D03*
G01X29132403Y-10605694D03*
G01X29132403Y-10555707D03*
G01X29132403Y-10505694D03*
G01X29132403Y-10455707D03*
G01X29132403Y-10405694D03*
G54D17*
G01X29002406Y-10275697D03*
G01X28952393Y-10275697D03*
G01X28902406Y-10275697D03*
G01X28852393Y-10275697D03*
G01X28802406Y-10275697D03*
G01X28752394Y-10275697D03*
G01X28702406Y-10275697D03*
G01X28652394Y-10275697D03*
G01X28602407Y-10275697D03*
G01X28552394Y-10275697D03*
G01X28502407Y-10275697D03*
G01X28452394Y-10275697D03*
G54D16*
G01X28322397Y-10405694D03*
G01X28322397Y-10455707D03*
G01X28322397Y-10505694D03*
G01X28322397Y-10555707D03*
G01X28322397Y-10605694D03*
G01X28322397Y-10655706D03*
G01X28322397Y-10705694D03*
G01X28322397Y-10755706D03*
G01X28322397Y-10805693D03*
G01X28322397Y-10855706D03*
G01X28322397Y-10905693D03*
G01X28322397Y-10955706D03*
G54D17*
G01X28452394Y-11085703D03*
G01X28502407Y-11085703D03*
G01X28552394Y-11085703D03*
G01X28602407Y-11085703D03*
G01X28652394Y-11085703D03*
G01X28702406Y-11085703D03*
G01X28752394Y-11085703D03*
G01X28802406Y-11085703D03*
G01X28852393Y-11085703D03*
G01X28902406Y-11085703D03*
G01X28952393Y-11085703D03*
G01X29002406Y-11085703D03*
G54D19*
G01X29705300Y-7975600D03*
G54D20*
G01X29959300Y-7975600D03*
G01X30213300Y-7975600D03*
G01X30467300Y-7975600D03*
G54D21*
G01X27339493Y-8077200D03*
G01X26889507Y-8077200D03*
G54D22*
G01X30062500Y-9264904D03*
G01X30062500Y-9454896D03*
G01X30262500Y-9359900D03*
G54D23*
G01X29938993Y-8331200D03*
G01X30259007Y-8331200D03*
G54D24*
G01X29954118Y-8547100D03*
G01X30040682Y-8547100D03*
G54D25*
G01X29959300Y-14511007D03*
G01X29959300Y-14190993D03*
G01X29832300Y-9225293D03*
G01X29832300Y-9545307D03*
G54D26*
G01X29508006Y-13677900D03*
G01X29927995Y-13677900D03*
G54D27*
G01X29609999Y-15410294D03*
G54D28*
G01X30080001Y-15090305D03*
G54D27*
G01X29609999Y-14790306D03*
G54D29*
G01X29500703Y-13011150D03*
G01X29730700Y-13011150D03*
G01X29960697Y-13011150D03*
G54D30*
G01X29730700Y-12439650D03*
G54D31*
G01X29540200Y-9455302D03*
G01X29540200Y-9315298D03*
G54D32*
G01X29527500Y-8846718D03*
G01X29527500Y-8933282D03*
G54D33*
G01X29230599Y-14503400D03*
G01X29519601Y-14503400D03*
G54D32*
G01X29337000Y-9367418D03*
G01X29337000Y-9453982D03*
G54D34*
G01X29332834Y-8934196D03*
G01X29332834Y-8744204D03*
G01X29112566Y-8839200D03*
G54D32*
G01X29184600Y-9453982D03*
G01X29184600Y-9367418D03*
G54D24*
G01X29189782Y-9601200D03*
G01X29103218Y-9601200D03*
G54D35*
G01X29033800Y-13017500D03*
G01X29233800Y-13017500D03*
G54D36*
G01X29089502Y-10007600D03*
G01X28949498Y-10007600D03*
G54D34*
G01X28977234Y-9175496D03*
G01X28977234Y-8985504D03*
G01X28756966Y-9080500D03*
G01X28754426Y-9356344D03*
G01X28754426Y-9546336D03*
G01X28974694Y-9451340D03*
G54D37*
G01X28676600Y-13368210D03*
G54D38*
G01X28906597Y-13962189D03*
G01X28676600Y-13962189D03*
G01X28446603Y-13962189D03*
G54D26*
G01X28428506Y-12484100D03*
G01X28848495Y-12484100D03*
G54D36*
G01X28568498Y-11366500D03*
G01X28708502Y-11366500D03*
G54D35*
G01X28675000Y-11595100D03*
G01X28475000Y-11595100D03*
G01X28436900Y-13017500D03*
G01X28636900Y-13017500D03*
G54D23*
G01X28351493Y-14554200D03*
G01X28671507Y-14554200D03*
G54D32*
G01X28460700Y-8691982D03*
G01X28460700Y-8605418D03*
G01X28321000Y-8691982D03*
G01X28321000Y-8605418D03*
G01X28047407Y-15172836D03*
G01X28047407Y-15259399D03*
G54D39*
G01X28138900Y-14846300D03*
G01X27918900Y-14846300D03*
G54D35*
G01X28128900Y-14554200D03*
G01X27928900Y-14554200D03*
G54D31*
G01X28028900Y-10318598D03*
G01X28028900Y-10458602D03*
G54D40*
G01X28003500Y-11078312D03*
G01X28003500Y-10994288D03*
G01X28003500Y-10798912D03*
G01X28003500Y-10714888D03*
G54D31*
G01X27813000Y-10420198D03*
G01X27813000Y-10560202D03*
G01X27673300Y-14878202D03*
G01X27673300Y-14738198D03*
G01X27660600Y-14052702D03*
G01X27660600Y-13912698D03*
G54D41*
G01X27540204Y-12241200D03*
G01X27730196Y-12241200D03*
G01X27635200Y-12041200D03*
G54D23*
G01X27398993Y-12471400D03*
G01X27719007Y-12471400D03*
G54D36*
G01X27558827Y-12712700D03*
G01X27418822Y-12712700D03*
G54D24*
G01X27414118Y-12890500D03*
G01X27500682Y-12890500D03*
G54D42*
G01X27315249Y-10515600D03*
G01X27548751Y-10515600D03*
G54D43*
G01X27111985Y-15188197D03*
G01X27191995Y-15188197D03*
G01X27751989Y-15188197D03*
G01X27672005Y-15188197D03*
G54D44*
G01X27607006Y-15188171D03*
G01X27556993Y-15188171D03*
G01X27507006Y-15188171D03*
G01X27456994Y-15188171D03*
G01X27407006Y-15188171D03*
G01X27356994Y-15188171D03*
G01X27307007Y-15188171D03*
G01X27256994Y-15188171D03*
G54D45*
G01X26999997Y-15698229D03*
G54D46*
G01X27864003Y-15280195D03*
G01X26999997Y-15280195D03*
G54D45*
G01X27864003Y-15698178D03*
G54D31*
G01X27419300Y-13303098D03*
G01X27419300Y-13443102D03*
G54D47*
G01X27863803Y-10841998D03*
G01X27863803Y-11002018D03*
G54D32*
G01X27381200Y-12085218D03*
G01X27381200Y-12171782D03*
G54D48*
G01X27430806Y-14638261D03*
G54D49*
G01X27260804Y-14638261D03*
G01X27450796Y-14876539D03*
G01X27260804Y-14876539D03*
G54D32*
G01X27343100Y-8338718D03*
G01X27343100Y-8425282D03*
G54D50*
G01X27038300Y-14250949D03*
G01X27165300Y-14250949D03*
G01X27292300Y-14250949D03*
G01X27419300Y-14250949D03*
G01X27038300Y-13714451D03*
G01X27165300Y-13714451D03*
G01X27292300Y-13714451D03*
G01X27419300Y-13714451D03*
G54D24*
G01X27033118Y-12890500D03*
G01X27119682Y-12890500D03*
G54D41*
G01X27032204Y-12253900D03*
G01X27222196Y-12253900D03*
G01X27127200Y-12053900D03*
G54D36*
G01X27176608Y-12712700D03*
G01X27036603Y-12712700D03*
G54D24*
G01X27045818Y-8343900D03*
G01X27132382Y-8343900D03*
G54D31*
G01X27241500Y-11537798D03*
G01X27241500Y-11677802D03*
G54D24*
G01X27106982Y-14986000D03*
G01X27020418Y-14986000D03*
G54D36*
G01X26993698Y-8534400D03*
G01X27133702Y-8534400D03*
G54D31*
G01X27038300Y-13303098D03*
G01X27038300Y-13443102D03*
G54D23*
G01X26878293Y-12471400D03*
G01X27198307Y-12471400D03*
G54D51*
G01X26947285Y-11806980D03*
G01X27077283Y-11806980D03*
G01X27077283Y-11577009D03*
G01X26947285Y-11577009D03*
G01X27012284Y-11577009D03*
G01X27012259Y-11806980D03*
G54D24*
G01X26906118Y-9597196D03*
G01X26992682Y-9597196D03*
G01X26992682Y-9296400D03*
G01X26906118Y-9296400D03*
G01X26992682Y-9448800D03*
G01X26906118Y-9448800D03*
G01X26906118Y-9139996D03*
G01X26992682Y-9139996D03*
G01X26906118Y-8949496D03*
G01X26992682Y-8949496D03*
G54D32*
G01X26873200Y-12097918D03*
G01X26873200Y-12184482D03*
G01X26797000Y-11475618D03*
G01X26797000Y-11562182D03*
G54D52*
G01X26706800Y-9601187D03*
G01X26557000Y-9601213D03*
G01X26706800Y-9143987D03*
G01X26557000Y-9144013D03*
G01X26706800Y-8949483D03*
G01X26557000Y-8949508D03*
G01X26706800Y-9372587D03*
G01X26557000Y-9372613D03*
G04 Pad End*

M02*

