G04 Layer: BottomSolderMaskLayer*
G04 EasyEDA Pro v2.2.47.7, 2026-04-14 20:21:41*
G04 Gerber Generator version 0.3*
G04 Scale: 100 percent, Rotated: No, Reflected: No*
G04 Dimensions in millimeters*
G04 Leading zeros omitted, absolute positions, 4 integers and 5 decimals*
G04 Generated by custom config*
G04 Object Configs: Pad,Via,Track,Text,Image,Dimension,BoardOutline,BoardCutout,CopperFilled,SolidRegion,FPCStiffener,Line,PlaneZone,ComponentProperty,ComponentSilkscreen,TearDrop*
G04 Layer Configs: 1,2,3,4,7,8,5,6,11,14,9,10,56*
G04 Copper Areas: 0*
%FSLAX45Y45*%
%MOMM*%
%AMRoundRect*1,1,$1,$2,$3*1,1,$1,$4,$5*1,1,$1,0-$2,0-$3*1,1,$1,0-$4,0-$5*20,1,$1,$2,$3,$4,$5,0*20,1,$1,$4,$5,0-$2,0-$3,0*20,1,$1,0-$2,0-$3,0-$4,0-$5,0*20,1,$1,0-$4,0-$5,$2,$3,0*4,1,4,$2,$3,$4,$5,0-$2,0-$3,0-$4,0-$5,$2,$3,0*%
%ADD10RoundRect,0.09588X-0.80286X-0.80286X-0.80286X0.80286*%
%ADD11C,1.7016*%
%ADD12O,1.7016X1.70155*%
%ADD13O,2.70159X2.1016*%
%ADD14RoundRect,0.09618X-0.85271X0.85271X0.85271X0.85271*%
%ADD15C,1.8016*%
%ADD16C,1.60002*%
%ADD17O,3.6098X1.6016*%
%ADD18O,3.60159X1.6016*%
%ADD19O,1.6016X3.60159*%
%ADD20O,1.1016X1.9016*%
%ADD21O,1.1016X2.2016*%
%ADD22C,1.3016*%
G75*


G04 Pad Start*
G54D10*
G01X31343600Y-15709900D03*
G54D11*
G01X31343600Y-15455900D03*
G01X31343600Y-15201900D03*
G01X31343600Y-14947900D03*
G01X31343600Y-14693900D03*
G01X31343600Y-14439900D03*
G01X31343600Y-14185900D03*
G01X31343600Y-13931900D03*
G01X31343600Y-13677900D03*
G01X31343600Y-13423900D03*
G01X31343600Y-13169900D03*
G01X31343600Y-12915900D03*
G01X31343600Y-12661900D03*
G01X31343600Y-12407900D03*
G01X31343600Y-12153900D03*
G01X31343600Y-11899900D03*
G01X31343600Y-11645900D03*
G01X31343600Y-11391900D03*
G01X31343600Y-11137900D03*
G01X31343600Y-10883900D03*
G01X31343600Y-10629900D03*
G01X31343600Y-10375900D03*
G54D10*
G01X25590500Y-15709900D03*
G54D11*
G01X25590500Y-15455900D03*
G01X25590500Y-15201900D03*
G01X25590500Y-14947900D03*
G01X25590500Y-14693900D03*
G01X25590500Y-14439900D03*
G01X25590500Y-14185900D03*
G01X25590500Y-13931900D03*
G01X25590500Y-13677900D03*
G01X25590500Y-13423900D03*
G01X25590500Y-13169900D03*
G01X25590500Y-12915900D03*
G01X25590500Y-12661900D03*
G01X25590500Y-12407900D03*
G01X25590500Y-12153900D03*
G01X25590500Y-11899900D03*
G01X25590500Y-11645900D03*
G01X25590500Y-11391900D03*
G01X25590500Y-11137900D03*
G01X25590500Y-10883900D03*
G01X25590500Y-10629900D03*
G01X25590500Y-10375900D03*
G54D12*
G01X25679405Y-8944000D03*
G01X25679405Y-9344000D03*
G01X25679405Y-9144000D03*
G54D13*
G01X25679405Y-9559011D03*
G01X25679405Y-8728989D03*
G54D12*
G01X31241995Y-9344000D03*
G01X31241995Y-8944000D03*
G01X31241995Y-9144000D03*
G54D13*
G01X31241995Y-8728989D03*
G01X31241995Y-9559011D03*
G54D14*
G01X29705300Y-7975600D03*
G54D15*
G01X29959300Y-7975600D03*
G01X30213300Y-7975600D03*
G01X30467300Y-7975600D03*
G54D16*
G01X27339493Y-8077200D03*
G01X26889507Y-8077200D03*
G54D18*
G01X29609999Y-15410294D03*
G54D19*
G01X30080001Y-15090305D03*
G54D18*
G01X29609999Y-14790306D03*
G54D20*
G01X26999997Y-15698229D03*
G54D21*
G01X27864003Y-15280195D03*
G01X26999997Y-15280195D03*
G54D20*
G01X27864003Y-15698178D03*
G54D22*
G01X27863803Y-10841998D03*
G01X27863803Y-11002018D03*
G04 Pad End*

M02*

