G04 Layer: BottomLayer*
G04 EasyEDA Pro v2.2.47.7, 2026-04-14 20:21:41*
G04 Gerber Generator version 0.3*
G04 Scale: 100 percent, Rotated: No, Reflected: No*
G04 Dimensions in millimeters*
G04 Leading zeros omitted, absolute positions, 4 integers and 5 decimals*
G04 Generated by custom config*
G04 Object Configs: Pad,Via,Track,Text,Image,Dimension,BoardOutline,BoardCutout,CopperFilled,SolidRegion,FPCStiffener,Line,PlaneZone,ComponentProperty,ComponentSilkscreen,TearDrop*
G04 Layer Configs: 1,2,3,4,7,8,5,6,11,14,9,10,56*
G04 Copper Areas: 55*
%FSLAX45Y45*%
%MOMM*%
%ADD10C,0.2032*%
%ADD11C,0.254*%
%ADD12R,1.6X1.6*%
%ADD13C,1.6*%
%ADD14O,1.6X1.59995*%
%ADD15O,2.59999X2.0*%
%ADD16R,1.7010X1.7*%
%ADD17R,1.7X1.7*%
%ADD18C,1.7*%
%ADD19C,1.5*%
%ADD20O,3.49999X1.5*%
%ADD21O,1.5X3.49999*%
%ADD22O,1.0X1.8*%
%ADD23O,1.0X2.1*%
%ADD24C,1.2*%
%ADD25C,0.45*%
%ADD26C,0.127*%
%ADD27C,0.508*%
G75*


G04 Copper Start*
G36*
G01X25499314Y-10812500D02*
G01X25499314Y-10701300D01*
G01X25513306Y-10716236D01*
G01X25529709Y-10728476D01*
G01X25548011Y-10737638D01*
G01X25567639Y-10743435D01*
G01X25587981Y-10745686D01*
G01X25608402Y-10744322D01*
G01X25628264Y-10739384D01*
G01X25646947Y-10731027D01*
G01X25663866Y-10719512D01*
G01X25678495Y-10705198D01*
G01X25690375Y-10688533D01*
G01X25699137Y-10670036D01*
G01X25704505Y-10650286D01*
G01X25706314Y-10629900D01*
G01X25704505Y-10609514D01*
G01X25699137Y-10589764D01*
G01X25690375Y-10571267D01*
G01X25678495Y-10554602D01*
G01X25663866Y-10540288D01*
G01X25646947Y-10528773D01*
G01X25628264Y-10520416D01*
G01X25608402Y-10515478D01*
G01X25587981Y-10514114D01*
G01X25567639Y-10516365D01*
G01X25548011Y-10522162D01*
G01X25529709Y-10531324D01*
G01X25513306Y-10543564D01*
G01X25499314Y-10558500D01*
G01X25499314Y-10447300D01*
G01X25512036Y-10461084D01*
G01X25526817Y-10472633D01*
G01X25543268Y-10481645D01*
G01X25560959Y-10487883D01*
G01X25579424Y-10491183D01*
G01X25598180Y-10491459D01*
G01X25616734Y-10488704D01*
G01X26194915Y-11066885D01*
G01X26204191Y-11074498D01*
G01X26214774Y-11080154D01*
G01X26226258Y-11083638D01*
G01X26238200Y-11084814D01*
G01X26758900Y-11084814D01*
G01X26773549Y-11083035D01*
G01X26787348Y-11077802D01*
G01X26799492Y-11069419D01*
G01X26809278Y-11058374D01*
G01X26816136Y-11045307D01*
G01X26819668Y-11030979D01*
G01X26819668Y-11016221D01*
G01X26816136Y-11001893D01*
G01X26809278Y-10988826D01*
G01X26799492Y-10977781D01*
G01X26787348Y-10969398D01*
G01X26773549Y-10964165D01*
G01X26758900Y-10962386D01*
G01X26263556Y-10962386D01*
G01X25703304Y-10402134D01*
G01X25706110Y-10382774D01*
G01X25705617Y-10363218D01*
G01X25701841Y-10344024D01*
G01X25694887Y-10325739D01*
G01X25684956Y-10308885D01*
G01X25672329Y-10293944D01*
G01X25657368Y-10281341D01*
G01X25640499Y-10271435D01*
G01X25622204Y-10264510D01*
G01X25603004Y-10260763D01*
G01X25583447Y-10260301D01*
G01X25564091Y-10263137D01*
G01X25545489Y-10269191D01*
G01X25528172Y-10278288D01*
G01X25512632Y-10290171D01*
G01X25499314Y-10304500D01*
G01X25499314Y-9549059D01*
G01X25513956Y-9549059D01*
G01X25514154Y-9571362D01*
G01X25518000Y-9593333D01*
G01X25525390Y-9614378D01*
G01X25536124Y-9633929D01*
G01X25549914Y-9651460D01*
G01X25566387Y-9666497D01*
G01X25585100Y-9678636D01*
G01X25605546Y-9687548D01*
G01X25627176Y-9692993D01*
G01X25649405Y-9694824D01*
G01X25709405Y-9694824D01*
G01X25731634Y-9692993D01*
G01X25753264Y-9687548D01*
G01X25773711Y-9678636D01*
G01X25792423Y-9666497D01*
G01X25808896Y-9651460D01*
G01X25822686Y-9633929D01*
G01X25833421Y-9614378D01*
G01X25840810Y-9593333D01*
G01X25844656Y-9571362D01*
G01X25844854Y-9549059D01*
G01X25841398Y-9527024D01*
G01X25834383Y-9505851D01*
G01X25823997Y-9486112D01*
G01X25810520Y-9468340D01*
G01X25794316Y-9453013D01*
G01X25775821Y-9440544D01*
G01X25755536Y-9431271D01*
G01X25769373Y-9416924D01*
G01X25780545Y-9400417D01*
G01X25788721Y-9382238D01*
G01X25793659Y-9362927D01*
G01X25795213Y-9343055D01*
G01X25793335Y-9323211D01*
G01X25788083Y-9303983D01*
G01X25779612Y-9285940D01*
G01X25768172Y-9269617D01*
G01X25754102Y-9255498D01*
G01X25737820Y-9244000D01*
G01X25753662Y-9232871D01*
G01X25767430Y-9219259D01*
G01X25778737Y-9203544D01*
G01X25787268Y-9186164D01*
G01X26247429Y-9186164D01*
G01X26243935Y-9199520D01*
G01X26243677Y-9213323D01*
G01X26246672Y-9226799D01*
G01X26252751Y-9239194D01*
G01X26261573Y-9249813D01*
G01X26272645Y-9258060D01*
G01X26285345Y-9263474D01*
G01X26390256Y-9368385D01*
G01X26390256Y-10316120D01*
G01X26391692Y-10327033D01*
G01X26395905Y-10337202D01*
G01X26402605Y-10345934D01*
G01X26487786Y-10431114D01*
G01X26496518Y-10437815D01*
G01X26506687Y-10442027D01*
G01X26517600Y-10443464D01*
G01X26855735Y-10443464D01*
G01X26967301Y-10555030D01*
G01X26967929Y-10562336D01*
G01X26367383Y-10562336D01*
G01X26356306Y-10554027D01*
G01X26343582Y-10548564D01*
G01X26329928Y-10546255D01*
G01X26316115Y-10547230D01*
G01X26302922Y-10551435D01*
G01X26291091Y-10558632D01*
G01X26281292Y-10568415D01*
G01X26274075Y-10580233D01*
G01X26269848Y-10593420D01*
G01X26257980Y-10597570D01*
G01X26247277Y-10604167D01*
G01X26238237Y-10612905D01*
G01X26231281Y-10623378D01*
G01X26226730Y-10635099D01*
G01X26213797Y-10636272D01*
G01X26201444Y-10640279D01*
G01X26190284Y-10646920D01*
G01X26180871Y-10655867D01*
G01X26173671Y-10666675D01*
G01X26169041Y-10678808D01*
G01X26155573Y-10681759D01*
G01X26143174Y-10687789D01*
G01X26132537Y-10696562D01*
G01X26124258Y-10707587D01*
G01X26118798Y-10720248D01*
G01X26116464Y-10733836D01*
G01X26117385Y-10747593D01*
G01X26121510Y-10760749D01*
G01X26128609Y-10772569D01*
G01X26138284Y-10782392D01*
G01X26149995Y-10789669D01*
G01X26163087Y-10793993D01*
G01X26176828Y-10795122D01*
G01X26190451Y-10792993D01*
G01X26203193Y-10787726D01*
G01X26214342Y-10779614D01*
G01X26969352Y-10779614D01*
G01X26967289Y-10794440D01*
G01X26969067Y-10809302D01*
G01X26974570Y-10823223D01*
G01X26983436Y-10835283D01*
G01X26983436Y-11639021D01*
G01X26945955Y-11676501D01*
G01X26931054Y-11678790D01*
G01X26917237Y-11684824D01*
G01X26905429Y-11694197D01*
G01X26896419Y-11706285D01*
G01X26890808Y-11720279D01*
G01X26888973Y-11735243D01*
G01X26891036Y-11750178D01*
G01X26896858Y-11764085D01*
G01X26906051Y-11776034D01*
G01X26918001Y-11785227D01*
G01X26931907Y-11791050D01*
G01X26946842Y-11793112D01*
G01X26961806Y-11791277D01*
G01X26975800Y-11785667D01*
G01X26987888Y-11776657D01*
G01X26997262Y-11764848D01*
G01X27003295Y-11751032D01*
G01X27005584Y-11736130D01*
G01X27020596Y-11721118D01*
G01X27018983Y-11736082D01*
G01X27021252Y-11750960D01*
G01X27027254Y-11764762D01*
G01X27036589Y-11776568D01*
G01X27048634Y-11785592D01*
G01X27062587Y-11791232D01*
G01X27077520Y-11793114D01*
G01X27092436Y-11791111D01*
G01X27106343Y-11785357D01*
G01X27118315Y-11776236D01*
G01X27127553Y-11764354D01*
G01X27133442Y-11750504D01*
G01X27135591Y-11735608D01*
G01X27133856Y-11720658D01*
G01X27128352Y-11706650D01*
G01X27119447Y-11694517D01*
G01X27119447Y-10898783D01*
G01X27127293Y-10888491D01*
G01X27132677Y-10876722D01*
G01X27135332Y-10864055D01*
G01X27135127Y-10851114D01*
G01X27132073Y-10838538D01*
G01X27126321Y-10826944D01*
G01X27118153Y-10816905D01*
G01X27107972Y-10808915D01*
G01X27096279Y-10803367D01*
G01X27083651Y-10800535D01*
G01X27083699Y-10789993D01*
G01X27081848Y-10779614D01*
G01X27272053Y-10779614D01*
G01X27263578Y-10791800D01*
G01X27258285Y-10805667D01*
G01X27256486Y-10820400D01*
G01X27256486Y-11353800D01*
G01X27257662Y-11365742D01*
G01X27261146Y-11377226D01*
G01X27266802Y-11387809D01*
G01X27274415Y-11397085D01*
G01X27573986Y-11696656D01*
G01X27573986Y-11889486D01*
G01X27127200Y-11889486D01*
G01X27127200Y-11889486D01*
G01X27112551Y-11891265D01*
G01X27098752Y-11896498D01*
G01X27086608Y-11904881D01*
G01X27076822Y-11915926D01*
G01X27069964Y-11928993D01*
G01X27066432Y-11943321D01*
G01X27066432Y-11958079D01*
G01X27069964Y-11972407D01*
G01X27076822Y-11985474D01*
G01X27086608Y-11996519D01*
G01X27098752Y-12004902D01*
G01X27112551Y-12010135D01*
G01X27127200Y-12011914D01*
G01X27586686Y-12011914D01*
G01X27586686Y-12856549D01*
G01X27571700Y-12854686D01*
G01X27470100Y-12854686D01*
G01X27458158Y-12855862D01*
G01X27446674Y-12859346D01*
G01X27436091Y-12865002D01*
G01X27426815Y-12872615D01*
G01X27406644Y-12892786D01*
G01X27279600Y-12892786D01*
G01X27264951Y-12894565D01*
G01X27251152Y-12899798D01*
G01X27239008Y-12908181D01*
G01X27229222Y-12919226D01*
G01X27222364Y-12932293D01*
G01X27218832Y-12946621D01*
G01X27218832Y-12961379D01*
G01X27222364Y-12975707D01*
G01X27229222Y-12988774D01*
G01X27239008Y-12999819D01*
G01X27251152Y-13008202D01*
G01X27264951Y-13013435D01*
G01X27279600Y-13015214D01*
G01X27432000Y-13015214D01*
G01X27443942Y-13014038D01*
G01X27455426Y-13010554D01*
G01X27466009Y-13004898D01*
G01X27475285Y-12997285D01*
G01X27495456Y-12977114D01*
G01X27571700Y-12977114D01*
G01X27586686Y-12975251D01*
G01X27586686Y-13251405D01*
G01X27534875Y-13303216D01*
G01X27521615Y-13307568D01*
G01X27509770Y-13314946D01*
G01X27500016Y-13324927D01*
G01X27492913Y-13336939D01*
G01X27488868Y-13350296D01*
G01X27488112Y-13364230D01*
G01X27490688Y-13377946D01*
G01X27496449Y-13390657D01*
G01X27505066Y-13401634D01*
G01X27516043Y-13410251D01*
G01X27528754Y-13416012D01*
G01X27542470Y-13418588D01*
G01X27556404Y-13417832D01*
G01X27569761Y-13413787D01*
G01X27581773Y-13406684D01*
G01X27591754Y-13396930D01*
G01X27599132Y-13385085D01*
G01X27603484Y-13371825D01*
G01X27669505Y-13305805D01*
G01X27677214Y-13295757D01*
G01X27682061Y-13284056D01*
G01X27683714Y-13271500D01*
G01X27683714Y-12132313D01*
G01X27688495Y-12140848D01*
G01X27694636Y-12148463D01*
G01X27694636Y-13660435D01*
G01X27659270Y-13695801D01*
G01X27644368Y-13698090D01*
G01X27630552Y-13704124D01*
G01X27618743Y-13713497D01*
G01X27609733Y-13725585D01*
G01X27604123Y-13739579D01*
G01X27602288Y-13754543D01*
G01X27604350Y-13769478D01*
G01X27610173Y-13783385D01*
G01X27619366Y-13795334D01*
G01X27631315Y-13804527D01*
G01X27645222Y-13810350D01*
G01X27660157Y-13812412D01*
G01X27675121Y-13810577D01*
G01X27689115Y-13804967D01*
G01X27701203Y-13795957D01*
G01X27710576Y-13784148D01*
G01X27716610Y-13770332D01*
G01X27718899Y-13755430D01*
G01X27766614Y-13707714D01*
G01X27773315Y-13698982D01*
G01X27777527Y-13688813D01*
G01X27778964Y-13677900D01*
G01X27778964Y-13120046D01*
G01X28122994Y-13120046D01*
G01X28125190Y-13134981D01*
G01X28131147Y-13148852D01*
G01X28140464Y-13160729D01*
G01X28152519Y-13169817D01*
G01X28166502Y-13175505D01*
G01X28181477Y-13177414D01*
G01X28196440Y-13175414D01*
G01X28189884Y-13188383D01*
G01X28186739Y-13202570D01*
G01X28187199Y-13217094D01*
G01X28191236Y-13231053D01*
G01X28198599Y-13243581D01*
G01X28208831Y-13253900D01*
G01X28221296Y-13261368D01*
G01X28235221Y-13265522D01*
G01X28249741Y-13266104D01*
G01X28263954Y-13263079D01*
G01X28276977Y-13256633D01*
G01X28288002Y-13247167D01*
G01X28296345Y-13235269D01*
G01X28301487Y-13221678D01*
G01X28303109Y-13207238D01*
G01X28301110Y-13192845D01*
G01X28295615Y-13179393D01*
G01X28286964Y-13167717D01*
G01X28286964Y-12886582D01*
G01X28294748Y-12876395D01*
G01X28300117Y-12864752D01*
G01X28302813Y-12852218D01*
G01X28302704Y-12839397D01*
G01X28299796Y-12826910D01*
G01X28294230Y-12815360D01*
G01X28286274Y-12805306D01*
G01X28276314Y-12797234D01*
G01X28264830Y-12791533D01*
G01X28252377Y-12788480D01*
G01X28239559Y-12788221D01*
G01X28226994Y-12790770D01*
G01X28217486Y-12781271D01*
G01X28206056Y-12774202D01*
G01X28193311Y-12769936D01*
G01X28179928Y-12768702D01*
G01X28166618Y-12770564D01*
G01X28154088Y-12775425D01*
G01X28143003Y-12783024D01*
G01X28143003Y-12783024D01*
G01X28133952Y-12792960D01*
G01X28127417Y-12804704D01*
G01X28123743Y-12817632D01*
G01X28123127Y-12831057D01*
G01X28125601Y-12844267D01*
G01X28131034Y-12856560D01*
G01X28139136Y-12867283D01*
G01X28139136Y-13078817D01*
G01X28130208Y-13090990D01*
G01X28124705Y-13105047D01*
G01X28122994Y-13120046D01*
G01X27778964Y-13120046D01*
G01X27778964Y-12148463D01*
G01X27787573Y-12136861D01*
G01X27793066Y-12123498D01*
G01X27795105Y-12109195D01*
G01X27793565Y-12094830D01*
G01X27788541Y-12081284D01*
G01X27780341Y-12069389D01*
G01X27769468Y-12059875D01*
G01X27756590Y-12053327D01*
G01X27742497Y-12050145D01*
G01X27728054Y-12050525D01*
G01X27714148Y-12054445D01*
G01X27701633Y-12061663D01*
G01X27691276Y-12071737D01*
G01X27683714Y-12084047D01*
G01X27683714Y-11999214D01*
G01X28600400Y-11999214D01*
G01X28612342Y-11998038D01*
G01X28623826Y-11994554D01*
G01X28634409Y-11988898D01*
G01X28643685Y-11981285D01*
G01X28718285Y-11906685D01*
G01X28725897Y-11897409D01*
G01X28731554Y-11886826D01*
G01X28735038Y-11875342D01*
G01X28736214Y-11863400D01*
G01X28736214Y-11747500D01*
G01X28734435Y-11732851D01*
G01X28729202Y-11719052D01*
G01X28720819Y-11706908D01*
G01X28709773Y-11697122D01*
G01X28696707Y-11690264D01*
G01X28682378Y-11686732D01*
G01X28667621Y-11686732D01*
G01X28653293Y-11690264D01*
G01X28640226Y-11697122D01*
G01X28629180Y-11706908D01*
G01X28620797Y-11719052D01*
G01X28615565Y-11732851D01*
G01X28613786Y-11747500D01*
G01X28613786Y-11838045D01*
G01X28575044Y-11876786D01*
G01X27696414Y-11876786D01*
G01X27696414Y-11671300D01*
G01X27695238Y-11659358D01*
G01X27691754Y-11647874D01*
G01X27686098Y-11637291D01*
G01X27678485Y-11628015D01*
G01X27378914Y-11328444D01*
G01X27378914Y-11128896D01*
G01X27535998Y-11128896D01*
G01X27538658Y-11143411D01*
G01X27544714Y-11156868D01*
G01X27553815Y-11168485D01*
G01X27898385Y-11513055D01*
G01X27909086Y-11521591D01*
G01X27921416Y-11527536D01*
G01X27728865Y-11527536D01*
G01X27680799Y-11479470D01*
G01X27678510Y-11464568D01*
G01X27672476Y-11450752D01*
G01X27663103Y-11438943D01*
G01X27651015Y-11429933D01*
G01X27637021Y-11424323D01*
G01X27622057Y-11422488D01*
G01X27607122Y-11424550D01*
G01X27593215Y-11430373D01*
G01X27581266Y-11439566D01*
G01X27572073Y-11451515D01*
G01X27566250Y-11465422D01*
G01X27564188Y-11480357D01*
G01X27566023Y-11495321D01*
G01X27571633Y-11509315D01*
G01X27580643Y-11521403D01*
G01X27592452Y-11530776D01*
G01X27606268Y-11536810D01*
G01X27621170Y-11539099D01*
G01X27681586Y-11599514D01*
G01X27690318Y-11606215D01*
G01X27700487Y-11610427D01*
G01X27711400Y-11611864D01*
G01X28935816Y-11611864D01*
G01X28935801Y-11612420D01*
G01X28859020Y-11689201D01*
G01X28844119Y-11691490D01*
G01X28830302Y-11697524D01*
G01X28818494Y-11706897D01*
G01X28809483Y-11718985D01*
G01X28803873Y-11732979D01*
G01X28802038Y-11747943D01*
G01X28804100Y-11762878D01*
G01X28809923Y-11776785D01*
G01X28819116Y-11788734D01*
G01X28831065Y-11797927D01*
G01X28844972Y-11803750D01*
G01X28859907Y-11805812D01*
G01X28874871Y-11803977D01*
G01X28888865Y-11798367D01*
G01X28900953Y-11789357D01*
G01X28910326Y-11777548D01*
G01X28916360Y-11763732D01*
G01X28918649Y-11748830D01*
G01X28995430Y-11672049D01*
G01X29010563Y-11669692D01*
G01X29024560Y-11663477D01*
G01X29036456Y-11653832D01*
G01X29045430Y-11641422D01*
G01X29050865Y-11627103D01*
G01X29052384Y-11611864D01*
G01X29908500Y-11611864D01*
G01X29919413Y-11610427D01*
G01X29929582Y-11606215D01*
G01X29938314Y-11599514D01*
G01X30615485Y-10922344D01*
G01X30702697Y-10922344D01*
G01X30714853Y-10931262D01*
G01X30728889Y-10936766D01*
G01X30743867Y-10938488D01*
G01X30758786Y-10936311D01*
G01X30772648Y-10930383D01*
G01X30784527Y-10921100D01*
G01X30793629Y-10909081D01*
G01X30799345Y-10895130D01*
G01X30801294Y-10880180D01*
G01X30799345Y-10865230D01*
G01X30793629Y-10851279D01*
G01X30784527Y-10839261D01*
G01X30772648Y-10829977D01*
G01X30758786Y-10824049D01*
G01X30743867Y-10821873D01*
G01X30728889Y-10823594D01*
G01X30714853Y-10829098D01*
G01X30702697Y-10838016D01*
G01X30598020Y-10838016D01*
G01X30587107Y-10839453D01*
G01X30576938Y-10843665D01*
G01X30568205Y-10850366D01*
G01X29891035Y-11527536D01*
G01X29008746Y-11527536D01*
G01X29019221Y-11523922D01*
G01X29028873Y-11518479D01*
G01X29037385Y-11511385D01*
G01X29443785Y-11104985D01*
G01X29451398Y-11095709D01*
G01X29457054Y-11085126D01*
G01X29460538Y-11073642D01*
G01X29461714Y-11061700D01*
G01X29461714Y-9626556D01*
G01X29685085Y-9403185D01*
G01X29692698Y-9393909D01*
G01X29698354Y-9383326D01*
G01X29701838Y-9371842D01*
G01X29702127Y-9368904D01*
G01X29999798Y-9368904D01*
G01X30000689Y-9383634D01*
G01X30005079Y-9397723D01*
G01X30012713Y-9410352D01*
G01X30023148Y-9420787D01*
G01X30035777Y-9428421D01*
G01X30049866Y-9432811D01*
G01X30064596Y-9433702D01*
G01X30079111Y-9431042D01*
G01X30092568Y-9424986D01*
G01X30104185Y-9415885D01*
G01X30111656Y-9408414D01*
G01X31145750Y-9408414D01*
G01X31155053Y-9420507D01*
G01X31165864Y-9431271D01*
G01X31145579Y-9440544D01*
G01X31127084Y-9453013D01*
G01X31110880Y-9468340D01*
G01X31097403Y-9486112D01*
G01X31087017Y-9505851D01*
G01X31080002Y-9527024D01*
G01X31076546Y-9549059D01*
G01X31076744Y-9571362D01*
G01X31080590Y-9593333D01*
G01X31087979Y-9614378D01*
G01X31098714Y-9633929D01*
G01X31112504Y-9651460D01*
G01X31128977Y-9666497D01*
G01X31147689Y-9678636D01*
G01X31168136Y-9687548D01*
G01X31189766Y-9692993D01*
G01X31211995Y-9694824D01*
G01X31271995Y-9694824D01*
G01X31294224Y-9692993D01*
G01X31315854Y-9687548D01*
G01X31336300Y-9678636D01*
G01X31355013Y-9666497D01*
G01X31371486Y-9651460D01*
G01X31385276Y-9633929D01*
G01X31396010Y-9614378D01*
G01X31403400Y-9593333D01*
G01X31407246Y-9571362D01*
G01X31407444Y-9549059D01*
G01X31403988Y-9527024D01*
G01X31396973Y-9505851D01*
G01X31386586Y-9486112D01*
G01X31373110Y-9468340D01*
G01X31356905Y-9453013D01*
G01X31338411Y-9440544D01*
G01X31318126Y-9431271D01*
G01X31330907Y-9418209D01*
G01X31341473Y-9403298D01*
G01X31349563Y-9386911D01*
G01X31354974Y-9369455D01*
G01X31357572Y-9351366D01*
G01X31357291Y-9333092D01*
G01X31354140Y-9315091D01*
G01X31348196Y-9297809D01*
G01X31339608Y-9281678D01*
G01X31328589Y-9267099D01*
G01X31315413Y-9254434D01*
G01X31300410Y-9244000D01*
G01X31316812Y-9232400D01*
G01X31330963Y-9218141D01*
G01X31342437Y-9201650D01*
G01X31350889Y-9183425D01*
G01X31356064Y-9164014D01*
G01X31357806Y-9144000D01*
G01X31356064Y-9123986D01*
G01X31350889Y-9104575D01*
G01X31342437Y-9086350D01*
G01X31330963Y-9069859D01*
G01X31316812Y-9055600D01*
G01X31300410Y-9044000D01*
G01X31316692Y-9032502D01*
G01X31330761Y-9018383D01*
G01X31342201Y-9002060D01*
G01X31350673Y-8984017D01*
G01X31355925Y-8964789D01*
G01X31357802Y-8944945D01*
G01X31356249Y-8925073D01*
G01X31351311Y-8905762D01*
G01X31343135Y-8887583D01*
G01X31331963Y-8871076D01*
G01X31318126Y-8856729D01*
G01X31338411Y-8847456D01*
G01X31356905Y-8834987D01*
G01X31373110Y-8819660D01*
G01X31386586Y-8801888D01*
G01X31396973Y-8782149D01*
G01X31403988Y-8760976D01*
G01X31407444Y-8738941D01*
G01X31407246Y-8716638D01*
G01X31403400Y-8694667D01*
G01X31396010Y-8673622D01*
G01X31385276Y-8654071D01*
G01X31371486Y-8636540D01*
G01X31355013Y-8621503D01*
G01X31336300Y-8609364D01*
G01X31315854Y-8600452D01*
G01X31294224Y-8595007D01*
G01X31271995Y-8593176D01*
G01X31271995Y-8593176D01*
G01X31211995Y-8593176D01*
G01X31189766Y-8595007D01*
G01X31168136Y-8600452D01*
G01X31147689Y-8609364D01*
G01X31128977Y-8621503D01*
G01X31112504Y-8636540D01*
G01X31098714Y-8654071D01*
G01X31087979Y-8673622D01*
G01X31080590Y-8694667D01*
G01X31076744Y-8716638D01*
G01X31076546Y-8738941D01*
G01X31080002Y-8760976D01*
G01X31087017Y-8782149D01*
G01X31097403Y-8801888D01*
G01X31110880Y-8819660D01*
G01X31127084Y-8834987D01*
G01X31145579Y-8847456D01*
G01X31165864Y-8856729D01*
G01X31152027Y-8871076D01*
G01X31140855Y-8887583D01*
G01X31132679Y-8905762D01*
G01X31127741Y-8925073D01*
G01X31126187Y-8944945D01*
G01X31128065Y-8964789D01*
G01X31133317Y-8984017D01*
G01X31141788Y-9002060D01*
G01X31153228Y-9018383D01*
G01X31167298Y-9032502D01*
G01X31183580Y-9044000D01*
G01X31167178Y-9055600D01*
G01X31153026Y-9069859D01*
G01X31141553Y-9086350D01*
G01X31133101Y-9104575D01*
G01X31127926Y-9123986D01*
G01X31126184Y-9144000D01*
G01X31127926Y-9164014D01*
G01X31133101Y-9183425D01*
G01X31141553Y-9201650D01*
G01X31153026Y-9218141D01*
G01X31167178Y-9232400D01*
G01X31183580Y-9244000D01*
G01X31167284Y-9255509D01*
G01X31153206Y-9269644D01*
G01X31141762Y-9285986D01*
G01X30086300Y-9285986D01*
G01X30074358Y-9287162D01*
G01X30062874Y-9290646D01*
G01X30052291Y-9296302D01*
G01X30043015Y-9303915D01*
G01X30017615Y-9329315D01*
G01X30008514Y-9340932D01*
G01X30002458Y-9354389D01*
G01X29999798Y-9368904D01*
G01X29702127Y-9368904D01*
G01X29703014Y-9359900D01*
G01X29703014Y-8846718D01*
G01X29701235Y-8832069D01*
G01X29696002Y-8818271D01*
G01X29687619Y-8806126D01*
G01X29676574Y-8796340D01*
G01X29663507Y-8789482D01*
G01X29649179Y-8785951D01*
G01X29634421Y-8785951D01*
G01X29620093Y-8789482D01*
G01X29607026Y-8796340D01*
G01X29595981Y-8806126D01*
G01X29587598Y-8818271D01*
G01X29582365Y-8832069D01*
G01X29580586Y-8846718D01*
G01X29580586Y-9334544D01*
G01X29357215Y-9557915D01*
G01X29349602Y-9567191D01*
G01X29343946Y-9577774D01*
G01X29340462Y-9589258D01*
G01X29339286Y-9601200D01*
G01X29339286Y-11036344D01*
G01X29339286Y-11036344D01*
G01X28968744Y-11406886D01*
G01X27965356Y-11406886D01*
G01X27640385Y-11081915D01*
G01X27628768Y-11072814D01*
G01X27615311Y-11066758D01*
G01X27600796Y-11064098D01*
G01X27586066Y-11064989D01*
G01X27571977Y-11069379D01*
G01X27559348Y-11077013D01*
G01X27548913Y-11087448D01*
G01X27541279Y-11100077D01*
G01X27536889Y-11114166D01*
G01X27535998Y-11128896D01*
G01X27378914Y-11128896D01*
G01X27378914Y-10820400D01*
G01X27377115Y-10805667D01*
G01X27371822Y-10791800D01*
G01X27363347Y-10779614D01*
G01X27791080Y-10779614D01*
G01X27780674Y-10794353D01*
G01X27773216Y-10810782D01*
G01X27768970Y-10828318D01*
G01X27768087Y-10846338D01*
G01X27770598Y-10864205D01*
G01X27776413Y-10881284D01*
G01X27785328Y-10896970D01*
G01X27797024Y-10910707D01*
G01X27811089Y-10922008D01*
G01X27796459Y-10933862D01*
G01X27784430Y-10948350D01*
G01X27775466Y-10964910D01*
G01X27769915Y-10982903D01*
G01X27767989Y-11001635D01*
G01X27769765Y-11020382D01*
G01X27775173Y-11038419D01*
G01X27784004Y-11055050D01*
G01X27795917Y-11069633D01*
G01X27810452Y-11081604D01*
G01X27827048Y-11090501D01*
G01X27845063Y-11095981D01*
G01X27863803Y-11097831D01*
G01X27882542Y-11095981D01*
G01X27900557Y-11090501D01*
G01X27917153Y-11081604D01*
G01X27931688Y-11069633D01*
G01X27943601Y-11055050D01*
G01X27952432Y-11038419D01*
G01X27957840Y-11020382D01*
G01X27959616Y-11001635D01*
G01X27957690Y-10982903D01*
G01X27952139Y-10964910D01*
G01X27943175Y-10948350D01*
G01X27931146Y-10933862D01*
G01X27916516Y-10922008D01*
G01X27930581Y-10910707D01*
G01X27942278Y-10896970D01*
G01X27951192Y-10881284D01*
G01X27957007Y-10864205D01*
G01X27959518Y-10846338D01*
G01X27958635Y-10828318D01*
G01X27954389Y-10810782D01*
G01X27946931Y-10794353D01*
G01X27936525Y-10779614D01*
G01X28311492Y-10779614D01*
G01X28367386Y-10835508D01*
G01X28376118Y-10842208D01*
G01X28386287Y-10846421D01*
G01X28397200Y-10847857D01*
G01X28534717Y-10847857D01*
G01X28545261Y-10855855D01*
G01X28557337Y-10861268D01*
G01X28570323Y-10863820D01*
G01X28583550Y-10863377D01*
G01X28596336Y-10859964D01*
G01X28596336Y-10881717D01*
G01X28587899Y-10893017D01*
G01X28582421Y-10906012D01*
G01X28580222Y-10919942D01*
G01X28581432Y-10933992D01*
G01X28585980Y-10947341D01*
G01X28593599Y-10959208D01*
G01X28603844Y-10968899D01*
G01X28616116Y-10975847D01*
G01X28629697Y-10979646D01*
G01X28643793Y-10980073D01*
G01X28657580Y-10977104D01*
G01X28670250Y-10970913D01*
G01X28682920Y-10977104D01*
G01X28696707Y-10980073D01*
G01X28710803Y-10979646D01*
G01X28724384Y-10975847D01*
G01X28736656Y-10968899D01*
G01X28746901Y-10959208D01*
G01X28754520Y-10947341D01*
G01X28759068Y-10933992D01*
G01X28760278Y-10919942D01*
G01X28758079Y-10906012D01*
G01X28752601Y-10893017D01*
G01X28744164Y-10881717D01*
G01X28744164Y-9881838D01*
G01X28752651Y-9884449D01*
G01X28761436Y-9885740D01*
G01X28761436Y-10883900D01*
G01X28762873Y-10894813D01*
G01X28767085Y-10904982D01*
G01X28773786Y-10913714D01*
G01X28808801Y-10948730D01*
G01X28810759Y-10962441D01*
G01X28815895Y-10975303D01*
G01X28823920Y-10986592D01*
G01X28834380Y-10995669D01*
G01X28846686Y-11002024D01*
G01X28860143Y-11005298D01*
G01X28873993Y-11005305D01*
G01X28887454Y-11002046D01*
G01X28899767Y-10995705D01*
G01X28910238Y-10986639D01*
G01X28921826Y-10995398D01*
G01X28935220Y-11001021D01*
G01X28949588Y-11003159D01*
G01X28964039Y-11001679D01*
G01X28977675Y-10996674D01*
G01X28989652Y-10988453D01*
G01X28999225Y-10977528D01*
G01X29005800Y-10964575D01*
G01X29008970Y-10950398D01*
G01X29008538Y-10935879D01*
G01X29004531Y-10921916D01*
G01X28997196Y-10909377D01*
G01X29009353Y-10900308D01*
G01X29018759Y-10888411D01*
G01X29024779Y-10874490D01*
G01X29027006Y-10859488D01*
G01X29025289Y-10844419D01*
G01X29019743Y-10830303D01*
G01X29010746Y-10818093D01*
G01X28998904Y-10808618D01*
G01X28985019Y-10802516D01*
G01X28970030Y-10800201D01*
G01X28934664Y-10764835D01*
G01X28934664Y-10149483D01*
G01X28942931Y-10138479D01*
G01X28948388Y-10125844D01*
G01X28950733Y-10112282D01*
G01X28949833Y-10098548D01*
G01X28945739Y-10085407D01*
G01X28938680Y-10073592D01*
G01X28929048Y-10063760D01*
G01X28917380Y-10056460D01*
G01X28904326Y-10052098D01*
G01X28890614Y-10050916D01*
G01X28890614Y-9817900D01*
G01X28889454Y-9808077D01*
G01X28886038Y-9798796D01*
G01X28880553Y-9790565D01*
G01X28878797Y-9777452D01*
G01X28874130Y-9765073D01*
G01X28866793Y-9754064D01*
G01X28857163Y-9744992D01*
G01X28845736Y-9738325D01*
G01X28833101Y-9734404D01*
G01X28819907Y-9733433D01*
G01X28806833Y-9735461D01*
G01X28794553Y-9740383D01*
G01X28783699Y-9747947D01*
G01X28774828Y-9757763D01*
G01X28768399Y-9769326D01*
G01X28756070Y-9770021D01*
G01X28744164Y-9773297D01*
G01X28744164Y-8970965D01*
G01X29036965Y-8678164D01*
G01X29957117Y-8678164D01*
G01X29969273Y-8687082D01*
G01X29983309Y-8692586D01*
G01X29998287Y-8694307D01*
G01X30013205Y-8692131D01*
G01X30027067Y-8686203D01*
G01X30038947Y-8676920D01*
G01X30048049Y-8664901D01*
G01X30053765Y-8650950D01*
G01X30055714Y-8636000D01*
G01X30053765Y-8621050D01*
G01X30048049Y-8607099D01*
G01X30038947Y-8595080D01*
G01X30027067Y-8585797D01*
G01X30013205Y-8579869D01*
G01X29998287Y-8577693D01*
G01X29983309Y-8579414D01*
G01X29969273Y-8584918D01*
G01X29957117Y-8593836D01*
G01X29019500Y-8593836D01*
G01X29008587Y-8595273D01*
G01X28998418Y-8599485D01*
G01X28989686Y-8606186D01*
G01X28672186Y-8923686D01*
G01X28665485Y-8932418D01*
G01X28661273Y-8942587D01*
G01X28659836Y-8953500D01*
G01X28659836Y-9581016D01*
G01X28659280Y-9581001D01*
G01X28623730Y-9545451D01*
G01X28634373Y-9534559D01*
G01X28641833Y-9521282D01*
G01X28645601Y-9506526D01*
G01X28645420Y-9491298D01*
G01X28641302Y-9476636D01*
G01X28633528Y-9463540D01*
G01X28633528Y-8641478D01*
G01X28641230Y-8628550D01*
G01X28645367Y-8614082D01*
G01X28645664Y-8599037D01*
G01X28642101Y-8584416D01*
G01X28634915Y-8571195D01*
G01X28624585Y-8560252D01*
G01X28611799Y-8552317D01*
G01X28597408Y-8547918D01*
G01X28582371Y-8547348D01*
G01X28567689Y-8550645D01*
G01X28554339Y-8557590D01*
G01X28543210Y-8567720D01*
G01X28535045Y-8580360D01*
G01X28530385Y-8594668D01*
G01X28529543Y-8609693D01*
G01X28532573Y-8624433D01*
G01X28539274Y-8637906D01*
G01X28549200Y-8649217D01*
G01X28549200Y-9455802D01*
G01X28541849Y-9463570D01*
G01X28248864Y-9170585D01*
G01X28248864Y-8650883D01*
G01X28257782Y-8638727D01*
G01X28263286Y-8624691D01*
G01X28265007Y-8609713D01*
G01X28262831Y-8594795D01*
G01X28256903Y-8580933D01*
G01X28247620Y-8569053D01*
G01X28235601Y-8559951D01*
G01X28221650Y-8554235D01*
G01X28206700Y-8552286D01*
G01X28191750Y-8554235D01*
G01X28177799Y-8559951D01*
G01X28165780Y-8569053D01*
G01X28156497Y-8580933D01*
G01X28150569Y-8594795D01*
G01X28148393Y-8609713D01*
G01X28150114Y-8624691D01*
G01X28155618Y-8638727D01*
G01X28164536Y-8650883D01*
G01X28164536Y-9188050D01*
G01X28165973Y-9198963D01*
G01X28170185Y-9209132D01*
G01X28176886Y-9217865D01*
G01X28599651Y-9640630D01*
G01X28602008Y-9655763D01*
G01X28608223Y-9669760D01*
G01X28617868Y-9681656D01*
G01X28630278Y-9690630D01*
G01X28644597Y-9696065D01*
G01X28659836Y-9697584D01*
G01X28659836Y-9820325D01*
G01X28650800Y-9810712D01*
G01X28639835Y-9803375D01*
G01X28627501Y-9798692D01*
G01X28614430Y-9796901D01*
G01X28388914Y-9571386D01*
G01X28380182Y-9564685D01*
G01X28370013Y-9560473D01*
G01X28359100Y-9559036D01*
G01X27269083Y-9559036D01*
G01X27256927Y-9550118D01*
G01X27242891Y-9544614D01*
G01X27227913Y-9542893D01*
G01X27212995Y-9545069D01*
G01X27199133Y-9550997D01*
G01X27187253Y-9560280D01*
G01X27178151Y-9572299D01*
G01X27172435Y-9586250D01*
G01X27170486Y-9601200D01*
G01X27172435Y-9616150D01*
G01X27178151Y-9630101D01*
G01X27187253Y-9642120D01*
G01X27199133Y-9651403D01*
G01X27212995Y-9657331D01*
G01X27227913Y-9659507D01*
G01X27242891Y-9657786D01*
G01X27256927Y-9652282D01*
G01X27269083Y-9643364D01*
G01X28341635Y-9643364D01*
G01X28554801Y-9856530D01*
G01X28556908Y-9870787D01*
G01X28562446Y-9884092D01*
G01X28571079Y-9895632D01*
G01X28582277Y-9904703D01*
G01X28595359Y-9910750D01*
G01X28609524Y-9913404D01*
G01X28623907Y-9912504D01*
G01X28637631Y-9908103D01*
G01X28649856Y-9900472D01*
G01X28659836Y-9890075D01*
G01X28659836Y-9994818D01*
G01X28655962Y-9983327D01*
G01X28649796Y-9972886D01*
G01X28641604Y-9963946D01*
G01X28631739Y-9956894D01*
G01X28620630Y-9952034D01*
G01X28608755Y-9949577D01*
G01X28604013Y-9936910D01*
G01X28596481Y-9925677D01*
G01X28586564Y-9916480D01*
G01X28574795Y-9909816D01*
G01X28561807Y-9906043D01*
G01X28558832Y-9893236D01*
G01X28553064Y-9881422D01*
G01X28544796Y-9871200D01*
G01X28534448Y-9863090D01*
G01X28522546Y-9857504D01*
G01X28509695Y-9854726D01*
G01X28505419Y-9842986D01*
G01X28498740Y-9832427D01*
G01X28489964Y-9823532D01*
G01X28479495Y-9816712D01*
G01X28467814Y-9812278D01*
G01X28455456Y-9810434D01*
G01X28453148Y-9796592D01*
G01X28447600Y-9783703D01*
G01X28439134Y-9772512D01*
G01X28428239Y-9763668D01*
G01X28415547Y-9757682D01*
G01X28401793Y-9754902D01*
G01X28387772Y-9755488D01*
G01X28374298Y-9759406D01*
G01X28362150Y-9766430D01*
G01X28352031Y-9776153D01*
G01X28344528Y-9788011D01*
G01X28340075Y-9801318D01*
G01X28338930Y-9815304D01*
G01X28341159Y-9829158D01*
G01X28346634Y-9842079D01*
G01X28355036Y-9853318D01*
G01X28355036Y-10477500D01*
G01X28356473Y-10488413D01*
G01X28360685Y-10498582D01*
G01X28367386Y-10507314D01*
G01X28425608Y-10565537D01*
G01X28417708Y-10563144D01*
G01X28409494Y-10562336D01*
G01X27112749Y-10562336D01*
G01X27122270Y-10552015D01*
G01X27129048Y-10539718D01*
G01X27132689Y-10526157D01*
G01X27132984Y-10512118D01*
G01X27129914Y-10498416D01*
G01X27123658Y-10485845D01*
G01X27114578Y-10475134D01*
G01X27103201Y-10466904D01*
G01X27090187Y-10461632D01*
G01X27076289Y-10459624D01*
G01X26964879Y-10348214D01*
G01X27234544Y-10348214D01*
G01X27246021Y-10354148D01*
G01X27258523Y-10357409D01*
G01X27271436Y-10357837D01*
G01X27284126Y-10355412D01*
G01X27295971Y-10350251D01*
G01X27294645Y-10365879D01*
G01X27297333Y-10381332D01*
G01X27303860Y-10395594D01*
G01X27313797Y-10407730D01*
G01X27326491Y-10416942D01*
G01X27341110Y-10422625D01*
G01X27356693Y-10424407D01*
G01X27372218Y-10422171D01*
G01X27386665Y-10416063D01*
G01X27399085Y-10406485D01*
G01X28035605Y-9769964D01*
G01X28117800Y-9769964D01*
G01X28132449Y-9768185D01*
G01X28146248Y-9762953D01*
G01X28158392Y-9754570D01*
G01X28168178Y-9743524D01*
G01X28175036Y-9730457D01*
G01X28178568Y-9716129D01*
G01X28178568Y-9701372D01*
G01X28175036Y-9687043D01*
G01X28168178Y-9673977D01*
G01X28158392Y-9662931D01*
G01X28146248Y-9654548D01*
G01X28132449Y-9649315D01*
G01X28117800Y-9647536D01*
G01X28010250Y-9647536D01*
G01X27998308Y-9648712D01*
G01X27986824Y-9652196D01*
G01X27976241Y-9657853D01*
G01X27966965Y-9665465D01*
G01X27496555Y-10135875D01*
G01X27501328Y-10123122D01*
G01X27503013Y-10109610D01*
G01X27501518Y-10096075D01*
G01X27496925Y-10083256D01*
G01X27489485Y-10071852D01*
G01X27479602Y-10062484D01*
G01X27467817Y-10055664D01*
G01X27454771Y-10051762D01*
G01X27441176Y-10050992D01*
G01X27427773Y-10053397D01*
G01X27415293Y-10058843D01*
G01X27404417Y-10067036D01*
G01X27078583Y-10067036D01*
G01X27066928Y-10058397D01*
G01X27053501Y-10052902D01*
G01X27039133Y-10050892D01*
G01X27024713Y-10052491D01*
G01X27011134Y-10057600D01*
G01X26999237Y-10065903D01*
G01X26989758Y-10076886D01*
G01X26983283Y-10089869D01*
G01X26980214Y-10104049D01*
G01X26980740Y-10118547D01*
G01X26968966Y-10124445D01*
G01X26958815Y-10132833D01*
G01X26950806Y-10143286D01*
G01X26945346Y-10155269D01*
G01X26942714Y-10168172D01*
G01X26943044Y-10181336D01*
G01X26926183Y-10181336D01*
G01X26915224Y-10173095D01*
G01X26902644Y-10167642D01*
G01X26889139Y-10165276D01*
G01X26875454Y-10166129D01*
G01X26862347Y-10170154D01*
G01X26850541Y-10177129D01*
G01X26840691Y-10186667D01*
G01X26833340Y-10198241D01*
G01X26828895Y-10211212D01*
G01X26827602Y-10224862D01*
G01X26829531Y-10238437D01*
G01X26834577Y-10251186D01*
G01X26740456Y-10251186D01*
G01X26727263Y-10244624D01*
G01X26712846Y-10241579D01*
G01X26698127Y-10242245D01*
G01X26684044Y-10246579D01*
G01X26671496Y-10254305D01*
G01X26661286Y-10264929D01*
G01X26654065Y-10277773D01*
G01X26650294Y-10292017D01*
G01X26650214Y-10306752D01*
G01X26653829Y-10321036D01*
G01X26573165Y-10321036D01*
G01X26508964Y-10256835D01*
G01X26508964Y-9455110D01*
G01X27018428Y-9455110D01*
G01X27021588Y-9468703D01*
G01X27027886Y-9481156D01*
G01X27027886Y-9664700D01*
G01X27029539Y-9677256D01*
G01X27034386Y-9688957D01*
G01X27042095Y-9699005D01*
G01X27092496Y-9749405D01*
G01X27102543Y-9757115D01*
G01X27114244Y-9761961D01*
G01X27126800Y-9763614D01*
G01X27488440Y-9763614D01*
G01X27501821Y-9766714D01*
G01X27515557Y-9766598D01*
G01X27528885Y-9763272D01*
G01X27541065Y-9756921D01*
G01X27551421Y-9747897D01*
G01X27559379Y-9736701D01*
G01X27564497Y-9723954D01*
G01X27566492Y-9710363D01*
G01X27565252Y-9696683D01*
G01X27560846Y-9683672D01*
G01X27553520Y-9672053D01*
G01X27543678Y-9662470D01*
G01X27531868Y-9655455D01*
G01X27518745Y-9651397D01*
G01X27505037Y-9650522D01*
G01X27491504Y-9652877D01*
G01X27478897Y-9658333D01*
G01X27467917Y-9666586D01*
G01X27146895Y-9666586D01*
G01X27146895Y-9666586D01*
G01X27124914Y-9644605D01*
G01X27124914Y-9481156D01*
G01X27131212Y-9468703D01*
G01X27134372Y-9455110D01*
G01X27134211Y-9441156D01*
G01X27130739Y-9427639D01*
G01X27124155Y-9415334D01*
G01X27114837Y-9404946D01*
G01X27103317Y-9397070D01*
G01X27090255Y-9392156D01*
G01X27076400Y-9390486D01*
G01X27062545Y-9392156D01*
G01X27049483Y-9397070D01*
G01X27037963Y-9404946D01*
G01X27028645Y-9415334D01*
G01X27022061Y-9427639D01*
G01X27018589Y-9441156D01*
G01X27018428Y-9455110D01*
G01X26508964Y-9455110D01*
G01X26508964Y-9321800D01*
G01X26507527Y-9310887D01*
G01X26503315Y-9300718D01*
G01X26496614Y-9291986D01*
G01X26486999Y-9282370D01*
G01X26485041Y-9268661D01*
G01X26479907Y-9255800D01*
G01X26471884Y-9244513D01*
G01X26461427Y-9235435D01*
G01X26449123Y-9229079D01*
G01X26435668Y-9225804D01*
G01X26421820Y-9225793D01*
G01X26408360Y-9229048D01*
G01X26396047Y-9235385D01*
G01X26385576Y-9244447D01*
G01X26359071Y-9217943D01*
G01X26360013Y-9207218D01*
G01X26358968Y-9196504D01*
G01X26355971Y-9186164D01*
G01X27353617Y-9186164D01*
G01X27365773Y-9195082D01*
G01X27379809Y-9200586D01*
G01X27394787Y-9202307D01*
G01X27409705Y-9200131D01*
G01X27423567Y-9194203D01*
G01X27435447Y-9184920D01*
G01X27444549Y-9172901D01*
G01X27450265Y-9158950D01*
G01X27452214Y-9144000D01*
G01X27450265Y-9129050D01*
G01X27444549Y-9115099D01*
G01X27435447Y-9103080D01*
G01X27423567Y-9093797D01*
G01X27409705Y-9087869D01*
G01X27394787Y-9085693D01*
G01X27379809Y-9087414D01*
G01X27365773Y-9092918D01*
G01X27353617Y-9101836D01*
G01X25787268Y-9101836D01*
G01X25778737Y-9084456D01*
G01X25767430Y-9068741D01*
G01X25753662Y-9055129D01*
G01X25737820Y-9044000D01*
G01X25754102Y-9032502D01*
G01X25768172Y-9018383D01*
G01X25779612Y-9002060D01*
G01X25788083Y-8984017D01*
G01X25793335Y-8964789D01*
G01X25795213Y-8944945D01*
G01X25793659Y-8925073D01*
G01X25788721Y-8905762D01*
G01X25780545Y-8887583D01*
G01X25769373Y-8871076D01*
G01X25755536Y-8856729D01*
G01X25775821Y-8847456D01*
G01X25794316Y-8834987D01*
G01X25810520Y-8819660D01*
G01X25823997Y-8801888D01*
G01X25834383Y-8782149D01*
G01X25841398Y-8760976D01*
G01X25844854Y-8738941D01*
G01X25844656Y-8716638D01*
G01X25840810Y-8694667D01*
G01X25833421Y-8673622D01*
G01X25822686Y-8654071D01*
G01X25808896Y-8636540D01*
G01X25792423Y-8621503D01*
G01X25773711Y-8609364D01*
G01X25753264Y-8600452D01*
G01X25731634Y-8595007D01*
G01X25709405Y-8593176D01*
G01X25649405Y-8593176D01*
G01X25627176Y-8595007D01*
G01X25605546Y-8600452D01*
G01X25585100Y-8609364D01*
G01X25566387Y-8621503D01*
G01X25549914Y-8636540D01*
G01X25536124Y-8654071D01*
G01X25525390Y-8673622D01*
G01X25518000Y-8694667D01*
G01X25514154Y-8716638D01*
G01X25513956Y-8738941D01*
G01X25517412Y-8760976D01*
G01X25524427Y-8782149D01*
G01X25534814Y-8801888D01*
G01X25548290Y-8819660D01*
G01X25564495Y-8834987D01*
G01X25582989Y-8847456D01*
G01X25603274Y-8856729D01*
G01X25589437Y-8871076D01*
G01X25578265Y-8887583D01*
G01X25570089Y-8905762D01*
G01X25565151Y-8925073D01*
G01X25563598Y-8944945D01*
G01X25565475Y-8964789D01*
G01X25570727Y-8984017D01*
G01X25579199Y-9002060D01*
G01X25590639Y-9018383D01*
G01X25604708Y-9032502D01*
G01X25620990Y-9044000D01*
G01X25604588Y-9055600D01*
G01X25590437Y-9069859D01*
G01X25578963Y-9086350D01*
G01X25570511Y-9104575D01*
G01X25565336Y-9123986D01*
G01X25563594Y-9144000D01*
G01X25565336Y-9164014D01*
G01X25570511Y-9183425D01*
G01X25578963Y-9201650D01*
G01X25590437Y-9218141D01*
G01X25604588Y-9232400D01*
G01X25620990Y-9244000D01*
G01X25604708Y-9255498D01*
G01X25590639Y-9269617D01*
G01X25579199Y-9285940D01*
G01X25570727Y-9303983D01*
G01X25565475Y-9323211D01*
G01X25563598Y-9343055D01*
G01X25565151Y-9362927D01*
G01X25570089Y-9382238D01*
G01X25578265Y-9400417D01*
G01X25589437Y-9416924D01*
G01X25603274Y-9431271D01*
G01X25582989Y-9440544D01*
G01X25564495Y-9453013D01*
G01X25548290Y-9468340D01*
G01X25534814Y-9486112D01*
G01X25524427Y-9505851D01*
G01X25517412Y-9527024D01*
G01X25513956Y-9549059D01*
G01X25499314Y-9549059D01*
G01X25499314Y-8208679D01*
G01X27196058Y-8208679D01*
G01X27198634Y-8221891D01*
G01X27204171Y-8234160D01*
G01X27212373Y-8244833D01*
G01X27222804Y-8253341D01*
G01X27234908Y-8259230D01*
G01X27248040Y-8262188D01*
G01X27261500Y-8262055D01*
G01X27274571Y-8258840D01*
G01X27286556Y-8252714D01*
G01X27386944Y-8252714D01*
G01X27400394Y-8259364D01*
G01X27415096Y-8262362D01*
G01X27430077Y-8261510D01*
G01X27444344Y-8256863D01*
G01X27456953Y-8248729D01*
G01X27467069Y-8237647D01*
G01X27474022Y-8224351D01*
G01X27474022Y-8224351D01*
G01X27475718Y-8216900D01*
G01X29723186Y-8216900D01*
G01X29724856Y-8230755D01*
G01X29729770Y-8243817D01*
G01X29737646Y-8255337D01*
G01X29748034Y-8264655D01*
G01X29760339Y-8271239D01*
G01X29773856Y-8274711D01*
G01X29787810Y-8274872D01*
G01X29801403Y-8271712D01*
G01X29813856Y-8265414D01*
G01X30434944Y-8265414D01*
G01X30447397Y-8271712D01*
G01X30460990Y-8274872D01*
G01X30474944Y-8274711D01*
G01X30488461Y-8271239D01*
G01X30500766Y-8264655D01*
G01X30511154Y-8255337D01*
G01X30519030Y-8243817D01*
G01X30523944Y-8230755D01*
G01X30525614Y-8216900D01*
G01X30523944Y-8203045D01*
G01X30519030Y-8189983D01*
G01X30511154Y-8178463D01*
G01X30500766Y-8169145D01*
G01X30488461Y-8162561D01*
G01X30474944Y-8159089D01*
G01X30460990Y-8158928D01*
G01X30447397Y-8162088D01*
G01X30434944Y-8168386D01*
G01X29813856Y-8168386D01*
G01X29801403Y-8162088D01*
G01X29787810Y-8158928D01*
G01X29773856Y-8159089D01*
G01X29760339Y-8162561D01*
G01X29748034Y-8169145D01*
G01X29737646Y-8178463D01*
G01X29729770Y-8189983D01*
G01X29724856Y-8203045D01*
G01X29723186Y-8216900D01*
G01X29723186Y-8216900D01*
G01X27475718Y-8216900D01*
G01X27477352Y-8209720D01*
G01X27476839Y-8194724D01*
G01X27472516Y-8180356D01*
G01X27464670Y-8167566D01*
G01X27453820Y-8157201D01*
G01X27440685Y-8149949D01*
G01X27426134Y-8146288D01*
G01X27437458Y-8128994D01*
G01X27445373Y-8109898D01*
G01X27449604Y-8089664D01*
G01X27450003Y-8068996D01*
G01X27446556Y-8048614D01*
G01X27439384Y-8029226D01*
G01X27428736Y-8011508D01*
G01X27414983Y-7996076D01*
G01X27398602Y-7983467D01*
G01X27380165Y-7974120D01*
G01X27360312Y-7968359D01*
G01X27339735Y-7966386D01*
G01X27319149Y-7968270D01*
G01X27299272Y-7973943D01*
G01X27280794Y-7983210D01*
G01X27264358Y-7995748D01*
G01X27250537Y-8011120D01*
G01X27239812Y-8028791D01*
G01X27232556Y-8048147D01*
G01X27229020Y-8068514D01*
G01X27229329Y-8089183D01*
G01X27233472Y-8109436D01*
G01X27241303Y-8128566D01*
G01X27252552Y-8145909D01*
G01X27239231Y-8147840D01*
G01X27226707Y-8152774D01*
G01X27215648Y-8160448D01*
G01X27206643Y-8170453D01*
G01X27200172Y-8182256D01*
G01X27196580Y-8195228D01*
G01X27196058Y-8208679D01*
G01X25499314Y-8208679D01*
G01X25499314Y-8077200D01*
G01X26778693Y-8077200D01*
G01X26780580Y-8097562D01*
G01X26786176Y-8117231D01*
G01X26795291Y-8135536D01*
G01X26807614Y-8151855D01*
G01X26822727Y-8165631D01*
G01X26840113Y-8176396D01*
G01X26859181Y-8183784D01*
G01X26879282Y-8187541D01*
G01X26899731Y-8187541D01*
G01X26919832Y-8183784D01*
G01X26938901Y-8176396D01*
G01X26956287Y-8165631D01*
G01X26971399Y-8151855D01*
G01X26983723Y-8135536D01*
G01X26992838Y-8117231D01*
G01X26998434Y-8097562D01*
G01X27000321Y-8077200D01*
G01X26998434Y-8056838D01*
G01X26992838Y-8037169D01*
G01X26983723Y-8018864D01*
G01X26971399Y-8002545D01*
G01X26956287Y-7988769D01*
G01X26938901Y-7978004D01*
G01X26919832Y-7970616D01*
G01X26899731Y-7966859D01*
G01X26879282Y-7966859D01*
G01X26859181Y-7970616D01*
G01X26840113Y-7978004D01*
G01X26822727Y-7988769D01*
G01X26807614Y-8002545D01*
G01X26795291Y-8018864D01*
G01X26786176Y-8037169D01*
G01X26780580Y-8056838D01*
G01X26778693Y-8077200D01*
G01X26778693Y-8077200D01*
G01X25499314Y-8077200D01*
G01X25499314Y-7884414D01*
G01X29585024Y-7884414D01*
G01X29584486Y-7890600D01*
G01X29584486Y-8060600D01*
G01X29586239Y-8071667D01*
G01X29591326Y-8081651D01*
G01X29599249Y-8089574D01*
G01X29609233Y-8094661D01*
G01X29620300Y-8096414D01*
G01X29790300Y-8096414D01*
G01X29801367Y-8094661D01*
G01X29811351Y-8089574D01*
G01X29819274Y-8081651D01*
G01X29824361Y-8071667D01*
G01X29826114Y-8060600D01*
G01X29826114Y-7890600D01*
G01X29825576Y-7884414D01*
G01X29880047Y-7884414D01*
G01X29865511Y-7899445D01*
G01X29853784Y-7916757D01*
G01X29845219Y-7935832D01*
G01X29840070Y-7956099D01*
G01X29838494Y-7976949D01*
G01X29840536Y-7997759D01*
G01X29846135Y-8017905D01*
G01X29855125Y-8036784D01*
G01X29867235Y-8053830D01*
G01X29882103Y-8068533D01*
G01X29899283Y-8080452D01*
G01X29918261Y-8089230D01*
G01X29938469Y-8094604D01*
G01X29959300Y-8096414D01*
G01X29980131Y-8094604D01*
G01X30000339Y-8089230D01*
G01X30019317Y-8080452D01*
G01X30036497Y-8068533D01*
G01X30051365Y-8053830D01*
G01X30063475Y-8036784D01*
G01X30072465Y-8017905D01*
G01X30078064Y-7997759D01*
G01X30080106Y-7976949D01*
G01X30078530Y-7956099D01*
G01X30073381Y-7935832D01*
G01X30064816Y-7916757D01*
G01X30053089Y-7899445D01*
G01X30038553Y-7884414D01*
G01X30134047Y-7884414D01*
G01X30119511Y-7899445D01*
G01X30107784Y-7916757D01*
G01X30099219Y-7935832D01*
G01X30094070Y-7956099D01*
G01X30092494Y-7976949D01*
G01X30094536Y-7997759D01*
G01X30100135Y-8017905D01*
G01X30109125Y-8036784D01*
G01X30121235Y-8053830D01*
G01X30136103Y-8068533D01*
G01X30153283Y-8080452D01*
G01X30172261Y-8089230D01*
G01X30192469Y-8094604D01*
G01X30213300Y-8096414D01*
G01X30234131Y-8094604D01*
G01X30254339Y-8089230D01*
G01X30273317Y-8080452D01*
G01X30290497Y-8068533D01*
G01X30305365Y-8053830D01*
G01X30317475Y-8036784D01*
G01X30326465Y-8017905D01*
G01X30332064Y-7997759D01*
G01X30334106Y-7976949D01*
G01X30332530Y-7956099D01*
G01X30327381Y-7935832D01*
G01X30318816Y-7916757D01*
G01X30307089Y-7899445D01*
G01X30292553Y-7884414D01*
G01X30388047Y-7884414D01*
G01X30373511Y-7899445D01*
G01X30361784Y-7916757D01*
G01X30353219Y-7935832D01*
G01X30348070Y-7956099D01*
G01X30346494Y-7976949D01*
G01X30348536Y-7997759D01*
G01X30354135Y-8017905D01*
G01X30363125Y-8036784D01*
G01X30375235Y-8053830D01*
G01X30390103Y-8068533D01*
G01X30407283Y-8080452D01*
G01X30426261Y-8089230D01*
G01X30446469Y-8094604D01*
G01X30467300Y-8096414D01*
G01X30488131Y-8094604D01*
G01X30508339Y-8089230D01*
G01X30527317Y-8080452D01*
G01X30544497Y-8068533D01*
G01X30559365Y-8053830D01*
G01X30571475Y-8036784D01*
G01X30580465Y-8017905D01*
G01X30586064Y-7997759D01*
G01X30588106Y-7976949D01*
G01X30586530Y-7956099D01*
G01X30581381Y-7935832D01*
G01X30572816Y-7916757D01*
G01X30561089Y-7899445D01*
G01X30546553Y-7884414D01*
G01X31427686Y-7884414D01*
G01X31427686Y-10296261D01*
G01X31411758Y-10282266D01*
G01X31393545Y-10271409D01*
G01X31373659Y-10264055D01*
G01X31352764Y-10260449D01*
G01X31331563Y-10260713D01*
G01X31310765Y-10264838D01*
G01X31291068Y-10272686D01*
G01X31273131Y-10283992D01*
G01X31257557Y-10298380D01*
G01X31244866Y-10315365D01*
G01X31235485Y-10334380D01*
G01X31229727Y-10354786D01*
G01X31227786Y-10375900D01*
G01X31229727Y-10397014D01*
G01X31235485Y-10417420D01*
G01X31244866Y-10436435D01*
G01X31257557Y-10453420D01*
G01X31273131Y-10467808D01*
G01X31291068Y-10479114D01*
G01X31310765Y-10486962D01*
G01X31331563Y-10491087D01*
G01X31352764Y-10491351D01*
G01X31373659Y-10487745D01*
G01X31393545Y-10480391D01*
G01X31411758Y-10469534D01*
G01X31427686Y-10455539D01*
G01X31427686Y-10550261D01*
G01X31411758Y-10536266D01*
G01X31393545Y-10525409D01*
G01X31373659Y-10518055D01*
G01X31352764Y-10514449D01*
G01X31331563Y-10514713D01*
G01X31310765Y-10518838D01*
G01X31291068Y-10526686D01*
G01X31273131Y-10537992D01*
G01X31257557Y-10552380D01*
G01X31244866Y-10569365D01*
G01X31235485Y-10588380D01*
G01X31229727Y-10608786D01*
G01X31227786Y-10629900D01*
G01X31229727Y-10651014D01*
G01X31235485Y-10671420D01*
G01X31244866Y-10690435D01*
G01X31257557Y-10707420D01*
G01X31273131Y-10721808D01*
G01X31291068Y-10733114D01*
G01X31310765Y-10740962D01*
G01X31331563Y-10745087D01*
G01X31352764Y-10745351D01*
G01X31373659Y-10741745D01*
G01X31393545Y-10734391D01*
G01X31411758Y-10723534D01*
G01X31427686Y-10709539D01*
G01X31427686Y-10804261D01*
G01X31411758Y-10790266D01*
G01X31393545Y-10779409D01*
G01X31373659Y-10772055D01*
G01X31352764Y-10768449D01*
G01X31331563Y-10768713D01*
G01X31310765Y-10772838D01*
G01X31291068Y-10780686D01*
G01X31273131Y-10791992D01*
G01X31257557Y-10806380D01*
G01X31244866Y-10823365D01*
G01X31235485Y-10842380D01*
G01X31229727Y-10862786D01*
G01X31227786Y-10883900D01*
G01X31229727Y-10905014D01*
G01X31235485Y-10925420D01*
G01X31244866Y-10944435D01*
G01X31257557Y-10961420D01*
G01X31273131Y-10975808D01*
G01X31291068Y-10987114D01*
G01X31310765Y-10994962D01*
G01X31331563Y-10999087D01*
G01X31352764Y-10999351D01*
G01X31373659Y-10995745D01*
G01X31393545Y-10988391D01*
G01X31411758Y-10977534D01*
G01X31427686Y-10963539D01*
G01X31427686Y-11058261D01*
G01X31411758Y-11044266D01*
G01X31393545Y-11033409D01*
G01X31373659Y-11026055D01*
G01X31352764Y-11022449D01*
G01X31331563Y-11022713D01*
G01X31310765Y-11026838D01*
G01X31291068Y-11034686D01*
G01X31273131Y-11045992D01*
G01X31257557Y-11060380D01*
G01X31244866Y-11077365D01*
G01X31235485Y-11096380D01*
G01X31229727Y-11116786D01*
G01X31227786Y-11137900D01*
G01X31229727Y-11159014D01*
G01X31235485Y-11179420D01*
G01X31244866Y-11198435D01*
G01X31257557Y-11215420D01*
G01X31273131Y-11229808D01*
G01X31291068Y-11241114D01*
G01X31310765Y-11248962D01*
G01X31331563Y-11253087D01*
G01X31352764Y-11253351D01*
G01X31373659Y-11249745D01*
G01X31393545Y-11242391D01*
G01X31411758Y-11231534D01*
G01X31427686Y-11217539D01*
G01X31427686Y-11312261D01*
G01X31411758Y-11298266D01*
G01X31393545Y-11287409D01*
G01X31373659Y-11280055D01*
G01X31352764Y-11276449D01*
G01X31331563Y-11276713D01*
G01X31310765Y-11280838D01*
G01X31291068Y-11288686D01*
G01X31273131Y-11299992D01*
G01X31257557Y-11314380D01*
G01X31244866Y-11331365D01*
G01X31235485Y-11350380D01*
G01X31229727Y-11370786D01*
G01X31227786Y-11391900D01*
G01X31229727Y-11413014D01*
G01X31235485Y-11433420D01*
G01X31244866Y-11452435D01*
G01X31257557Y-11469420D01*
G01X31273131Y-11483808D01*
G01X31291068Y-11495114D01*
G01X31310765Y-11502962D01*
G01X31331563Y-11507087D01*
G01X31352764Y-11507351D01*
G01X31373659Y-11503745D01*
G01X31393545Y-11496391D01*
G01X31411758Y-11485534D01*
G01X31427686Y-11471539D01*
G01X31427686Y-11566261D01*
G01X31411758Y-11552266D01*
G01X31393545Y-11541409D01*
G01X31373659Y-11534055D01*
G01X31352764Y-11530449D01*
G01X31331563Y-11530713D01*
G01X31310765Y-11534838D01*
G01X31291068Y-11542686D01*
G01X31273131Y-11553992D01*
G01X31257557Y-11568380D01*
G01X31244866Y-11585365D01*
G01X31235485Y-11604380D01*
G01X31229727Y-11624786D01*
G01X31227786Y-11645900D01*
G01X31229727Y-11667014D01*
G01X31235485Y-11687420D01*
G01X31244866Y-11706435D01*
G01X31257557Y-11723420D01*
G01X31273131Y-11737808D01*
G01X31291068Y-11749114D01*
G01X31310765Y-11756962D01*
G01X31331563Y-11761087D01*
G01X31352764Y-11761351D01*
G01X31373659Y-11757745D01*
G01X31393545Y-11750391D01*
G01X31411758Y-11739534D01*
G01X31427686Y-11725539D01*
G01X31427686Y-11820261D01*
G01X31411758Y-11806266D01*
G01X31393545Y-11795409D01*
G01X31373659Y-11788055D01*
G01X31352764Y-11784449D01*
G01X31331563Y-11784713D01*
G01X31310765Y-11788838D01*
G01X31291068Y-11796686D01*
G01X31273131Y-11807992D01*
G01X31257557Y-11822380D01*
G01X31244866Y-11839365D01*
G01X31235485Y-11858380D01*
G01X31229727Y-11878786D01*
G01X31227786Y-11899900D01*
G01X31229727Y-11921014D01*
G01X31235485Y-11941420D01*
G01X31244866Y-11960435D01*
G01X31257557Y-11977420D01*
G01X31273131Y-11991808D01*
G01X31291068Y-12003114D01*
G01X31310765Y-12010962D01*
G01X31331563Y-12015087D01*
G01X31352764Y-12015351D01*
G01X31373659Y-12011745D01*
G01X31393545Y-12004391D01*
G01X31411758Y-11993534D01*
G01X31427686Y-11979539D01*
G01X31427686Y-12074261D01*
G01X31411758Y-12060266D01*
G01X31393545Y-12049409D01*
G01X31373659Y-12042055D01*
G01X31352764Y-12038449D01*
G01X31331563Y-12038713D01*
G01X31310765Y-12042838D01*
G01X31291068Y-12050686D01*
G01X31273131Y-12061992D01*
G01X31257557Y-12076380D01*
G01X31244866Y-12093365D01*
G01X31235485Y-12112380D01*
G01X31229727Y-12132786D01*
G01X31227786Y-12153900D01*
G01X31229727Y-12175014D01*
G01X31235485Y-12195420D01*
G01X31244866Y-12214435D01*
G01X31257557Y-12231420D01*
G01X31273131Y-12245808D01*
G01X31291068Y-12257114D01*
G01X31310765Y-12264962D01*
G01X31331563Y-12269087D01*
G01X31352764Y-12269351D01*
G01X31373659Y-12265745D01*
G01X31393545Y-12258391D01*
G01X31411758Y-12247534D01*
G01X31427686Y-12233539D01*
G01X31427686Y-12328261D01*
G01X31411758Y-12314266D01*
G01X31393545Y-12303409D01*
G01X31373659Y-12296055D01*
G01X31352764Y-12292449D01*
G01X31331563Y-12292713D01*
G01X31310765Y-12296838D01*
G01X31291068Y-12304686D01*
G01X31273131Y-12315992D01*
G01X31257557Y-12330380D01*
G01X31244866Y-12347365D01*
G01X31235485Y-12366380D01*
G01X31229727Y-12386786D01*
G01X31227786Y-12407900D01*
G01X31229727Y-12429014D01*
G01X31235485Y-12449420D01*
G01X31244866Y-12468435D01*
G01X31257557Y-12485420D01*
G01X31273131Y-12499808D01*
G01X31291068Y-12511114D01*
G01X31310765Y-12518962D01*
G01X31331563Y-12523087D01*
G01X31352764Y-12523351D01*
G01X31373659Y-12519745D01*
G01X31393545Y-12512391D01*
G01X31411758Y-12501534D01*
G01X31427686Y-12487539D01*
G01X31427686Y-12582261D01*
G01X31411758Y-12568266D01*
G01X31393545Y-12557409D01*
G01X31373659Y-12550055D01*
G01X31352764Y-12546449D01*
G01X31331563Y-12546713D01*
G01X31310765Y-12550838D01*
G01X31291068Y-12558686D01*
G01X31273131Y-12569992D01*
G01X31257557Y-12584380D01*
G01X31244866Y-12601365D01*
G01X31235485Y-12620380D01*
G01X31229727Y-12640786D01*
G01X31227786Y-12661900D01*
G01X31229727Y-12683014D01*
G01X31235485Y-12703420D01*
G01X31244866Y-12722435D01*
G01X31257557Y-12739420D01*
G01X31273131Y-12753808D01*
G01X31291068Y-12765114D01*
G01X31310765Y-12772962D01*
G01X31331563Y-12777087D01*
G01X31352764Y-12777351D01*
G01X31373659Y-12773745D01*
G01X31393545Y-12766391D01*
G01X31411758Y-12755534D01*
G01X31427686Y-12741539D01*
G01X31427686Y-12836261D01*
G01X31411758Y-12822266D01*
G01X31393545Y-12811409D01*
G01X31373659Y-12804055D01*
G01X31352764Y-12800449D01*
G01X31331563Y-12800713D01*
G01X31310765Y-12804838D01*
G01X31291068Y-12812686D01*
G01X31273131Y-12823992D01*
G01X31257557Y-12838380D01*
G01X31244866Y-12855365D01*
G01X31235485Y-12874380D01*
G01X31229727Y-12894786D01*
G01X31227786Y-12915900D01*
G01X31229727Y-12937014D01*
G01X31235485Y-12957420D01*
G01X31244866Y-12976435D01*
G01X31257557Y-12993420D01*
G01X31273131Y-13007808D01*
G01X31291068Y-13019114D01*
G01X31310765Y-13026962D01*
G01X31331563Y-13031087D01*
G01X31352764Y-13031351D01*
G01X31373659Y-13027745D01*
G01X31393545Y-13020391D01*
G01X31411758Y-13009534D01*
G01X31427686Y-12995539D01*
G01X31427686Y-13090261D01*
G01X31411758Y-13076266D01*
G01X31393545Y-13065409D01*
G01X31373659Y-13058055D01*
G01X31352764Y-13054449D01*
G01X31331563Y-13054713D01*
G01X31310765Y-13058838D01*
G01X31291068Y-13066686D01*
G01X31273131Y-13077992D01*
G01X31257557Y-13092380D01*
G01X31244866Y-13109365D01*
G01X31235485Y-13128380D01*
G01X31229727Y-13148786D01*
G01X31227786Y-13169900D01*
G01X31229727Y-13191014D01*
G01X31235485Y-13211420D01*
G01X31244866Y-13230435D01*
G01X31257557Y-13247420D01*
G01X31273131Y-13261808D01*
G01X31291068Y-13273114D01*
G01X31310765Y-13280962D01*
G01X31331563Y-13285087D01*
G01X31352764Y-13285351D01*
G01X31373659Y-13281745D01*
G01X31393545Y-13274391D01*
G01X31411758Y-13263534D01*
G01X31427686Y-13249539D01*
G01X31427686Y-13344261D01*
G01X31411758Y-13330266D01*
G01X31393545Y-13319409D01*
G01X31373659Y-13312055D01*
G01X31352764Y-13308449D01*
G01X31331563Y-13308713D01*
G01X31310765Y-13312838D01*
G01X31291068Y-13320686D01*
G01X31273131Y-13331992D01*
G01X31257557Y-13346380D01*
G01X31244866Y-13363365D01*
G01X31235485Y-13382380D01*
G01X31229727Y-13402786D01*
G01X31227786Y-13423900D01*
G01X31229727Y-13445014D01*
G01X31235485Y-13465420D01*
G01X31244866Y-13484435D01*
G01X31257557Y-13501420D01*
G01X31273131Y-13515808D01*
G01X31291068Y-13527114D01*
G01X31310765Y-13534962D01*
G01X31331563Y-13539087D01*
G01X31352764Y-13539351D01*
G01X31373659Y-13535745D01*
G01X31393545Y-13528391D01*
G01X31411758Y-13517534D01*
G01X31427686Y-13503539D01*
G01X31427686Y-13598261D01*
G01X31411758Y-13584266D01*
G01X31393545Y-13573409D01*
G01X31373659Y-13566055D01*
G01X31352764Y-13562449D01*
G01X31331563Y-13562713D01*
G01X31310765Y-13566838D01*
G01X31291068Y-13574686D01*
G01X31273131Y-13585992D01*
G01X31257557Y-13600380D01*
G01X31244866Y-13617365D01*
G01X31235485Y-13636380D01*
G01X31229727Y-13656786D01*
G01X31227786Y-13677900D01*
G01X31229727Y-13699014D01*
G01X31235485Y-13719420D01*
G01X31244866Y-13738435D01*
G01X31257557Y-13755420D01*
G01X31273131Y-13769808D01*
G01X31291068Y-13781114D01*
G01X31310765Y-13788962D01*
G01X31331563Y-13793087D01*
G01X31352764Y-13793351D01*
G01X31373659Y-13789745D01*
G01X31393545Y-13782391D01*
G01X31411758Y-13771534D01*
G01X31427686Y-13757539D01*
G01X31427686Y-13852261D01*
G01X31411758Y-13838266D01*
G01X31393545Y-13827409D01*
G01X31373659Y-13820055D01*
G01X31352764Y-13816449D01*
G01X31331563Y-13816713D01*
G01X31310765Y-13820838D01*
G01X31291068Y-13828686D01*
G01X31273131Y-13839992D01*
G01X31257557Y-13854380D01*
G01X31244866Y-13871365D01*
G01X31235485Y-13890380D01*
G01X31229727Y-13910786D01*
G01X31227786Y-13931900D01*
G01X31229727Y-13953014D01*
G01X31235485Y-13973420D01*
G01X31244866Y-13992435D01*
G01X31257557Y-14009420D01*
G01X31273131Y-14023808D01*
G01X31291068Y-14035114D01*
G01X31310765Y-14042962D01*
G01X31331563Y-14047087D01*
G01X31352764Y-14047351D01*
G01X31373659Y-14043745D01*
G01X31393545Y-14036391D01*
G01X31411758Y-14025534D01*
G01X31427686Y-14011539D01*
G01X31427686Y-14106261D01*
G01X31411758Y-14092266D01*
G01X31393545Y-14081409D01*
G01X31373659Y-14074055D01*
G01X31352764Y-14070449D01*
G01X31331563Y-14070713D01*
G01X31310765Y-14074838D01*
G01X31291068Y-14082686D01*
G01X31273131Y-14093992D01*
G01X31257557Y-14108380D01*
G01X31244866Y-14125365D01*
G01X31235485Y-14144380D01*
G01X31229727Y-14164786D01*
G01X31227786Y-14185900D01*
G01X31229727Y-14207014D01*
G01X31235485Y-14227420D01*
G01X31244866Y-14246435D01*
G01X31257557Y-14263420D01*
G01X31273131Y-14277808D01*
G01X31291068Y-14289114D01*
G01X31310765Y-14296962D01*
G01X31331563Y-14301087D01*
G01X31352764Y-14301351D01*
G01X31373659Y-14297745D01*
G01X31393545Y-14290391D01*
G01X31411758Y-14279534D01*
G01X31427686Y-14265539D01*
G01X31427686Y-14360261D01*
G01X31411758Y-14346266D01*
G01X31393545Y-14335409D01*
G01X31373659Y-14328055D01*
G01X31352764Y-14324449D01*
G01X31331563Y-14324713D01*
G01X31310765Y-14328838D01*
G01X31291068Y-14336686D01*
G01X31273131Y-14347992D01*
G01X31257557Y-14362380D01*
G01X31244866Y-14379365D01*
G01X31235485Y-14398380D01*
G01X31229727Y-14418786D01*
G01X31227786Y-14439900D01*
G01X31229727Y-14461014D01*
G01X31235485Y-14481420D01*
G01X31244866Y-14500435D01*
G01X31257557Y-14517420D01*
G01X31273131Y-14531808D01*
G01X31291068Y-14543114D01*
G01X31310765Y-14550962D01*
G01X31331563Y-14555087D01*
G01X31352764Y-14555351D01*
G01X31373659Y-14551745D01*
G01X31393545Y-14544391D01*
G01X31411758Y-14533534D01*
G01X31427686Y-14519539D01*
G01X31427686Y-14614261D01*
G01X31411758Y-14600266D01*
G01X31393545Y-14589409D01*
G01X31373659Y-14582055D01*
G01X31352764Y-14578449D01*
G01X31331563Y-14578713D01*
G01X31310765Y-14582838D01*
G01X31291068Y-14590686D01*
G01X31273131Y-14601992D01*
G01X31257557Y-14616380D01*
G01X31244866Y-14633365D01*
G01X31235485Y-14652380D01*
G01X31229727Y-14672786D01*
G01X31227786Y-14693900D01*
G01X31229727Y-14715014D01*
G01X31235485Y-14735420D01*
G01X31244866Y-14754435D01*
G01X31257557Y-14771420D01*
G01X31273131Y-14785808D01*
G01X31291068Y-14797114D01*
G01X31310765Y-14804962D01*
G01X31331563Y-14809087D01*
G01X31352764Y-14809351D01*
G01X31373659Y-14805745D01*
G01X31393545Y-14798391D01*
G01X31411758Y-14787534D01*
G01X31427686Y-14773539D01*
G01X31427686Y-14868261D01*
G01X31411758Y-14854266D01*
G01X31393545Y-14843409D01*
G01X31373659Y-14836055D01*
G01X31352764Y-14832449D01*
G01X31331563Y-14832713D01*
G01X31310765Y-14836838D01*
G01X31291068Y-14844686D01*
G01X31273131Y-14855992D01*
G01X31257557Y-14870380D01*
G01X31244866Y-14887365D01*
G01X31235485Y-14906380D01*
G01X31229727Y-14926786D01*
G01X31227786Y-14947900D01*
G01X31229727Y-14969014D01*
G01X31235485Y-14989420D01*
G01X31244866Y-15008435D01*
G01X31257557Y-15025420D01*
G01X31273131Y-15039808D01*
G01X31291068Y-15051114D01*
G01X31310765Y-15058962D01*
G01X31331563Y-15063087D01*
G01X31352764Y-15063351D01*
G01X31373659Y-15059745D01*
G01X31393545Y-15052391D01*
G01X31411758Y-15041534D01*
G01X31427686Y-15027539D01*
G01X31427686Y-15122261D01*
G01X31411758Y-15108266D01*
G01X31393545Y-15097409D01*
G01X31373659Y-15090055D01*
G01X31352764Y-15086449D01*
G01X31331563Y-15086713D01*
G01X31310765Y-15090838D01*
G01X31291068Y-15098686D01*
G01X31273131Y-15109992D01*
G01X31257557Y-15124380D01*
G01X31244866Y-15141365D01*
G01X31235485Y-15160380D01*
G01X31229727Y-15180786D01*
G01X31227786Y-15201900D01*
G01X31229727Y-15223014D01*
G01X31235485Y-15243420D01*
G01X31244866Y-15262435D01*
G01X31257557Y-15279420D01*
G01X31273131Y-15293808D01*
G01X31291068Y-15305114D01*
G01X31310765Y-15312962D01*
G01X31331563Y-15317087D01*
G01X31352764Y-15317351D01*
G01X31373659Y-15313745D01*
G01X31393545Y-15306391D01*
G01X31411758Y-15295534D01*
G01X31427686Y-15281539D01*
G01X31427686Y-15376261D01*
G01X31411758Y-15362266D01*
G01X31393545Y-15351409D01*
G01X31373659Y-15344055D01*
G01X31352764Y-15340449D01*
G01X31331563Y-15340713D01*
G01X31310765Y-15344838D01*
G01X31291068Y-15352686D01*
G01X31273131Y-15363992D01*
G01X31257557Y-15378380D01*
G01X31244866Y-15395365D01*
G01X31235485Y-15414380D01*
G01X31229727Y-15434786D01*
G01X31227786Y-15455900D01*
G01X31229727Y-15477014D01*
G01X31235485Y-15497420D01*
G01X31244866Y-15516435D01*
G01X31257557Y-15533420D01*
G01X31273131Y-15547808D01*
G01X31291068Y-15559114D01*
G01X31310765Y-15566962D01*
G01X31331563Y-15571087D01*
G01X31352764Y-15571351D01*
G01X31373659Y-15567745D01*
G01X31393545Y-15560391D01*
G01X31411758Y-15549534D01*
G01X31427686Y-15535539D01*
G01X31427686Y-15594320D01*
G01X31423600Y-15594086D01*
G01X31263600Y-15594086D01*
G01X31252533Y-15595839D01*
G01X31242549Y-15600926D01*
G01X31234626Y-15608849D01*
G01X31229539Y-15618833D01*
G01X31227786Y-15629900D01*
G01X31227786Y-15789900D01*
G01X31229167Y-15799749D01*
G01X31233203Y-15808838D01*
G01X30829134Y-15801921D01*
G01X30828473Y-15801916D01*
G01X27914142Y-15807821D01*
G01X27926355Y-15797138D01*
G01X27936338Y-15784347D01*
G01X27943736Y-15769906D01*
G01X27948283Y-15754331D01*
G01X27949817Y-15738178D01*
G01X27949817Y-15658178D01*
G01X27947942Y-15640336D01*
G01X27942398Y-15623274D01*
G01X27933428Y-15607738D01*
G01X27921424Y-15594406D01*
G01X27906910Y-15583861D01*
G01X27890521Y-15576564D01*
G01X27872973Y-15572834D01*
G01X27855033Y-15572834D01*
G01X27837485Y-15576564D01*
G01X27821096Y-15583861D01*
G01X27806582Y-15594406D01*
G01X27794578Y-15607738D01*
G01X27785608Y-15623274D01*
G01X27780065Y-15640336D01*
G01X27778189Y-15658178D01*
G01X27778189Y-15738178D01*
G01X27779736Y-15754399D01*
G01X27784322Y-15770035D01*
G01X27791780Y-15784523D01*
G01X27801843Y-15797340D01*
G01X27814147Y-15808023D01*
G01X27047679Y-15809576D01*
G01X27060681Y-15798904D01*
G01X27071351Y-15785901D01*
G01X27079280Y-15771065D01*
G01X27084162Y-15754969D01*
G01X27085811Y-15738229D01*
G01X27085811Y-15658229D01*
G01X27083935Y-15640387D01*
G01X27078392Y-15623325D01*
G01X27069422Y-15607789D01*
G01X27057418Y-15594457D01*
G01X27042904Y-15583912D01*
G01X27026515Y-15576615D01*
G01X27008967Y-15572885D01*
G01X26991027Y-15572885D01*
G01X26973479Y-15576615D01*
G01X26957090Y-15583912D01*
G01X26942576Y-15594457D01*
G01X26930572Y-15607789D01*
G01X26921602Y-15623325D01*
G01X26916058Y-15640387D01*
G01X26914183Y-15658229D01*
G01X26914183Y-15738229D01*
G01X26915845Y-15755037D01*
G01X26920767Y-15771194D01*
G01X26928759Y-15786074D01*
G01X26939510Y-15799100D01*
G01X26952605Y-15809769D01*
G01X25698436Y-15812310D01*
G01X25702737Y-15805501D01*
G01X25705408Y-15797903D01*
G01X25706314Y-15789900D01*
G01X25706314Y-15629900D01*
G01X25704561Y-15618833D01*
G01X25699474Y-15608849D01*
G01X25691551Y-15600926D01*
G01X25681567Y-15595839D01*
G01X25670500Y-15594086D01*
G01X25510500Y-15594086D01*
G01X25499314Y-15595878D01*
G01X25499314Y-15527300D01*
G01X25513306Y-15542236D01*
G01X25529709Y-15554476D01*
G01X25548011Y-15563638D01*
G01X25567639Y-15569435D01*
G01X25587981Y-15571686D01*
G01X25608402Y-15570322D01*
G01X25628264Y-15565384D01*
G01X25646947Y-15557027D01*
G01X25663866Y-15545512D01*
G01X25678495Y-15531198D01*
G01X25690375Y-15514533D01*
G01X25699137Y-15496036D01*
G01X25704505Y-15476286D01*
G01X25706314Y-15455900D01*
G01X25704505Y-15435514D01*
G01X25699137Y-15415764D01*
G01X25690375Y-15397267D01*
G01X25678495Y-15380602D01*
G01X25663866Y-15366288D01*
G01X25646947Y-15354773D01*
G01X25628264Y-15346416D01*
G01X25608402Y-15341478D01*
G01X25587981Y-15340114D01*
G01X25567639Y-15342365D01*
G01X25548011Y-15348162D01*
G01X25529709Y-15357324D01*
G01X25513306Y-15369564D01*
G01X25499314Y-15384500D01*
G01X25499314Y-15273300D01*
G01X25513306Y-15288236D01*
G01X25529709Y-15300476D01*
G01X25548011Y-15309638D01*
G01X25567639Y-15315435D01*
G01X25587981Y-15317686D01*
G01X25608402Y-15316322D01*
G01X25628264Y-15311384D01*
G01X25646947Y-15303027D01*
G01X25663866Y-15291512D01*
G01X25678495Y-15277198D01*
G01X25690375Y-15260533D01*
G01X25699137Y-15242036D01*
G01X25703715Y-15225196D01*
G01X26914183Y-15225196D01*
G01X26914183Y-15335195D01*
G01X26916189Y-15353643D01*
G01X26922114Y-15371228D01*
G01X26931681Y-15387128D01*
G01X26944442Y-15400600D01*
G01X26959801Y-15411013D01*
G01X26977039Y-15417881D01*
G01X26995351Y-15420883D01*
G01X27013880Y-15419879D01*
G01X27031760Y-15414914D01*
G01X27048155Y-15406222D01*
G01X27062298Y-15394209D01*
G01X27073527Y-15379437D01*
G01X27081319Y-15362595D01*
G01X27090028Y-15376367D01*
G01X27101750Y-15387685D01*
G01X27115820Y-15395905D01*
G01X27131436Y-15400558D01*
G01X27147709Y-15401381D01*
G01X27163715Y-15398327D01*
G01X27178542Y-15391569D01*
G01X27191347Y-15381492D01*
G01X27201401Y-15368669D01*
G01X27208132Y-15353830D01*
G01X27211158Y-15337819D01*
G01X27211158Y-15337819D01*
G01X27210305Y-15321547D01*
G01X27205624Y-15305939D01*
G01X27204193Y-15303500D01*
G01X27297486Y-15303500D01*
G01X27299435Y-15318450D01*
G01X27305151Y-15332401D01*
G01X27314253Y-15344420D01*
G01X27326133Y-15353703D01*
G01X27339995Y-15359631D01*
G01X27354913Y-15361807D01*
G01X27369891Y-15360086D01*
G01X27383927Y-15354582D01*
G01X27396083Y-15345664D01*
G01X27418220Y-15345664D01*
G01X27430837Y-15353900D01*
G01X27445143Y-15358628D01*
G01X27460182Y-15359533D01*
G01X27474952Y-15356555D01*
G01X27488466Y-15349892D01*
G01X27499821Y-15339989D01*
G01X27508260Y-15327507D01*
G01X27513219Y-15313280D01*
G01X27514368Y-15298257D01*
G01X27514368Y-15298257D01*
G01X27511629Y-15283441D01*
G01X27505186Y-15269821D01*
G01X27495468Y-15258307D01*
G01X27483125Y-15249667D01*
G01X27468980Y-15244478D01*
G01X27453977Y-15243086D01*
G01X27439119Y-15245584D01*
G01X27425397Y-15251806D01*
G01X27413726Y-15261336D01*
G01X27396083Y-15261336D01*
G01X27383927Y-15252418D01*
G01X27369891Y-15246914D01*
G01X27354913Y-15245193D01*
G01X27339995Y-15247369D01*
G01X27326133Y-15253297D01*
G01X27314253Y-15262580D01*
G01X27305151Y-15274599D01*
G01X27299435Y-15288550D01*
G01X27297486Y-15303500D01*
G01X27204193Y-15303500D01*
G01X27197379Y-15291884D01*
G01X27186040Y-15280182D01*
G01X27172252Y-15271498D01*
G01X27156801Y-15266326D01*
G01X27140563Y-15264961D01*
G01X27124465Y-15267480D01*
G01X27109420Y-15273739D01*
G01X27096287Y-15283384D01*
G01X27085811Y-15295865D01*
G01X27085811Y-15225196D01*
G01X27083935Y-15207354D01*
G01X27078392Y-15190292D01*
G01X27069422Y-15174755D01*
G01X27057418Y-15161423D01*
G01X27042904Y-15150879D01*
G01X27026515Y-15143582D01*
G01X27008967Y-15139852D01*
G01X26991027Y-15139852D01*
G01X26973479Y-15143582D01*
G01X26957090Y-15150879D01*
G01X26942576Y-15161423D01*
G01X26930572Y-15174755D01*
G01X26921602Y-15190292D01*
G01X26916058Y-15207354D01*
G01X26914183Y-15225196D01*
G01X25703715Y-15225196D01*
G01X25704505Y-15222286D01*
G01X25706314Y-15201900D01*
G01X25704505Y-15181514D01*
G01X25699137Y-15161764D01*
G01X25690375Y-15143267D01*
G01X25678495Y-15126602D01*
G01X25663866Y-15112288D01*
G01X25646947Y-15100773D01*
G01X25628264Y-15092416D01*
G01X25608402Y-15087478D01*
G01X25587981Y-15086114D01*
G01X25567639Y-15088365D01*
G01X25548011Y-15094162D01*
G01X25529709Y-15103324D01*
G01X25513306Y-15115564D01*
G01X25499314Y-15130500D01*
G01X25499314Y-15019300D01*
G01X25513306Y-15034236D01*
G01X25529709Y-15046476D01*
G01X25548011Y-15055638D01*
G01X25567639Y-15061435D01*
G01X25587981Y-15063686D01*
G01X25608402Y-15062322D01*
G01X25628264Y-15057384D01*
G01X25631693Y-15055850D01*
G01X27487986Y-15055850D01*
G01X27489935Y-15070800D01*
G01X27495651Y-15084751D01*
G01X27504753Y-15096770D01*
G01X27516633Y-15106053D01*
G01X27530495Y-15111981D01*
G01X27545413Y-15114157D01*
G01X27560391Y-15112436D01*
G01X27574427Y-15106932D01*
G01X27586583Y-15098014D01*
G01X27598685Y-15098014D01*
G01X27681586Y-15180914D01*
G01X27690318Y-15187615D01*
G01X27700487Y-15191827D01*
G01X27711400Y-15193264D01*
G01X27784351Y-15193264D01*
G01X27779744Y-15208935D01*
G01X27778189Y-15225196D01*
G01X27778189Y-15295865D01*
G01X27767713Y-15283384D01*
G01X27754580Y-15273739D01*
G01X27739535Y-15267480D01*
G01X27723437Y-15264961D01*
G01X27707199Y-15266326D01*
G01X27691748Y-15271498D01*
G01X27677960Y-15280182D01*
G01X27666621Y-15291884D01*
G01X27658376Y-15305939D01*
G01X27653695Y-15321547D01*
G01X27652842Y-15337819D01*
G01X27655868Y-15353830D01*
G01X27662599Y-15368669D01*
G01X27672653Y-15381492D01*
G01X27685458Y-15391569D01*
G01X27700285Y-15398327D01*
G01X27716291Y-15401381D01*
G01X27732564Y-15400558D01*
G01X27748180Y-15395905D01*
G01X27762250Y-15387685D01*
G01X27773972Y-15376367D01*
G01X27782681Y-15362595D01*
G01X27790473Y-15379437D01*
G01X27801702Y-15394209D01*
G01X27815845Y-15406222D01*
G01X27832240Y-15414914D01*
G01X27850120Y-15419879D01*
G01X27868649Y-15420883D01*
G01X27886961Y-15417881D01*
G01X27904199Y-15411013D01*
G01X27919558Y-15400600D01*
G01X27920060Y-15400070D01*
G01X29399658Y-15400070D01*
G01X29399658Y-15420519D01*
G01X29403416Y-15440620D01*
G01X29410803Y-15459688D01*
G01X29421568Y-15477075D01*
G01X29435345Y-15492187D01*
G01X29451663Y-15504510D01*
G01X29469969Y-15513625D01*
G01X29489637Y-15519221D01*
G01X29509999Y-15521108D01*
G01X29509999Y-15521108D01*
G01X29709999Y-15521108D01*
G01X29730361Y-15519221D01*
G01X29750030Y-15513625D01*
G01X29768335Y-15504510D01*
G01X29784654Y-15492187D01*
G01X29798430Y-15477075D01*
G01X29809195Y-15459688D01*
G01X29816583Y-15440620D01*
G01X29820340Y-15420519D01*
G01X29820340Y-15400070D01*
G01X29816583Y-15379969D01*
G01X29809195Y-15360900D01*
G01X29798430Y-15343514D01*
G01X29784654Y-15328402D01*
G01X29768335Y-15316078D01*
G01X29750030Y-15306963D01*
G01X29730361Y-15301367D01*
G01X29709999Y-15299480D01*
G01X29509999Y-15299480D01*
G01X29489637Y-15301367D01*
G01X29469969Y-15306963D01*
G01X29451663Y-15316078D01*
G01X29435345Y-15328402D01*
G01X29421568Y-15343514D01*
G01X29410803Y-15360900D01*
G01X29403416Y-15379969D01*
G01X29399658Y-15400070D01*
G01X27920060Y-15400070D01*
G01X27932319Y-15387128D01*
G01X27941886Y-15371228D01*
G01X27947811Y-15353643D01*
G01X27949817Y-15335195D01*
G01X27949817Y-15225196D01*
G01X27948039Y-15207815D01*
G01X27942777Y-15191155D01*
G01X27934582Y-15176500D01*
G01X28072186Y-15176500D01*
G01X28074173Y-15191593D01*
G01X28079999Y-15205657D01*
G01X28089266Y-15217734D01*
G01X28101343Y-15227001D01*
G01X28115407Y-15232827D01*
G01X28130500Y-15234814D01*
G01X28145593Y-15232827D01*
G01X28159657Y-15227001D01*
G01X28171734Y-15217734D01*
G01X28181001Y-15205657D01*
G01X28186827Y-15191593D01*
G01X28188814Y-15176500D01*
G01X28186827Y-15161407D01*
G01X28181001Y-15147343D01*
G01X28171734Y-15135266D01*
G01X28159657Y-15125999D01*
G01X28145593Y-15120173D01*
G01X28130500Y-15118186D01*
G01X28115407Y-15120173D01*
G01X28101343Y-15125999D01*
G01X28089266Y-15135266D01*
G01X28079999Y-15147343D01*
G01X28074173Y-15161407D01*
G01X28072186Y-15176500D01*
G01X28072186Y-15176500D01*
G01X27934582Y-15176500D01*
G01X27934249Y-15175906D01*
G01X27922810Y-15162700D01*
G01X27908934Y-15152084D01*
G01X27893194Y-15144499D01*
G01X27876245Y-15140259D01*
G01X27858789Y-15139540D01*
G01X27868565Y-15129764D01*
G01X28001317Y-15129764D01*
G01X28013473Y-15138682D01*
G01X28027509Y-15144186D01*
G01X28042487Y-15145907D01*
G01X28057405Y-15143731D01*
G01X28071267Y-15137803D01*
G01X28083147Y-15128520D01*
G01X28092249Y-15116501D01*
G01X28097965Y-15102550D01*
G01X28099914Y-15087600D01*
G01X28097965Y-15072650D01*
G01X28092249Y-15058699D01*
G01X28083147Y-15046680D01*
G01X28071267Y-15037397D01*
G01X28057405Y-15031469D01*
G01X28042487Y-15029293D01*
G01X28027509Y-15031014D01*
G01X28013473Y-15036518D01*
G01X28001317Y-15045436D01*
G01X27851100Y-15045436D01*
G01X27840187Y-15046873D01*
G01X27830018Y-15051085D01*
G01X27821286Y-15057786D01*
G01X27821286Y-15057786D01*
G01X27770135Y-15108936D01*
G01X27728865Y-15108936D01*
G01X27645964Y-15026036D01*
G01X27645964Y-15026036D01*
G01X27637232Y-15019335D01*
G01X27627063Y-15015123D01*
G01X27616150Y-15013686D01*
G01X27586583Y-15013686D01*
G01X27574427Y-15004768D01*
G01X27560391Y-14999264D01*
G01X27545413Y-14997543D01*
G01X27530495Y-14999719D01*
G01X27516633Y-15005647D01*
G01X27504753Y-15014930D01*
G01X27495651Y-15026949D01*
G01X27489935Y-15040900D01*
G01X27487986Y-15055850D01*
G01X25631693Y-15055850D01*
G01X25646947Y-15049027D01*
G01X25663866Y-15037512D01*
G01X25678495Y-15023198D01*
G01X25690375Y-15006533D01*
G01X25698062Y-14990305D01*
G01X29969187Y-14990305D01*
G01X29969187Y-15190305D01*
G01X29971074Y-15210667D01*
G01X29976670Y-15230335D01*
G01X29985785Y-15248641D01*
G01X29998108Y-15264960D01*
G01X30013221Y-15278736D01*
G01X30030607Y-15289501D01*
G01X30049675Y-15296889D01*
G01X30069776Y-15300646D01*
G01X30090225Y-15300646D01*
G01X30110326Y-15296889D01*
G01X30129395Y-15289501D01*
G01X30146781Y-15278736D01*
G01X30161893Y-15264960D01*
G01X30174217Y-15248641D01*
G01X30183332Y-15230335D01*
G01X30188928Y-15210667D01*
G01X30190815Y-15190305D01*
G01X30190815Y-14990305D01*
G01X30188928Y-14969943D01*
G01X30183332Y-14950275D01*
G01X30174217Y-14931969D01*
G01X30161893Y-14915650D01*
G01X30146781Y-14901874D01*
G01X30129395Y-14891109D01*
G01X30110326Y-14883722D01*
G01X30090225Y-14879964D01*
G01X30069776Y-14879964D01*
G01X30049675Y-14883722D01*
G01X30030607Y-14891109D01*
G01X30013221Y-14901874D01*
G01X29998108Y-14915650D01*
G01X29985785Y-14931969D01*
G01X29976670Y-14950275D01*
G01X29971074Y-14969943D01*
G01X29969187Y-14990305D01*
G01X29969187Y-14990305D01*
G01X25698062Y-14990305D01*
G01X25699137Y-14988036D01*
G01X25704505Y-14968286D01*
G01X25706314Y-14947900D01*
G01X25704505Y-14927514D01*
G01X25699137Y-14907764D01*
G01X25690375Y-14889267D01*
G01X25678495Y-14872602D01*
G01X25663866Y-14858288D01*
G01X25646947Y-14846773D01*
G01X25628264Y-14838416D01*
G01X25608402Y-14833478D01*
G01X25587981Y-14832114D01*
G01X25567639Y-14834365D01*
G01X25548011Y-14840162D01*
G01X25529709Y-14849324D01*
G01X25513306Y-14861564D01*
G01X25499314Y-14876500D01*
G01X25499314Y-14765300D01*
G01X25513306Y-14780236D01*
G01X25529709Y-14792476D01*
G01X25548011Y-14801638D01*
G01X25567639Y-14807435D01*
G01X25587981Y-14809686D01*
G01X25608402Y-14808322D01*
G01X25628264Y-14803384D01*
G01X25646947Y-14795027D01*
G01X25663866Y-14783512D01*
G01X25667372Y-14780081D01*
G01X29399658Y-14780081D01*
G01X29399658Y-14800530D01*
G01X29403416Y-14820631D01*
G01X29410803Y-14839700D01*
G01X29421568Y-14857086D01*
G01X29435345Y-14872198D01*
G01X29451663Y-14884522D01*
G01X29469969Y-14893637D01*
G01X29489637Y-14899233D01*
G01X29509999Y-14901120D01*
G01X29509999Y-14901120D01*
G01X29709999Y-14901120D01*
G01X29730361Y-14899233D01*
G01X29750030Y-14893637D01*
G01X29768335Y-14884522D01*
G01X29784654Y-14872198D01*
G01X29798430Y-14857086D01*
G01X29809195Y-14839700D01*
G01X29816583Y-14820631D01*
G01X29820340Y-14800530D01*
G01X29820340Y-14780081D01*
G01X29816583Y-14759980D01*
G01X29809195Y-14740912D01*
G01X29798430Y-14723525D01*
G01X29784654Y-14708413D01*
G01X29768335Y-14696090D01*
G01X29750030Y-14686975D01*
G01X29730361Y-14681379D01*
G01X29709999Y-14679492D01*
G01X29509999Y-14679492D01*
G01X29489637Y-14681379D01*
G01X29469969Y-14686975D01*
G01X29451663Y-14696090D01*
G01X29435345Y-14708413D01*
G01X29421568Y-14723525D01*
G01X29410803Y-14740912D01*
G01X29403416Y-14759980D01*
G01X29399658Y-14780081D01*
G01X25667372Y-14780081D01*
G01X25678495Y-14769198D01*
G01X25690375Y-14752533D01*
G01X25699137Y-14734036D01*
G01X25704505Y-14714286D01*
G01X25706314Y-14693900D01*
G01X25704505Y-14673514D01*
G01X25699137Y-14653764D01*
G01X25690375Y-14635267D01*
G01X25678495Y-14618602D01*
G01X25663866Y-14604288D01*
G01X25646947Y-14592773D01*
G01X25628264Y-14584416D01*
G01X25608402Y-14579478D01*
G01X25587981Y-14578114D01*
G01X25567639Y-14580365D01*
G01X25548011Y-14586162D01*
G01X25529709Y-14595324D01*
G01X25513306Y-14607564D01*
G01X25499314Y-14622500D01*
G01X25499314Y-14511300D01*
G01X25513306Y-14526236D01*
G01X25529709Y-14538476D01*
G01X25548011Y-14547638D01*
G01X25567639Y-14553435D01*
G01X25587981Y-14555686D01*
G01X25608402Y-14554322D01*
G01X25608892Y-14554200D01*
G01X27373686Y-14554200D01*
G01X27375673Y-14569293D01*
G01X27381499Y-14583357D01*
G01X27390766Y-14595434D01*
G01X27402843Y-14604701D01*
G01X27416907Y-14610527D01*
G01X27432000Y-14612514D01*
G01X27447093Y-14610527D01*
G01X27461157Y-14604701D01*
G01X27473234Y-14595434D01*
G01X27482501Y-14583357D01*
G01X27488327Y-14569293D01*
G01X27490314Y-14554200D01*
G01X27488327Y-14539107D01*
G01X27482501Y-14525043D01*
G01X27473234Y-14512966D01*
G01X27461157Y-14503699D01*
G01X27447093Y-14497873D01*
G01X27432000Y-14495886D01*
G01X27416907Y-14497873D01*
G01X27402843Y-14503699D01*
G01X27390766Y-14512966D01*
G01X27381499Y-14525043D01*
G01X27375673Y-14539107D01*
G01X27373686Y-14554200D01*
G01X27373686Y-14554200D01*
G01X25608892Y-14554200D01*
G01X25628264Y-14549384D01*
G01X25646947Y-14541027D01*
G01X25663866Y-14529512D01*
G01X25678495Y-14515198D01*
G01X25690375Y-14498533D01*
G01X25699137Y-14480036D01*
G01X25704505Y-14460286D01*
G01X25706314Y-14439900D01*
G01X25704505Y-14419514D01*
G01X25699137Y-14399764D01*
G01X25690375Y-14381267D01*
G01X25678495Y-14364602D01*
G01X25663866Y-14350288D01*
G01X25646947Y-14338773D01*
G01X25628264Y-14330416D01*
G01X25608402Y-14325478D01*
G01X25587981Y-14324114D01*
G01X25567639Y-14326365D01*
G01X25548011Y-14332162D01*
G01X25529709Y-14341324D01*
G01X25513306Y-14353564D01*
G01X25499314Y-14368500D01*
G01X25499314Y-14257300D01*
G01X25513306Y-14272236D01*
G01X25529709Y-14284476D01*
G01X25548011Y-14293638D01*
G01X25567639Y-14299435D01*
G01X25587981Y-14301686D01*
G01X25608402Y-14300322D01*
G01X25628264Y-14295384D01*
G01X25646947Y-14287027D01*
G01X25663866Y-14275512D01*
G01X25678495Y-14261198D01*
G01X25690375Y-14244533D01*
G01X25699137Y-14226036D01*
G01X25704505Y-14206286D01*
G01X25706314Y-14185900D01*
G01X25704505Y-14165514D01*
G01X25699137Y-14145764D01*
G01X25690375Y-14127267D01*
G01X25678495Y-14110602D01*
G01X25663866Y-14096288D01*
G01X25646947Y-14084773D01*
G01X25628264Y-14076416D01*
G01X25608402Y-14071478D01*
G01X25587981Y-14070114D01*
G01X25567639Y-14072365D01*
G01X25548011Y-14078162D01*
G01X25529709Y-14087324D01*
G01X25513306Y-14099564D01*
G01X25499314Y-14114500D01*
G01X25499314Y-14003300D01*
G01X25513306Y-14018236D01*
G01X25529709Y-14030476D01*
G01X25548011Y-14039638D01*
G01X25567639Y-14045435D01*
G01X25587981Y-14047686D01*
G01X25608402Y-14046322D01*
G01X25628264Y-14041384D01*
G01X25646947Y-14033027D01*
G01X25663866Y-14021512D01*
G01X25678495Y-14007198D01*
G01X25690375Y-13990533D01*
G01X25699137Y-13972036D01*
G01X25704505Y-13952286D01*
G01X25706314Y-13931900D01*
G01X25704505Y-13911514D01*
G01X25699137Y-13891764D01*
G01X25690375Y-13873267D01*
G01X25678495Y-13856602D01*
G01X25663866Y-13842288D01*
G01X25646947Y-13830773D01*
G01X25628264Y-13822416D01*
G01X25608402Y-13817478D01*
G01X25587981Y-13816114D01*
G01X25567639Y-13818365D01*
G01X25548011Y-13824162D01*
G01X25529709Y-13833324D01*
G01X25513306Y-13845564D01*
G01X25499314Y-13860500D01*
G01X25499314Y-13749300D01*
G01X25513306Y-13764236D01*
G01X25529709Y-13776476D01*
G01X25548011Y-13785638D01*
G01X25567639Y-13791435D01*
G01X25587981Y-13793686D01*
G01X25608402Y-13792322D01*
G01X25628264Y-13787384D01*
G01X25646947Y-13779027D01*
G01X25663866Y-13767512D01*
G01X25678495Y-13753198D01*
G01X25690375Y-13736533D01*
G01X25699137Y-13718036D01*
G01X25704505Y-13698286D01*
G01X25706314Y-13677900D01*
G01X25704505Y-13657514D01*
G01X25699137Y-13637764D01*
G01X25690375Y-13619267D01*
G01X25678495Y-13602602D01*
G01X25663866Y-13588288D01*
G01X25646947Y-13576773D01*
G01X25628264Y-13568416D01*
G01X25608402Y-13563478D01*
G01X25587981Y-13562114D01*
G01X25567639Y-13564365D01*
G01X25548011Y-13570162D01*
G01X25529709Y-13579324D01*
G01X25513306Y-13591564D01*
G01X25499314Y-13606500D01*
G01X25499314Y-13495300D01*
G01X25513306Y-13510236D01*
G01X25529709Y-13522476D01*
G01X25548011Y-13531638D01*
G01X25567639Y-13537435D01*
G01X25587981Y-13539686D01*
G01X25608402Y-13538322D01*
G01X25628264Y-13533384D01*
G01X25646947Y-13525027D01*
G01X25663866Y-13513512D01*
G01X25678495Y-13499198D01*
G01X25690375Y-13482533D01*
G01X25699137Y-13464036D01*
G01X25704505Y-13444286D01*
G01X25706314Y-13423900D01*
G01X25704505Y-13403514D01*
G01X25699137Y-13383764D01*
G01X25690375Y-13365267D01*
G01X25678495Y-13348602D01*
G01X25663866Y-13334288D01*
G01X25646947Y-13322773D01*
G01X25628264Y-13314416D01*
G01X25608402Y-13309478D01*
G01X25587981Y-13308114D01*
G01X25567639Y-13310365D01*
G01X25548011Y-13316162D01*
G01X25529709Y-13325324D01*
G01X25513306Y-13337564D01*
G01X25499314Y-13352500D01*
G01X25499314Y-13241300D01*
G01X25513306Y-13256236D01*
G01X25529709Y-13268476D01*
G01X25548011Y-13277638D01*
G01X25567639Y-13283435D01*
G01X25587981Y-13285686D01*
G01X25608402Y-13284322D01*
G01X25628264Y-13279384D01*
G01X25646947Y-13271027D01*
G01X25663866Y-13259512D01*
G01X25678495Y-13245198D01*
G01X25690375Y-13228533D01*
G01X25699137Y-13210036D01*
G01X25704505Y-13190286D01*
G01X25706314Y-13169900D01*
G01X25704505Y-13149514D01*
G01X25699137Y-13129764D01*
G01X25690375Y-13111267D01*
G01X25678495Y-13094602D01*
G01X25663866Y-13080288D01*
G01X25646947Y-13068773D01*
G01X25628264Y-13060416D01*
G01X25608402Y-13055478D01*
G01X25587981Y-13054114D01*
G01X25567639Y-13056365D01*
G01X25548011Y-13062162D01*
G01X25529709Y-13071324D01*
G01X25513306Y-13083564D01*
G01X25499314Y-13098500D01*
G01X25499314Y-12987300D01*
G01X25513306Y-13002236D01*
G01X25529709Y-13014476D01*
G01X25548011Y-13023638D01*
G01X25567639Y-13029435D01*
G01X25587981Y-13031686D01*
G01X25608402Y-13030322D01*
G01X25628264Y-13025384D01*
G01X25646947Y-13017027D01*
G01X25663866Y-13005512D01*
G01X25678495Y-12991198D01*
G01X25690375Y-12974533D01*
G01X25699137Y-12956036D01*
G01X25704505Y-12936286D01*
G01X25706314Y-12915900D01*
G01X25704505Y-12895514D01*
G01X25699137Y-12875764D01*
G01X25690375Y-12857267D01*
G01X25678495Y-12840602D01*
G01X25663866Y-12826288D01*
G01X25646947Y-12814773D01*
G01X25628264Y-12806416D01*
G01X25608402Y-12801478D01*
G01X25587981Y-12800114D01*
G01X25567639Y-12802365D01*
G01X25548011Y-12808162D01*
G01X25529709Y-12817324D01*
G01X25513306Y-12829564D01*
G01X25499314Y-12844500D01*
G01X25499314Y-12733300D01*
G01X25513306Y-12748236D01*
G01X25529709Y-12760476D01*
G01X25548011Y-12769638D01*
G01X25567639Y-12775435D01*
G01X25587981Y-12777686D01*
G01X25608402Y-12776322D01*
G01X25628264Y-12771384D01*
G01X25646947Y-12763027D01*
G01X25663866Y-12751512D01*
G01X25678495Y-12737198D01*
G01X25690375Y-12720533D01*
G01X25699137Y-12702036D01*
G01X25704505Y-12682286D01*
G01X25706314Y-12661900D01*
G01X25704505Y-12641514D01*
G01X25699137Y-12621764D01*
G01X25690375Y-12603267D01*
G01X25678495Y-12586602D01*
G01X25663866Y-12572288D01*
G01X25646947Y-12560773D01*
G01X25628264Y-12552416D01*
G01X25608402Y-12547478D01*
G01X25587981Y-12546114D01*
G01X25567639Y-12548365D01*
G01X25548011Y-12554162D01*
G01X25529709Y-12563324D01*
G01X25513306Y-12575564D01*
G01X25499314Y-12590500D01*
G01X25499314Y-12479300D01*
G01X25513306Y-12494236D01*
G01X25529709Y-12506476D01*
G01X25548011Y-12515638D01*
G01X25567639Y-12521435D01*
G01X25587981Y-12523686D01*
G01X25608402Y-12522322D01*
G01X25628264Y-12517384D01*
G01X25646947Y-12509027D01*
G01X25663866Y-12497512D01*
G01X25678495Y-12483198D01*
G01X25690375Y-12466533D01*
G01X25699137Y-12448036D01*
G01X25704505Y-12428286D01*
G01X25706314Y-12407900D01*
G01X25704505Y-12387514D01*
G01X25699137Y-12367764D01*
G01X25690375Y-12349267D01*
G01X25678495Y-12332602D01*
G01X25663866Y-12318288D01*
G01X25646947Y-12306773D01*
G01X25628264Y-12298416D01*
G01X25608402Y-12293478D01*
G01X25587981Y-12292114D01*
G01X25567639Y-12294365D01*
G01X25548011Y-12300162D01*
G01X25529709Y-12309324D01*
G01X25513306Y-12321564D01*
G01X25499314Y-12336500D01*
G01X25499314Y-12225300D01*
G01X25513306Y-12240236D01*
G01X25529709Y-12252476D01*
G01X25548011Y-12261638D01*
G01X25567639Y-12267435D01*
G01X25587981Y-12269686D01*
G01X25608402Y-12268322D01*
G01X25628264Y-12263384D01*
G01X25646947Y-12255027D01*
G01X25663866Y-12243512D01*
G01X25678495Y-12229198D01*
G01X25690375Y-12212533D01*
G01X25699137Y-12194036D01*
G01X25704505Y-12174286D01*
G01X25706314Y-12153900D01*
G01X25704505Y-12133514D01*
G01X25699137Y-12113764D01*
G01X25690375Y-12095267D01*
G01X25678495Y-12078602D01*
G01X25663866Y-12064288D01*
G01X25646947Y-12052773D01*
G01X25628264Y-12044416D01*
G01X25608402Y-12039478D01*
G01X25587981Y-12038114D01*
G01X25567639Y-12040365D01*
G01X25548011Y-12046162D01*
G01X25529709Y-12055324D01*
G01X25513306Y-12067564D01*
G01X25499314Y-12082500D01*
G01X25499314Y-11971300D01*
G01X25513306Y-11986236D01*
G01X25529709Y-11998476D01*
G01X25548011Y-12007638D01*
G01X25567639Y-12013435D01*
G01X25587981Y-12015686D01*
G01X25608402Y-12014322D01*
G01X25628264Y-12009384D01*
G01X25646947Y-12001027D01*
G01X25663866Y-11989512D01*
G01X25678495Y-11975198D01*
G01X25690375Y-11958533D01*
G01X25699137Y-11940036D01*
G01X25704505Y-11920286D01*
G01X25706314Y-11899900D01*
G01X25704505Y-11879514D01*
G01X25699137Y-11859764D01*
G01X25690375Y-11841267D01*
G01X25678495Y-11824602D01*
G01X25663866Y-11810288D01*
G01X25646947Y-11798773D01*
G01X25628264Y-11790416D01*
G01X25608402Y-11785478D01*
G01X25587981Y-11784114D01*
G01X25567639Y-11786365D01*
G01X25548011Y-11792162D01*
G01X25529709Y-11801324D01*
G01X25513306Y-11813564D01*
G01X25499314Y-11828500D01*
G01X25499314Y-11717300D01*
G01X25513306Y-11732236D01*
G01X25529709Y-11744476D01*
G01X25548011Y-11753638D01*
G01X25567639Y-11759435D01*
G01X25587981Y-11761686D01*
G01X25608402Y-11760322D01*
G01X25628264Y-11755384D01*
G01X25646947Y-11747027D01*
G01X25663866Y-11735512D01*
G01X25678495Y-11721198D01*
G01X25690375Y-11704533D01*
G01X25699137Y-11686036D01*
G01X25704505Y-11666286D01*
G01X25706314Y-11645900D01*
G01X25704505Y-11625514D01*
G01X25699137Y-11605764D01*
G01X25690375Y-11587267D01*
G01X25678495Y-11570602D01*
G01X25663866Y-11556288D01*
G01X25646947Y-11544773D01*
G01X25628264Y-11536416D01*
G01X25608402Y-11531478D01*
G01X25587981Y-11530114D01*
G01X25567639Y-11532365D01*
G01X25548011Y-11538162D01*
G01X25529709Y-11547324D01*
G01X25513306Y-11559564D01*
G01X25499314Y-11574500D01*
G01X25499314Y-11463300D01*
G01X25513306Y-11478236D01*
G01X25529709Y-11490476D01*
G01X25548011Y-11499638D01*
G01X25567639Y-11505435D01*
G01X25587981Y-11507686D01*
G01X25608402Y-11506322D01*
G01X25628264Y-11501384D01*
G01X25646947Y-11493027D01*
G01X25663866Y-11481512D01*
G01X25678495Y-11467198D01*
G01X25690375Y-11450533D01*
G01X25699137Y-11432036D01*
G01X25704505Y-11412286D01*
G01X25706314Y-11391900D01*
G01X25704505Y-11371514D01*
G01X25699137Y-11351764D01*
G01X25690375Y-11333267D01*
G01X25678495Y-11316602D01*
G01X25663866Y-11302288D01*
G01X25646947Y-11290773D01*
G01X25628264Y-11282416D01*
G01X25608402Y-11277478D01*
G01X25587981Y-11276114D01*
G01X25567639Y-11278365D01*
G01X25548011Y-11284162D01*
G01X25529709Y-11293324D01*
G01X25513306Y-11305564D01*
G01X25499314Y-11320500D01*
G01X25499314Y-11209300D01*
G01X25513306Y-11224236D01*
G01X25529709Y-11236476D01*
G01X25548011Y-11245638D01*
G01X25567639Y-11251435D01*
G01X25587981Y-11253686D01*
G01X25608402Y-11252322D01*
G01X25628264Y-11247384D01*
G01X25646947Y-11239027D01*
G01X25663866Y-11227512D01*
G01X25678495Y-11213198D01*
G01X25690375Y-11196533D01*
G01X25699137Y-11178036D01*
G01X25704505Y-11158286D01*
G01X25706314Y-11137900D01*
G01X25704505Y-11117514D01*
G01X25699137Y-11097764D01*
G01X25690375Y-11079267D01*
G01X25678495Y-11062602D01*
G01X25663866Y-11048288D01*
G01X25646947Y-11036773D01*
G01X25628264Y-11028416D01*
G01X25608402Y-11023478D01*
G01X25587981Y-11022114D01*
G01X25567639Y-11024365D01*
G01X25548011Y-11030162D01*
G01X25529709Y-11039324D01*
G01X25513306Y-11051564D01*
G01X25499314Y-11066500D01*
G01X25499314Y-10955300D01*
G01X25512036Y-10969084D01*
G01X25526817Y-10980633D01*
G01X25543268Y-10989645D01*
G01X25560959Y-10995883D01*
G01X25579424Y-10999183D01*
G01X25598180Y-10999459D01*
G01X25616734Y-10996704D01*
G01X25796386Y-11176355D01*
G01X25796386Y-11418037D01*
G01X25797562Y-11429979D01*
G01X25801045Y-11441462D01*
G01X25806702Y-11452046D01*
G01X25814315Y-11461322D01*
G01X25851278Y-11498285D01*
G01X25860554Y-11505898D01*
G01X25871138Y-11511555D01*
G01X25882621Y-11515038D01*
G01X25894563Y-11516214D01*
G01X26136245Y-11516214D01*
G01X26918815Y-12298785D01*
G01X26928091Y-12306398D01*
G01X26938674Y-12312054D01*
G01X26950158Y-12315538D01*
G01X26962100Y-12316714D01*
G01X27114500Y-12316714D01*
G01X27129149Y-12314935D01*
G01X27142948Y-12309702D01*
G01X27155092Y-12301319D01*
G01X27164878Y-12290274D01*
G01X27171736Y-12277207D01*
G01X27175268Y-12262879D01*
G01X27175268Y-12248121D01*
G01X27171736Y-12233793D01*
G01X27164878Y-12220726D01*
G01X27155092Y-12209681D01*
G01X27142948Y-12201298D01*
G01X27129149Y-12196065D01*
G01X27114500Y-12194286D01*
G01X26987456Y-12194286D01*
G01X26227234Y-11434064D01*
G01X26693217Y-11434064D01*
G01X26704810Y-11442668D01*
G01X26718161Y-11448161D01*
G01X26732453Y-11450205D01*
G01X26746808Y-11448675D01*
G01X26760348Y-11443666D01*
G01X26772243Y-11435484D01*
G01X26781763Y-11424630D01*
G01X26788324Y-11411770D01*
G01X26791526Y-11397693D01*
G01X26802932Y-11394581D01*
G01X26813476Y-11389233D01*
G01X26822724Y-11381868D01*
G01X26830297Y-11372789D01*
G01X26835883Y-11362369D01*
G01X26839253Y-11351036D01*
G01X26850717Y-11346137D01*
G01X26860877Y-11338913D01*
G01X26869270Y-11329694D01*
G01X26875511Y-11318902D01*
G01X26879316Y-11307030D01*
G01X26892347Y-11301461D01*
G01X26903650Y-11292913D01*
G01X26912558Y-11281890D01*
G01X26918543Y-11269044D01*
G01X26921253Y-11255134D01*
G01X26933860Y-11247846D01*
G01X26944269Y-11237662D01*
G01X26951829Y-11225216D01*
G01X26956070Y-11211285D01*
G01X26956727Y-11196738D01*
G01X26953760Y-11182481D01*
G01X26947353Y-11169404D01*
G01X26937905Y-11158323D01*
G01X26926007Y-11149928D01*
G01X26912399Y-11144742D01*
G01X26897931Y-11143090D01*
G01X26883505Y-11145074D01*
G01X26870020Y-11150570D01*
G01X26858317Y-11159236D01*
G01X26164183Y-11159236D01*
G01X26153254Y-11151013D01*
G01X26140710Y-11145561D01*
G01X26127241Y-11143182D01*
G01X26113589Y-11144005D01*
G01X26100504Y-11147985D01*
G01X26088705Y-11154904D01*
G01X26078843Y-11164381D01*
G01X26071460Y-11175894D01*
G01X26066961Y-11188810D01*
G01X26052069Y-11192411D01*
G01X26038628Y-11199766D01*
G01X26027567Y-11210368D01*
G01X26019650Y-11223485D01*
G01X26015422Y-11238211D01*
G01X26000541Y-11242016D01*
G01X25987170Y-11249573D01*
G01X25976236Y-11260360D01*
G01X25968498Y-11273627D01*
G01X25964492Y-11288455D01*
G01X25949928Y-11292535D01*
G01X25936903Y-11300224D01*
G01X25926294Y-11311003D01*
G01X25918814Y-11324149D01*
G01X25918814Y-11151000D01*
G01X25917638Y-11139058D01*
G01X25914154Y-11127574D01*
G01X25908497Y-11116991D01*
G01X25900885Y-11107715D01*
G01X25703304Y-10910134D01*
G01X25706110Y-10890774D01*
G01X25705617Y-10871218D01*
G01X25701841Y-10852024D01*
G01X25694887Y-10833739D01*
G01X25684956Y-10816885D01*
G01X25672329Y-10801944D01*
G01X25657368Y-10789341D01*
G01X25640499Y-10779435D01*
G01X25622204Y-10772510D01*
G01X25603004Y-10768763D01*
G01X25583447Y-10768301D01*
G01X25564091Y-10771137D01*
G01X25545489Y-10777191D01*
G01X25528172Y-10786288D01*
G01X25512632Y-10798171D01*
G01X25499314Y-10812500D01*
G37*
G36*
G01X28439364Y-10460035D02*
G01X28439364Y-10201390D01*
G01X28454039Y-10203069D01*
G01X28468665Y-10201007D01*
G01X28482304Y-10195336D01*
G01X28494080Y-10186421D01*
G01X28503238Y-10174832D01*
G01X28511064Y-10185089D01*
G01X28520953Y-10193375D01*
G01X28532422Y-10199283D01*
G01X28544909Y-10202525D01*
G01X28557804Y-10202942D01*
G01X28570474Y-10200513D01*
G01X28582301Y-10195358D01*
G01X28592704Y-10187729D01*
G01X28601176Y-10177998D01*
G01X28607300Y-10166644D01*
G01X28619793Y-10164197D01*
G01X28631456Y-10159099D01*
G01X28641736Y-10151590D01*
G01X28650141Y-10142031D01*
G01X28656272Y-10130875D01*
G01X28659836Y-10118654D01*
G01X28659836Y-10680507D01*
G01X28439364Y-10460035D01*
G37*
G54D10*
G01X25499314Y-10812500D02*
G01X25499314Y-10701300D01*
G03X25706314Y-10629900I91186J71400D01*
G03X25499314Y-10558500I-115814J0D01*
G01X25499314Y-10447300D01*
G03X25616734Y-10488704I91186J71400D01*
G01X26194915Y-11066885D01*
G03X26238200Y-11084814I43285J43285D01*
G01X26758900Y-11084814D01*
G03X26758900Y-10962386I0J61214D01*
G01X26263556Y-10962386D01*
G01X25703304Y-10402134D01*
G03X25640499Y-10271435I-112804J26234D01*
G03X25499314Y-10304500I-49999J-104465D01*
G01X25499314Y-7884414D01*
G01X29585024Y-7884414D01*
G03X29584486Y-7890600I35276J-6186D01*
G01X29584486Y-8060600D01*
G03X29620300Y-8096414I35814J0D01*
G01X29790300Y-8096414D01*
G03X29826114Y-8060600I0J35814D01*
G01X29826114Y-7890600D01*
G03X29825576Y-7884414I-35814J0D01*
G01X29880047Y-7884414D01*
G03X29959300Y-8096414I79253J-91186D01*
G03X30038553Y-7884414I0J120814D01*
G01X30134047Y-7884414D01*
G03X30213300Y-8096414I79253J-91186D01*
G03X30292553Y-7884414I0J120814D01*
G01X30388047Y-7884414D01*
G03X30467300Y-8096414I79253J-91186D01*
G03X30546553Y-7884414I0J120814D01*
G01X31427686Y-7884414D01*
G01X31427686Y-10296261D01*
G03X31227786Y-10375900I-84086J-79639D01*
G03X31427686Y-10455539I115814J0D01*
G01X31427686Y-10550261D01*
G03X31227786Y-10629900I-84086J-79639D01*
G03X31427686Y-10709539I115814J0D01*
G01X31427686Y-10804261D01*
G03X31227786Y-10883900I-84086J-79639D01*
G03X31427686Y-10963539I115814J0D01*
G01X31427686Y-11058261D01*
G03X31227786Y-11137900I-84086J-79639D01*
G03X31427686Y-11217539I115814J0D01*
G01X31427686Y-11312261D01*
G03X31227786Y-11391900I-84086J-79639D01*
G03X31427686Y-11471539I115814J0D01*
G01X31427686Y-11566261D01*
G03X31227786Y-11645900I-84086J-79639D01*
G03X31427686Y-11725539I115814J0D01*
G01X31427686Y-11820261D01*
G03X31227786Y-11899900I-84086J-79639D01*
G03X31427686Y-11979539I115814J0D01*
G01X31427686Y-12074261D01*
G03X31227786Y-12153900I-84086J-79639D01*
G03X31427686Y-12233539I115814J0D01*
G01X31427686Y-12328261D01*
G03X31227786Y-12407900I-84086J-79639D01*
G03X31427686Y-12487539I115814J0D01*
G01X31427686Y-12582261D01*
G03X31227786Y-12661900I-84086J-79639D01*
G03X31427686Y-12741539I115814J0D01*
G01X31427686Y-12836261D01*
G03X31227786Y-12915900I-84086J-79639D01*
G03X31427686Y-12995539I115814J0D01*
G01X31427686Y-13090261D01*
G03X31227786Y-13169900I-84086J-79639D01*
G03X31427686Y-13249539I115814J0D01*
G01X31427686Y-13344261D01*
G03X31227786Y-13423900I-84086J-79639D01*
G03X31427686Y-13503539I115814J0D01*
G01X31427686Y-13598261D01*
G03X31227786Y-13677900I-84086J-79639D01*
G03X31427686Y-13757539I115814J0D01*
G01X31427686Y-13852261D01*
G03X31227786Y-13931900I-84086J-79639D01*
G03X31427686Y-14011539I115814J0D01*
G01X31427686Y-14106261D01*
G03X31227786Y-14185900I-84086J-79639D01*
G03X31427686Y-14265539I115814J0D01*
G01X31427686Y-14360261D01*
G03X31227786Y-14439900I-84086J-79639D01*
G03X31427686Y-14519539I115814J0D01*
G01X31427686Y-14614261D01*
G03X31227786Y-14693900I-84086J-79639D01*
G03X31427686Y-14773539I115814J0D01*
G01X31427686Y-14868261D01*
G03X31227786Y-14947900I-84086J-79639D01*
G03X31427686Y-15027539I115814J0D01*
G01X31427686Y-15122261D01*
G03X31227786Y-15201900I-84086J-79639D01*
G03X31427686Y-15281539I115814J0D01*
G01X31427686Y-15376261D01*
G03X31227786Y-15455900I-84086J-79639D01*
G03X31427686Y-15535539I115814J0D01*
G01X31427686Y-15594320D01*
G03X31423600Y-15594086I-4086J-35580D01*
G01X31263600Y-15594086D01*
G03X31227786Y-15629900I0J-35814D01*
G01X31227786Y-15789900D01*
G03X31233203Y-15808838I35814J0D01*
G01X30829134Y-15801921D01*
G01X30828473Y-15801916D01*
G01X27914142Y-15807821D01*
G03X27949817Y-15738178I-50139J69643D01*
G01X27949817Y-15658178D01*
G03X27778189Y-15658178I-85814J0D01*
G01X27778189Y-15738178D01*
G03X27814147Y-15808023I85814J0D01*
G01X27047679Y-15809576D01*
G03X27085811Y-15738229I-47682J71348D01*
G01X27085811Y-15658229D01*
G03X26914183Y-15658229I-85814J0D01*
G01X26914183Y-15738229D01*
G03X26952605Y-15809769I85814J0D01*
G01X25698436Y-15812310D01*
G03X25706314Y-15789900I-27936J22410D01*
G01X25706314Y-15629900D01*
G03X25670500Y-15594086I-35814J0D01*
G01X25510500Y-15594086D01*
G03X25499314Y-15595878I0J-35814D01*
G01X25499314Y-15527300D01*
G03X25706314Y-15455900I91186J71400D01*
G03X25499314Y-15384500I-115814J0D01*
G01X25499314Y-15273300D01*
G03X25706314Y-15201900I91186J71400D01*
G03X25499314Y-15130500I-115814J0D01*
G01X25499314Y-15019300D01*
G03X25706314Y-14947900I91186J71400D01*
G03X25499314Y-14876500I-115814J0D01*
G01X25499314Y-14765300D01*
G03X25706314Y-14693900I91186J71400D01*
G03X25499314Y-14622500I-115814J0D01*
G01X25499314Y-14511300D01*
G03X25706314Y-14439900I91186J71400D01*
G03X25499314Y-14368500I-115814J0D01*
G01X25499314Y-14257300D01*
G03X25706314Y-14185900I91186J71400D01*
G03X25499314Y-14114500I-115814J0D01*
G01X25499314Y-14003300D01*
G03X25706314Y-13931900I91186J71400D01*
G03X25499314Y-13860500I-115814J0D01*
G01X25499314Y-13749300D01*
G03X25706314Y-13677900I91186J71400D01*
G03X25499314Y-13606500I-115814J0D01*
G01X25499314Y-13495300D01*
G03X25706314Y-13423900I91186J71400D01*
G03X25499314Y-13352500I-115814J0D01*
G01X25499314Y-13241300D01*
G03X25706314Y-13169900I91186J71400D01*
G03X25499314Y-13098500I-115814J0D01*
G01X25499314Y-12987300D01*
G03X25706314Y-12915900I91186J71400D01*
G03X25499314Y-12844500I-115814J0D01*
G01X25499314Y-12733300D01*
G03X25706314Y-12661900I91186J71400D01*
G03X25499314Y-12590500I-115814J0D01*
G01X25499314Y-12479300D01*
G03X25706314Y-12407900I91186J71400D01*
G03X25499314Y-12336500I-115814J0D01*
G01X25499314Y-12225300D01*
G03X25706314Y-12153900I91186J71400D01*
G03X25499314Y-12082500I-115814J0D01*
G01X25499314Y-11971300D01*
G03X25706314Y-11899900I91186J71400D01*
G03X25499314Y-11828500I-115814J0D01*
G01X25499314Y-11717300D01*
G03X25706314Y-11645900I91186J71400D01*
G03X25499314Y-11574500I-115814J0D01*
G01X25499314Y-11463300D01*
G03X25706314Y-11391900I91186J71400D01*
G03X25499314Y-11320500I-115814J0D01*
G01X25499314Y-11209300D01*
G03X25706314Y-11137900I91186J71400D01*
G03X25499314Y-11066500I-115814J0D01*
G01X25499314Y-10955300D01*
G03X25616734Y-10996704I91186J71400D01*
G01X25796386Y-11176355D01*
G01X25796386Y-11418037D01*
G03X25814315Y-11461322I61214J0D01*
G01X25851278Y-11498285D01*
G03X25894563Y-11516214I43285J43285D01*
G01X26136245Y-11516214D01*
G01X26918815Y-12298785D01*
G03X26962100Y-12316714I43285J43285D01*
G01X27114500Y-12316714D01*
G03X27114500Y-12194286I0J61214D01*
G01X26987456Y-12194286D01*
G01X26227234Y-11434064D01*
G01X26693217Y-11434064D01*
G03X26791526Y-11397693I40283J42164D01*
G03X26822724Y-11381868I-9565J57524D01*
G03X26839253Y-11351036I-40764J41699D01*
G03X26879316Y-11307030I-17054J55765D01*
G03X26921253Y-11255134I-16231J56010D01*
G03X26947353Y-11169404I-22653J53734D01*
G03X26858317Y-11159236I-48753J-31996D01*
G01X26164183Y-11159236D01*
G03X26066961Y-11188810I-40283J-42164D01*
G03X26015422Y-11238211I6139J-57990D01*
G03X25964492Y-11288455I6878J-57907D01*
G03X25918814Y-11324149I8317J-57718D01*
G01X25918814Y-11151000D01*
G03X25900885Y-11107715I-61214J0D01*
G01X25703304Y-10910134D01*
G03X25640499Y-10779435I-112804J26234D01*
G03X25499314Y-10812500I-49999J-104465D01*
G01X27127200Y-11889486D02*
G03X27127200Y-12011914I0J-61214D01*
G01X27586686Y-12011914D01*
G01X27586686Y-12856549D01*
G03X27571700Y-12854686I-14986J-59351D01*
G01X27470100Y-12854686D01*
G03X27426815Y-12872615I0J-61214D01*
G01X27406644Y-12892786D01*
G01X27279600Y-12892786D01*
G03X27279600Y-13015214I0J-61214D01*
G01X27432000Y-13015214D01*
G03X27475285Y-12997285I0J61214D01*
G01X27495456Y-12977114D01*
G01X27571700Y-12977114D01*
G03X27586686Y-12975251I0J61214D01*
G01X27586686Y-13251405D01*
G01X27534875Y-13303216D01*
G03X27505066Y-13401634I11425J-57184D01*
G03X27603484Y-13371825I41234J41234D01*
G01X27669505Y-13305805D01*
G03X27683714Y-13271500I-34305J34305D01*
G01X27683714Y-12132313D01*
G03X27694636Y-12148463I53086J24133D01*
G01X27694636Y-13660435D01*
G01X27659270Y-13695801D01*
G03X27619366Y-13795334I1330J-58299D01*
G03X27718899Y-13755430I41234J41234D01*
G01X27766614Y-13707714D01*
G03X27778964Y-13677900I-29814J29814D01*
G01X27778964Y-12148463D01*
G03X27769468Y-12059875I-42164J40283D01*
G03X27683714Y-12084047I-32668J-48305D01*
G01X27683714Y-11999214D01*
G01X28600400Y-11999214D01*
G03X28643685Y-11981285I0J61214D01*
G01X28718285Y-11906685D01*
G03X28736214Y-11863400I-43285J43285D01*
G01X28736214Y-11747500D01*
G03X28613786Y-11747500I-61214J0D01*
G01X28613786Y-11838045D01*
G01X28575044Y-11876786D01*
G01X27696414Y-11876786D01*
G01X27696414Y-11671300D01*
G03X27678485Y-11628015I-61214J0D01*
G01X27378914Y-11328444D01*
G01X27378914Y-10820400D01*
G03X27363347Y-10779614I-61214J0D01*
G01X27791080Y-10779614D01*
G03X27811089Y-10922008I72723J-62383D01*
G03X27863803Y-11097831I52713J-80010D01*
G03X27916516Y-10922008I0J95814D01*
G03X27936525Y-10779614I-52713J80010D01*
G01X28311492Y-10779614D01*
G01X28367386Y-10835508D01*
G03X28397200Y-10847857I29814J29814D01*
G01X28534717Y-10847857D01*
G03X28596336Y-10859964I40283J42164D01*
G01X28596336Y-10881717D01*
G03X28593599Y-10959208I42164J-40283D01*
G03X28670250Y-10970913I44901J37208D01*
G03X28746901Y-10959208I31750J48913D01*
G03X28744164Y-10881717I-44901J37208D01*
G01X28744164Y-9881838D01*
G03X28761436Y-9885740I21336J54271D01*
G01X28761436Y-10883900D01*
G03X28773786Y-10913714I42164J0D01*
G01X28808801Y-10948730D01*
G03X28846686Y-11002024I58299J1330D01*
G03X28910238Y-10986639I20414J54624D01*
G03X28989652Y-10988453I40682J41779D01*
G03X28997196Y-10909377I-38732J43593D01*
G03X29025289Y-10844419I-28496J50877D01*
G03X28970030Y-10800201I-56589J-14081D01*
G01X28934664Y-10764835D01*
G01X28934664Y-10149483D01*
G03X28945739Y-10085407I-42164J40283D01*
G03X28890614Y-10050916I-53239J-23793D01*
G01X28890614Y-9817900D01*
G03X28880553Y-9790565I-42164J0D01*
G03X28833101Y-9734404I-58303J-1135D01*
G03X28768399Y-9769326I-10850J-57296D01*
G03X28744164Y-9773297I-2899J-58242D01*
G01X28744164Y-8970965D01*
G01X29036965Y-8678164D01*
G01X29957117Y-8678164D01*
G03X30055714Y-8636000I40283J42164D01*
G03X29957117Y-8593836I-58314J0D01*
G01X29019500Y-8593836D01*
G03X28989686Y-8606186I0J-42164D01*
G01X28672186Y-8923686D01*
G03X28659836Y-8953500I29814J-29814D01*
G01X28659836Y-9581016D01*
G01X28659280Y-9581001D01*
G01X28623730Y-9545451D01*
G03X28633528Y-9463540I-36030J45851D01*
G01X28633528Y-8641478D01*
G03X28582371Y-8547348I-45828J36060D01*
G03X28549200Y-8649217I5329J-58070D01*
G01X28549200Y-9455802D01*
G03X28541849Y-9463570I38500J-43798D01*
G01X28248864Y-9170585D01*
G01X28248864Y-8650883D01*
G03X28206700Y-8552286I-42164J40283D01*
G03X28164536Y-8650883I0J-58314D01*
G01X28164536Y-9188050D01*
G03X28176886Y-9217865I42164J0D01*
G01X28599651Y-9640630D01*
G03X28659836Y-9697584I58299J1330D01*
G01X28659836Y-9820325D01*
G03X28614430Y-9796901I-46736J-34875D01*
G01X28388914Y-9571386D01*
G03X28359100Y-9559036I-29814J-29814D01*
G01X27269083Y-9559036D01*
G03X27170486Y-9601200I-40283J-42164D01*
G03X27269083Y-9643364I58314J0D01*
G01X28341635Y-9643364D01*
G01X28554801Y-9856530D01*
G03X28659836Y-9890075I58299J1330D01*
G01X28659836Y-9994818D01*
G03X28641604Y-9963946I-56896J-12782D01*
G03X28608755Y-9949577I-38664J-43654D01*
G03X28561807Y-9906043I-56615J-13973D01*
G03X28509695Y-9854726I-57927J-6707D01*
G03X28489964Y-9823532I-56615J-13973D01*
G03X28455456Y-9810434I-36884J-45167D01*
G03X28374298Y-9759406I-58256J-2601D01*
G03X28355036Y-9853318I22902J-53629D01*
G01X28355036Y-10477500D01*
G03X28367386Y-10507314I42164J0D01*
G01X28425608Y-10565537D01*
G03X28409494Y-10562336I-16114J-38963D01*
G01X27112749Y-10562336D01*
G03X27129914Y-10498416I-37789J44413D01*
G03X27076289Y-10459624I-54955J-19507D01*
G01X26964879Y-10348214D01*
G01X27234544Y-10348214D01*
G03X27295971Y-10350251I32356J48514D01*
G03X27399085Y-10406485I59829J-12949D01*
G01X28035605Y-9769964D01*
G01X28117800Y-9769964D01*
G03X28117800Y-9647536I0J61214D01*
G01X28010250Y-9647536D01*
G03X27966965Y-9665465I0J-61214D01*
G01X27496555Y-10135875D01*
G03X27479602Y-10062484I-51855J26675D01*
G03X27404417Y-10067036I-34902J-46716D01*
G01X27078583Y-10067036D01*
G03X27011134Y-10057600I-40283J-42164D01*
G03X26980740Y-10118547I27166J-51600D01*
G03X26943044Y-10181336I20062J-54755D01*
G01X26926183Y-10181336D01*
G03X26850541Y-10177129I-40283J-42164D01*
G03X26834577Y-10251186I35359J-46371D01*
G01X26740456Y-10251186D01*
G03X26671496Y-10254305I-32356J-48514D01*
G03X26653829Y-10321036I36604J-45395D01*
G01X26573165Y-10321036D01*
G01X26508964Y-10256835D01*
G01X26508964Y-9321800D01*
G03X26496614Y-9291986I-42164J0D01*
G01X26486999Y-9282370D01*
G03X26449123Y-9229079I-58299J-1330D01*
G03X26385576Y-9244447I-20423J-54621D01*
G01X26359071Y-9217943D01*
G03X26355971Y-9186164I-57371J10443D01*
G01X27353617Y-9186164D01*
G03X27452214Y-9144000I40283J42164D01*
G03X27353617Y-9101836I-58314J0D01*
G01X25787268Y-9101836D01*
G03X25737820Y-9044000I-107863J-42164D01*
G03X25755536Y-8856729I-58415J100000D01*
G03X25709405Y-8593176I-46131J127739D01*
G01X25649405Y-8593176D01*
G03X25603274Y-8856729I0J-135814D01*
G03X25620990Y-9044000I76131J-87272D01*
G03X25620990Y-9244000I58415J-100000D01*
G03X25603274Y-9431271I58415J-100000D01*
G03X25649405Y-9694824I46131J-127739D01*
G01X25709405Y-9694824D01*
G03X25755536Y-9431271I0J135814D01*
G03X25737820Y-9244000I-76131J87272D01*
G03X25787268Y-9186164I-58415J100000D01*
G01X26247429Y-9186164D01*
G03X26285345Y-9263474I54271J-21336D01*
G01X26390256Y-9368385D01*
G01X26390256Y-10316120D01*
G03X26402605Y-10345934I42164J0D01*
G01X26487786Y-10431114D01*
G03X26517600Y-10443464I29814J29814D01*
G01X26855735Y-10443464D01*
G01X26967301Y-10555030D01*
G03X26967929Y-10562336I58299J1330D01*
G01X26367383Y-10562336D01*
G03X26269848Y-10593420I-40283J-42164D01*
G03X26226730Y-10635099I13202J-56800D01*
G03X26169041Y-10678808I-1230J-58301D01*
G03X26121510Y-10760749I5659J-58039D01*
G03X26214342Y-10779614I53190J23903D01*
G01X26969352Y-10779614D01*
G03X26983436Y-10835283I56248J-15386D01*
G01X26983436Y-11639021D01*
G01X26945955Y-11676501D01*
G03X26906051Y-11776034I1330J-58299D01*
G03X27005584Y-11736130I41234J41234D01*
G01X27020596Y-11721118D01*
G03X27092436Y-11791111I56686J-13682D01*
G03X27119447Y-11694517I-15154J56311D01*
G01X27119447Y-10898783D01*
G03X27132073Y-10838538I-42164J40283D01*
G03X27083651Y-10800535I-54791J-19962D01*
G03X27081848Y-10779614I-58051J5535D01*
G01X27272053Y-10779614D01*
G03X27256486Y-10820400I45647J-40786D01*
G01X27256486Y-11353800D01*
G03X27274415Y-11397085I61214J0D01*
G01X27573986Y-11696656D01*
G01X27573986Y-11889486D01*
G01X27127200Y-11889486D01*
G01X26778693Y-8077200D02*
G03X27000321Y-8077200I110814J0D01*
G03X26778693Y-8077200I-110814J0D01*
G01X27211158Y-15337819D02*
G03X27085811Y-15295865I-68159J4588D01*
G01X27085811Y-15225196D01*
G03X26914183Y-15225196I-85814J0D01*
G01X26914183Y-15335195D01*
G03X27081319Y-15362595I85814J0D01*
G03X27211158Y-15337819I61680J29365D01*
G01X27146895Y-9666586D02*
G01X27124914Y-9644605D01*
G01X27124914Y-9481156D01*
G03X27076400Y-9390486I-48514J32356D01*
G03X27027886Y-9481156I0J-58314D01*
G01X27027886Y-9664700D01*
G03X27042095Y-9699005I48514J0D01*
G01X27092496Y-9749405D01*
G03X27126800Y-9763614I34305J34305D01*
G01X27488440Y-9763614D01*
G03X27565252Y-9696683I19760J54864D01*
G03X27467917Y-9666586I-57052J-12067D01*
G01X27146895Y-9666586D01*
G01X27474022Y-8224351D02*
G03X27426134Y-8146288I-54722J20151D01*
G03X27339735Y-7966386I-86641J69088D01*
G03X27252552Y-8145909I-242J-110814D01*
G03X27198634Y-8221891I1648J-58291D01*
G03X27286556Y-8252714I55566J17691D01*
G01X27386944Y-8252714D01*
G03X27474022Y-8224351I32356J48514D01*
G01X27514368Y-15298257D02*
G03X27413726Y-15261336I-58231J-3103D01*
G01X27396083Y-15261336D01*
G03X27297486Y-15303500I-40283J-42164D01*
G03X27396083Y-15345664I58314J0D01*
G01X27418220Y-15345664D01*
G03X27514368Y-15298257I37917J44304D01*
G01X27373686Y-14554200D02*
G03X27490314Y-14554200I58314J0D01*
G03X27373686Y-14554200I-58314J0D01*
G01X27645964Y-15026036D02*
G03X27616150Y-15013686I-29814J-29814D01*
G01X27586583Y-15013686D01*
G03X27487986Y-15055850I-40283J-42164D01*
G03X27586583Y-15098014I58314J0D01*
G01X27598685Y-15098014D01*
G01X27681586Y-15180914D01*
G03X27711400Y-15193264I29814J29814D01*
G01X27784351Y-15193264D01*
G03X27778189Y-15225196I79652J-31932D01*
G01X27778189Y-15295865D01*
G03X27652842Y-15337819I-57188J-37366D01*
G03X27782681Y-15362595I68159J4588D01*
G03X27949817Y-15335195I81322J27400D01*
G01X27949817Y-15225196D01*
G03X27858789Y-15139540I-85814J0D01*
G01X27868565Y-15129764D01*
G01X28001317Y-15129764D01*
G03X28099914Y-15087600I40283J42164D01*
G03X28001317Y-15045436I-58314J0D01*
G01X27851100Y-15045436D01*
G03X27821286Y-15057786I0J-42164D01*
G01X27821286Y-15057786D01*
G01X27770135Y-15108936D01*
G01X27728865Y-15108936D01*
G01X27645964Y-15026036D01*
G01X29339286Y-11036344D02*
G01X28968744Y-11406886D01*
G01X27965356Y-11406886D01*
G01X27640385Y-11081915D01*
G03X27553815Y-11168485I-43285J-43285D01*
G01X27898385Y-11513055D01*
G03X27921416Y-11527536I43285J43285D01*
G01X27728865Y-11527536D01*
G01X27680799Y-11479470D01*
G03X27581266Y-11439566I-58299J-1330D01*
G03X27621170Y-11539099I41234J-41234D01*
G01X27681586Y-11599514D01*
G03X27711400Y-11611864I29814J29814D01*
G01X28935816Y-11611864D01*
G01X28935801Y-11612420D01*
G01X28859020Y-11689201D01*
G03X28819116Y-11788734I1330J-58299D01*
G03X28918649Y-11748830I41234J41234D01*
G01X28995430Y-11672049D01*
G03X29052384Y-11611864I-1330J58299D01*
G01X29908500Y-11611864D01*
G03X29938314Y-11599514I0J42164D01*
G01X30615485Y-10922344D01*
G01X30702697Y-10922344D01*
G03X30801294Y-10880180I40283J42164D01*
G03X30702697Y-10838016I-58314J0D01*
G01X30598020Y-10838016D01*
G03X30568205Y-10850366I0J-42164D01*
G01X29891035Y-11527536D01*
G01X29008746Y-11527536D01*
G03X29037385Y-11511385I-14646J59436D01*
G01X29443785Y-11104985D01*
G03X29461714Y-11061700I-43285J43285D01*
G01X29461714Y-9626556D01*
G01X29685085Y-9403185D01*
G03X29703014Y-9359900I-43285J43285D01*
G01X29703014Y-8846718D01*
G03X29580586Y-8846718I-61214J0D01*
G01X29580586Y-9334544D01*
G01X29357215Y-9557915D01*
G03X29339286Y-9601200I43285J-43285D01*
G01X29339286Y-11036344D01*
G01X28072186Y-15176500D02*
G03X28188814Y-15176500I58314J0D01*
G03X28072186Y-15176500I-58314J0D01*
G01X28143003Y-12783024D02*
G03X28139136Y-12867283I38297J-43976D01*
G01X28139136Y-13078817D01*
G03X28196440Y-13175414I42164J-40283D01*
G03X28249741Y-13266104I48360J-32586D01*
G03X28286964Y-13167717I-4941J58104D01*
G01X28286964Y-12886582D01*
G03X28294230Y-12815360I-42164J40283D01*
G03X28226994Y-12790770I-49430J-30939D01*
G03X28143003Y-12783024I-45694J-36230D01*
G01X29509999Y-14901120D02*
G01X29709999Y-14901120D01*
G03X29709999Y-14679492I0J110814D01*
G01X29509999Y-14679492D01*
G03X29509999Y-14901120I0J-110814D01*
G01X29509999Y-15521108D02*
G01X29709999Y-15521108D01*
G03X29709999Y-15299480I0J110814D01*
G01X29509999Y-15299480D01*
G03X29509999Y-15521108I0J-110814D01*
G01X29723186Y-8216900D02*
G03X29813856Y-8265414I58314J0D01*
G01X30434944Y-8265414D01*
G03X30525614Y-8216900I32356J48514D01*
G03X30434944Y-8168386I-58314J0D01*
G01X29813856Y-8168386D01*
G03X29723186Y-8216900I-32356J-48514D01*
G01X29969187Y-14990305D02*
G01X29969187Y-15190305D01*
G03X30190815Y-15190305I110814J0D01*
G01X30190815Y-14990305D01*
G03X29969187Y-14990305I-110814J0D01*
G01X31271995Y-8593176D02*
G01X31211995Y-8593176D01*
G03X31165864Y-8856729I0J-135814D01*
G03X31183580Y-9044000I76131J-87272D01*
G03X31183580Y-9244000I58415J-100000D01*
G03X31141762Y-9285986I58415J-100000D01*
G01X30086300Y-9285986D01*
G03X30043015Y-9303915I0J-61214D01*
G01X30017615Y-9329315D01*
G03X30104185Y-9415885I43285J-43285D01*
G01X30111656Y-9408414D01*
G01X31145750Y-9408414D01*
G03X31165864Y-9431271I96245J64414D01*
G03X31211995Y-9694824I46131J-127739D01*
G01X31271995Y-9694824D01*
G03X31318126Y-9431271I0J135814D01*
G03X31357291Y-9333092I-76131J87272D01*
G03X31300410Y-9244000I-115297J-10907D01*
G03X31300410Y-9044000I-58415J100000D01*
G03X31318126Y-8856729I-58415J100000D01*
G03X31271995Y-8593176I-46131J127739D01*
G01X28439364Y-10460035D02*
G01X28439364Y-10201390D01*
G03X28503238Y-10174832I13913J56630D01*
G03X28557804Y-10202942I49990J30025D01*
G03X28607300Y-10166644I-4575J58134D01*
G03X28641736Y-10151590I-4894J58108D01*
G03X28659836Y-10118654I-39329J43055D01*
G01X28659836Y-10680507D01*
G01X28439364Y-10460035D01*
G54D11*
G01X25590500Y-11725646D02*
G01X25590500Y-11751554D01*
G01X25590500Y-11566154D02*
G01X25590500Y-11540246D01*
G01X25670246Y-11645900D02*
G01X25696154Y-11645900D01*
G01X25590500Y-11217646D02*
G01X25590500Y-11243554D01*
G01X25590500Y-11058154D02*
G01X25590500Y-11032246D01*
G01X25670246Y-11137900D02*
G01X25696154Y-11137900D01*
G01X25590500Y-10709646D02*
G01X25590500Y-10735554D01*
G01X25590500Y-10550154D02*
G01X25590500Y-10524246D01*
G01X25670246Y-10629900D02*
G01X25696154Y-10629900D01*
G01X25809151Y-9559011D02*
G01X25835059Y-9559011D01*
G01X25549659Y-9559011D02*
G01X25523751Y-9559011D01*
G01X25679405Y-9658756D02*
G01X25679405Y-9684664D01*
G01X25809151Y-8728989D02*
G01X25835059Y-8728989D01*
G01X25549659Y-8728989D02*
G01X25523751Y-8728989D01*
G01X25679405Y-8629244D02*
G01X25679405Y-8603336D01*
G01X26950251Y-15698229D02*
G01X26924343Y-15698229D01*
G01X27049743Y-15698229D02*
G01X27075651Y-15698229D01*
G01X26999997Y-15608483D02*
G01X26999997Y-15582575D01*
G01X26950251Y-15280195D02*
G01X26924343Y-15280195D01*
G01X27049743Y-15280195D02*
G01X27075651Y-15280195D01*
G01X26999997Y-15175450D02*
G01X26999997Y-15149542D01*
G01X26999997Y-15384941D02*
G01X26999997Y-15410849D01*
G01X26814761Y-8077200D02*
G01X26788853Y-8077200D01*
G01X26964253Y-8077200D02*
G01X26990161Y-8077200D01*
G01X26889507Y-8002454D02*
G01X26889507Y-7976546D01*
G01X26889507Y-8151946D02*
G01X26889507Y-8177854D01*
G01X27814257Y-15698178D02*
G01X27788349Y-15698178D01*
G01X27913749Y-15698178D02*
G01X27939657Y-15698178D01*
G01X27864003Y-15608432D02*
G01X27864003Y-15582524D01*
G01X27814257Y-15280195D02*
G01X27788349Y-15280195D01*
G01X27913749Y-15280195D02*
G01X27939657Y-15280195D01*
G01X27864003Y-15175450D02*
G01X27864003Y-15149542D01*
G01X27864003Y-15384941D02*
G01X27864003Y-15410849D01*
G01X29620554Y-7975600D02*
G01X29594646Y-7975600D01*
G01X29790046Y-7975600D02*
G01X29815954Y-7975600D01*
G01X29705300Y-8060346D02*
G01X29705300Y-8086254D01*
G01X30080001Y-15265051D02*
G01X30080001Y-15290959D01*
G01X30080001Y-14915559D02*
G01X30080001Y-14889651D01*
G01X30005255Y-15090305D02*
G01X29979347Y-15090305D01*
G01X30154747Y-15090305D02*
G01X30180655Y-15090305D01*
G01X29609999Y-15485040D02*
G01X29609999Y-15510948D01*
G01X29609999Y-15335548D02*
G01X29609999Y-15309640D01*
G01X29435254Y-15410294D02*
G01X29409346Y-15410294D01*
G01X29784745Y-15410294D02*
G01X29810653Y-15410294D01*
G01X31112249Y-8728989D02*
G01X31086341Y-8728989D01*
G01X31371741Y-8728989D02*
G01X31397649Y-8728989D01*
G01X31241995Y-8629244D02*
G01X31241995Y-8603336D01*
G01X31112249Y-9559011D02*
G01X31086341Y-9559011D01*
G01X31371741Y-9559011D02*
G01X31397649Y-9559011D01*
G01X31241995Y-9658756D02*
G01X31241995Y-9684664D01*
G01X31343600Y-11217646D02*
G01X31343600Y-11243554D01*
G01X31343600Y-11058154D02*
G01X31343600Y-11032246D01*
G01X31263854Y-11137900D02*
G01X31237946Y-11137900D01*
G04 Copper End*

G04 Pad Start*
G54D12*
G01X31343600Y-15709900D03*
G54D13*
G01X31343600Y-15455900D03*
G01X31343600Y-15201900D03*
G01X31343600Y-14947900D03*
G01X31343600Y-14693900D03*
G01X31343600Y-14439900D03*
G01X31343600Y-14185900D03*
G01X31343600Y-13931900D03*
G01X31343600Y-13677900D03*
G01X31343600Y-13423900D03*
G01X31343600Y-13169900D03*
G01X31343600Y-12915900D03*
G01X31343600Y-12661900D03*
G01X31343600Y-12407900D03*
G01X31343600Y-12153900D03*
G01X31343600Y-11899900D03*
G01X31343600Y-11645900D03*
G01X31343600Y-11391900D03*
G01X31343600Y-11137900D03*
G01X31343600Y-10883900D03*
G01X31343600Y-10629900D03*
G01X31343600Y-10375900D03*
G54D12*
G01X25590500Y-15709900D03*
G54D13*
G01X25590500Y-15455900D03*
G01X25590500Y-15201900D03*
G01X25590500Y-14947900D03*
G01X25590500Y-14693900D03*
G01X25590500Y-14439900D03*
G01X25590500Y-14185900D03*
G01X25590500Y-13931900D03*
G01X25590500Y-13677900D03*
G01X25590500Y-13423900D03*
G01X25590500Y-13169900D03*
G01X25590500Y-12915900D03*
G01X25590500Y-12661900D03*
G01X25590500Y-12407900D03*
G01X25590500Y-12153900D03*
G01X25590500Y-11899900D03*
G01X25590500Y-11645900D03*
G01X25590500Y-11391900D03*
G01X25590500Y-11137900D03*
G01X25590500Y-10883900D03*
G01X25590500Y-10629900D03*
G01X25590500Y-10375900D03*
G54D14*
G01X25679405Y-8944000D03*
G01X25679405Y-9344000D03*
G01X25679405Y-9144000D03*
G54D15*
G01X25679405Y-9559011D03*
G01X25679405Y-8728989D03*
G54D14*
G01X31241995Y-9344000D03*
G01X31241995Y-8944000D03*
G01X31241995Y-9144000D03*
G54D15*
G01X31241995Y-8728989D03*
G01X31241995Y-9559011D03*
G54D17*
G01X29705300Y-7975600D03*
G54D18*
G01X29959300Y-7975600D03*
G01X30213300Y-7975600D03*
G01X30467300Y-7975600D03*
G54D19*
G01X27339493Y-8077200D03*
G01X26889507Y-8077200D03*
G54D20*
G01X29609999Y-15410294D03*
G54D21*
G01X30080001Y-15090305D03*
G54D20*
G01X29609999Y-14790306D03*
G54D22*
G01X26999997Y-15698229D03*
G54D23*
G01X27864003Y-15280195D03*
G01X26999997Y-15280195D03*
G54D22*
G01X27864003Y-15698178D03*
G54D24*
G01X27863803Y-10841998D03*
G01X27863803Y-11002018D03*
G04 Pad End*

G04 Via Start*
G54D25*
G01X28602940Y-10007600D03*
G01X28602407Y-10108535D03*
G01X28552140Y-9963550D03*
G01X28553229Y-10144807D03*
G01X28503880Y-9912750D03*
G01X28504612Y-10108288D03*
G01X28453080Y-9868700D03*
G01X28453277Y-10144760D03*
G01X27406600Y-10172700D03*
G01X27000802Y-10173302D03*
G01X27345640Y-10223500D03*
G01X26885900Y-10223500D03*
G01X28460700Y-10655706D03*
G01X28501135Y-10705488D03*
G01X28536900Y-10755706D03*
G01X28575000Y-10805693D03*
G01X26283050Y-10650220D03*
G01X26225500Y-10693400D03*
G01X26327100Y-10604500D03*
G01X26174700Y-10736847D03*
G01X26898600Y-11201400D03*
G01X26123900Y-11201400D03*
G01X26863084Y-11251021D03*
G01X26822199Y-11295272D03*
G01X26022300Y-11296118D03*
G01X26781960Y-11340169D03*
G01X25972809Y-11346173D03*
G01X26733500Y-11391900D03*
G01X25920700Y-11391900D03*
G01X26073100Y-11246800D03*
G01X27266900Y-10299700D03*
G01X26708100Y-10299700D03*
G01X28397200Y-9813035D03*
G01X28638500Y-10922000D03*
G01X28702000Y-10922000D03*
G01X29997400Y-8636000D03*
G01X27038300Y-10109200D03*
G01X27444700Y-10109200D03*
G01X30742980Y-10880180D03*
G01X27622500Y-11480800D03*
G01X27393900Y-9144000D03*
G01X27660600Y-13754100D03*
G01X27736800Y-12108180D03*
G01X27127200Y-11950700D03*
G01X27635200Y-11938000D03*
G01X28675000Y-11747500D03*
G01X27317700Y-10820400D03*
G01X29641800Y-8846718D03*
G01X29400500Y-9601200D03*
G01X27942540Y-11469770D03*
G01X26758900Y-11023600D03*
G01X27597100Y-11125200D03*
G01X27114500Y-12255500D03*
G01X27571700Y-12915900D03*
G01X27279600Y-12954000D03*
G01X28181300Y-13119100D03*
G01X28181300Y-12827000D03*
G01X28244800Y-13208000D03*
G01X28244800Y-12846299D03*
G01X28860350Y-11747500D03*
G01X28994100Y-11613750D03*
G01X27432000Y-14554200D03*
G01X28130500Y-15176500D03*
G01X27546300Y-15055850D03*
G01X28041600Y-15087600D03*
G01X27456137Y-15301360D03*
G01X27355800Y-15303500D03*
G01X29819600Y-11099800D03*
G01X29563361Y-11099800D03*
G01X29146500Y-11087100D03*
G01X28295600Y-11061700D03*
G01X26009600Y-9029700D03*
G01X26212800Y-9029700D03*
G01X26009600Y-9258300D03*
G01X31089600Y-14312900D03*
G01X30834890Y-14312900D03*
G01X30578169Y-14312900D03*
G01X30835600Y-15087600D03*
G01X31091610Y-15087600D03*
G01X31089600Y-15582900D03*
G01X27787600Y-12979400D03*
G01X28039890Y-12979400D03*
G01X27037370Y-12571405D03*
G01X28079700Y-10883900D03*
G01X27228800Y-9601200D03*
G01X28613100Y-9855200D03*
G01X28892500Y-10109200D03*
G01X28968700Y-10858500D03*
G01X28206700Y-8610600D03*
G01X28657950Y-9639300D03*
G01X28822250Y-9791700D03*
G01X28950920Y-10944860D03*
G01X28587700Y-8605418D03*
G01X28587700Y-9499600D03*
G01X28765500Y-9827568D03*
G01X28867100Y-10947400D03*
G01X26947285Y-11734800D03*
G01X27025600Y-10795000D03*
G01X27025600Y-10553700D03*
G01X26301700Y-9207500D03*
G01X27077283Y-11734800D03*
G01X27077283Y-10858500D03*
G01X27074959Y-10517923D03*
G01X26428700Y-9283700D03*
G01X28752800Y-11239500D03*
G01X27698700Y-10375900D03*
G01X27698700Y-10455587D03*
G01X27547014Y-10348074D03*
G01X28181300Y-10795000D03*
G01X28562300Y-10579100D03*
G01X28127090Y-10325100D03*
G01X27355800Y-11582400D03*
G01X27139900Y-11595100D03*
G01X27203400Y-11836400D03*
G01X27385607Y-11836400D03*
G01X27190700Y-11137900D03*
G01X27228800Y-11430000D03*
G01X28966309Y-10680700D03*
G01X28953609Y-10413986D03*
G01X27012900Y-11887200D03*
G01X27254200Y-8204200D03*
G01X27419300Y-8204200D03*
G01X29781500Y-8216900D03*
G01X30467300Y-8216900D03*
G01X30060900Y-9372600D03*
G01X27355800Y-10363200D03*
G01X28117800Y-9708750D03*
G01X28117800Y-9771850D03*
G01X28295600Y-9771850D03*
G01X27508200Y-9708750D03*
G01X27076400Y-9448800D03*
G01X27546300Y-13360400D03*
G01X28752800Y-10096500D03*
G01X28511500Y-9829800D03*
G01X26809700Y-9042400D03*
G01X26401959Y-9042400D03*
G01X27228800Y-8280400D03*
G01X28371800Y-8255000D03*
G01X25753314Y-10224310D03*
G01X25753314Y-9970310D03*
G01X25740614Y-9716310D03*
G01X25753314Y-8420910D03*
G01X25753314Y-8192310D03*
G01X25753314Y-7938310D03*
G01X25753314Y-10732310D03*
G01X25753314Y-15558310D03*
G01X25753314Y-15304310D03*
G01X25753314Y-15050310D03*
G01X25753314Y-14796310D03*
G01X25753314Y-14542310D03*
G01X25753314Y-14288310D03*
G01X25753314Y-14034310D03*
G01X25753314Y-13780310D03*
G01X25753314Y-13526310D03*
G01X25753314Y-13272310D03*
G01X25753314Y-13018310D03*
G01X25753314Y-12764310D03*
G01X25753314Y-12510310D03*
G01X25753314Y-12256310D03*
G01X25753314Y-12002310D03*
G01X25753314Y-11748310D03*
G01X25753314Y-11494310D03*
G01X25753314Y-11240310D03*
G01X26007314Y-10478310D03*
G01X26007314Y-10224310D03*
G01X26007314Y-9970310D03*
G01X26007314Y-9716310D03*
G01X26007314Y-9462310D03*
G01X26007314Y-8700310D03*
G01X26007314Y-8446310D03*
G01X26007314Y-8192310D03*
G01X25956514Y-7976410D03*
G01X25880314Y-11011710D03*
G01X26007314Y-15558310D03*
G01X26007314Y-15304310D03*
G01X26007314Y-15050310D03*
G01X26007314Y-14796310D03*
G01X26007314Y-14542310D03*
G01X26007314Y-14288310D03*
G01X26007314Y-14034310D03*
G01X26007314Y-13780310D03*
G01X26007314Y-13526310D03*
G01X26007314Y-13272310D03*
G01X26007314Y-13018310D03*
G01X26007314Y-12764310D03*
G01X26007314Y-12510310D03*
G01X26261314Y-10224310D03*
G01X26261314Y-9970310D03*
G01X26261314Y-9716310D03*
G01X26261314Y-9462310D03*
G01X26261314Y-8700310D03*
G01X26261314Y-8446310D03*
G01X26261314Y-8192310D03*
G01X26261314Y-7976410D03*
G01X26261314Y-15558310D03*
G01X26261314Y-15304310D03*
G01X26261314Y-15050310D03*
G01X26261314Y-14796310D03*
G01X26261314Y-14542310D03*
G01X26261314Y-14288310D03*
G01X26261314Y-14034310D03*
G01X26261314Y-13780310D03*
G01X26464514Y-10478310D03*
G01X26515314Y-8700310D03*
G01X26515314Y-8446310D03*
G01X26515314Y-8192310D03*
G01X26591514Y-7976410D03*
G01X26515314Y-15558310D03*
G01X26515314Y-15304310D03*
G01X26515314Y-15050310D03*
G01X26769314Y-10224310D03*
G01X26769314Y-9970310D03*
G01X26769314Y-9716310D03*
G01X26769314Y-9462310D03*
G01X26769314Y-8700310D03*
G01X26769314Y-8446310D03*
G01X26769314Y-8192310D03*
G01X26769314Y-7976410D03*
G01X26807414Y-11888010D03*
G01X26769314Y-15558310D03*
G01X26769314Y-15304310D03*
G01X26769314Y-15050310D03*
G01X26769314Y-14796310D03*
G01X26769314Y-14542310D03*
G01X26769314Y-14288310D03*
G01X26769314Y-14034310D03*
G01X26769314Y-13780310D03*
G01X26769314Y-13526310D03*
G01X26769314Y-13272310D03*
G01X26769314Y-13018310D03*
G01X26769314Y-12764310D03*
G01X26769314Y-12573810D03*
G01X26769314Y-12256310D03*
G01X27023314Y-9970310D03*
G01X27023314Y-9716310D03*
G01X27023314Y-8700310D03*
G01X27023314Y-8446310D03*
G01X27023314Y-8192310D03*
G01X27023314Y-7938310D03*
G01X27023314Y-15050310D03*
G01X27023314Y-14796310D03*
G01X27023314Y-14542310D03*
G01X27023314Y-14034310D03*
G01X27023314Y-13018310D03*
G01X27277314Y-15558310D03*
G01X27277314Y-14542310D03*
G01X27277314Y-14034310D03*
G01X27277314Y-12764310D03*
G01X27277314Y-9462310D03*
G01X27277314Y-8954310D03*
G01X27277314Y-8700310D03*
G01X27277314Y-8446310D03*
G01X27277314Y-7938310D03*
G01X27531314Y-15558310D03*
G01X27531314Y-14745510D03*
G01X27531314Y-14542310D03*
G01X27531314Y-14034310D03*
G01X27531314Y-13780310D03*
G01X27531314Y-13526310D03*
G01X27531314Y-13272310D03*
G01X27531314Y-11748310D03*
G01X27531314Y-9462310D03*
G01X27531314Y-9208310D03*
G01X27531314Y-8954310D03*
G01X27531314Y-8700310D03*
G01X27531314Y-8446310D03*
G01X27785314Y-15558310D03*
G01X27785314Y-15050310D03*
G01X27785314Y-14796310D03*
G01X27785314Y-14542310D03*
G01X27785314Y-14288310D03*
G01X27785314Y-14034310D03*
G01X27785314Y-13780310D03*
G01X27785314Y-11748310D03*
G01X27785314Y-11494310D03*
G01X27785314Y-9462310D03*
G01X27785314Y-9208310D03*
G01X27785314Y-8954310D03*
G01X27785314Y-8700310D03*
G01X27785314Y-8446310D03*
G01X27785314Y-7938310D03*
G01X28039314Y-15558310D03*
G01X28039314Y-14796310D03*
G01X28039314Y-14288310D03*
G01X28039314Y-14034310D03*
G01X28039314Y-13780310D03*
G01X28039314Y-13526310D03*
G01X28039314Y-13272310D03*
G01X28039314Y-12764310D03*
G01X28039314Y-12510310D03*
G01X28039314Y-12256310D03*
G01X28039314Y-11748310D03*
G01X28039314Y-9462310D03*
G01X28039314Y-9208310D03*
G01X28039314Y-8954310D03*
G01X28039314Y-8700310D03*
G01X28039314Y-8446310D03*
G01X28039314Y-7938310D03*
G01X28293314Y-15558310D03*
G01X28293314Y-15304310D03*
G01X28293314Y-15050310D03*
G01X28293314Y-14796310D03*
G01X28293314Y-14288310D03*
G01X28293314Y-14034310D03*
G01X28293314Y-13780310D03*
G01X28293314Y-13526310D03*
G01X28293314Y-13272310D03*
G01X28293314Y-12764310D03*
G01X28293314Y-12256310D03*
G01X28293314Y-11748310D03*
G01X28293314Y-9462310D03*
G01X28293314Y-8954310D03*
G01X28293314Y-7938310D03*
G01X28547314Y-15558310D03*
G01X28547314Y-15304310D03*
G01X28547314Y-15050310D03*
G01X28547314Y-14796310D03*
G01X28547314Y-14542310D03*
G01X28547314Y-14288310D03*
G01X28547314Y-14034310D03*
G01X28547314Y-13780310D03*
G01X28547314Y-13526310D03*
G01X28547314Y-12764310D03*
G01X28547314Y-12256310D03*
G01X28547314Y-11748310D03*
G01X28547314Y-7938310D03*
G01X28801314Y-15558310D03*
G01X28801314Y-15304310D03*
G01X28801314Y-15050310D03*
G01X28801314Y-14796310D03*
G01X28801314Y-14288310D03*
G01X28801314Y-14034310D03*
G01X28801314Y-13780310D03*
G01X28801314Y-13526310D03*
G01X28801314Y-13018310D03*
G01X28801314Y-12764310D03*
G01X28801314Y-12256310D03*
G01X28801314Y-12002310D03*
G01X28801314Y-8954310D03*
G01X28801314Y-8446310D03*
G01X29055314Y-15558310D03*
G01X29055314Y-15304310D03*
G01X29055314Y-15050310D03*
G01X29055314Y-14796310D03*
G01X29055314Y-14542310D03*
G01X29055314Y-14288310D03*
G01X29055314Y-14034310D03*
G01X29055314Y-13780310D03*
G01X29055314Y-12256310D03*
G01X29055314Y-12002310D03*
G01X29055314Y-10224310D03*
G01X29055314Y-9716310D03*
G01X29055314Y-8954310D03*
G01X29055314Y-8446310D03*
G01X28953714Y-7951010D03*
G01X29309314Y-15558310D03*
G01X29309314Y-15304310D03*
G01X29309314Y-15050310D03*
G01X29309314Y-14288310D03*
G01X29309314Y-14034310D03*
G01X29309314Y-13780310D03*
G01X29309314Y-13526310D03*
G01X29309314Y-13272310D03*
G01X29309314Y-12764310D03*
G01X29309314Y-12256310D03*
G01X29309314Y-12002310D03*
G01X29309314Y-11494310D03*
G01X29309314Y-10224310D03*
G01X29309314Y-9970310D03*
G01X29309314Y-9208310D03*
G01X29309314Y-8446310D03*
G01X29436314Y-7951010D03*
G01X29563314Y-15558310D03*
G01X29563314Y-15050310D03*
G01X29563314Y-14288310D03*
G01X29563314Y-14034310D03*
G01X29563314Y-13780310D03*
G01X29563314Y-13526310D03*
G01X29563314Y-13272310D03*
G01X29563314Y-12764310D03*
G01X29563314Y-12256310D03*
G01X29563314Y-12002310D03*
G01X29563314Y-11494310D03*
G01X29563314Y-10224310D03*
G01X29563314Y-9970310D03*
G01X29563314Y-8446310D03*
G01X29817314Y-15558310D03*
G01X29817314Y-15304310D03*
G01X29817314Y-15050310D03*
G01X29817314Y-14288310D03*
G01X29817314Y-14034310D03*
G01X29817314Y-13780310D03*
G01X29817314Y-13526310D03*
G01X29817314Y-13272310D03*
G01X29817314Y-12256310D03*
G01X29817314Y-12002310D03*
G01X29817314Y-11494310D03*
G01X29817314Y-10224310D03*
G01X29817314Y-9970310D03*
G01X29817314Y-9716310D03*
G01X29817314Y-8446310D03*
G01X30071314Y-15558310D03*
G01X30071314Y-14796310D03*
G01X30071314Y-14542310D03*
G01X30071314Y-14288310D03*
G01X30071314Y-14034310D03*
G01X30071314Y-13780310D03*
G01X30071314Y-13526310D03*
G01X30071314Y-13272310D03*
G01X30071314Y-13018310D03*
G01X30071314Y-12764310D03*
G01X30071314Y-12510310D03*
G01X30071314Y-12256310D03*
G01X30071314Y-12002310D03*
G01X27823414Y-9068610D03*
G01X30071314Y-9716310D03*
G01X30071314Y-8446310D03*
G01X30325314Y-15558310D03*
G01X30325314Y-15304310D03*
G01X30325314Y-15050310D03*
G01X30325314Y-10224310D03*
G01X30325314Y-9970310D03*
G01X30325314Y-9208310D03*
G01X30325314Y-8700310D03*
G01X30325314Y-8446310D03*
G01X30579314Y-15558310D03*
G01X30579314Y-15304310D03*
G01X30579314Y-14796310D03*
G01X30579314Y-14542310D03*
G01X30579314Y-14034310D03*
G01X30579314Y-10478310D03*
G01X30579314Y-10224310D03*
G01X30579314Y-9970310D03*
G01X30579314Y-9716310D03*
G01X30579314Y-9462310D03*
G01X30579314Y-8954310D03*
G01X30579314Y-8700310D03*
G01X30579314Y-8446310D03*
G01X30579314Y-8192310D03*
G01X30833314Y-15583710D03*
G01X30833314Y-15317010D03*
G01X30833314Y-14821710D03*
G01X30833314Y-14567710D03*
G01X30833314Y-14059710D03*
G01X30833314Y-13818410D03*
G01X30833314Y-13551710D03*
G01X30833314Y-13297710D03*
G01X30833314Y-13031010D03*
G01X30833314Y-12789710D03*
G01X30833314Y-10732310D03*
G01X30833314Y-10478310D03*
G01X30833314Y-10224310D03*
G01X30833314Y-9970310D03*
G01X30833314Y-9716310D03*
G01X30833314Y-9208310D03*
G01X30833314Y-8954310D03*
G01X30833314Y-8700310D03*
G01X30833314Y-8446310D03*
G01X30833314Y-8192310D03*
G01X30884114Y-8052610D03*
G01X31087314Y-15317010D03*
G01X31087314Y-14821710D03*
G01X31087314Y-14567710D03*
G01X31087314Y-14059710D03*
G01X31087314Y-13805710D03*
G01X31087314Y-13551710D03*
G01X31087314Y-13297710D03*
G01X31087314Y-13031010D03*
G01X31087314Y-12789710D03*
G01X31087314Y-12535710D03*
G01X31087314Y-12281710D03*
G01X31087314Y-12027710D03*
G01X31100014Y-11786410D03*
G01X31138114Y-11507010D03*
G01X31087314Y-10986310D03*
G01X31087314Y-10732310D03*
G01X31087314Y-10478310D03*
G01X31087314Y-10224310D03*
G01X31087314Y-9970310D03*
G01X31087314Y-9208310D03*
G01X31087314Y-8954310D03*
G01X31087314Y-8446310D03*
G01X31087314Y-8192310D03*
G01X31163514Y-8039910D03*
G01X31341314Y-9716310D03*
G01X31341314Y-8446310D03*
G01X31341314Y-8192310D03*
G01X31341314Y-7938310D03*
G01X26098500Y-11010900D03*
G01X28308300Y-10147300D03*
G01X28282900Y-10325100D03*
G01X28600400Y-10426700D03*
G01X29832295Y-9385300D03*
G01X27228800Y-13449300D03*
G04 Via End*

G04 Track Start*
G54D26*
G01X28602940Y-10007600D02*
G01X28602407Y-10008133D01*
G01X28602407Y-10108535D01*
G01X28552140Y-9963550D02*
G01X28552140Y-10143719D01*
G01X28553229Y-10144807D01*
G01X28503880Y-9912750D02*
G01X28504612Y-9913482D01*
G01X28504612Y-10108288D01*
G01X28453080Y-9868700D02*
G01X28453080Y-10144563D01*
G01X28453277Y-10144760D01*
G01X27406600Y-10172700D02*
G01X27405998Y-10173302D01*
G01X27000802Y-10173302D01*
G01X27345640Y-10223500D02*
G01X26885900Y-10223500D01*
G01X28460700Y-10655706D02*
G01X28409494Y-10604500D01*
G01X26327100Y-10604500D01*
G01X28501135Y-10705488D02*
G01X28495403Y-10699757D01*
G01X28428957Y-10699757D01*
G01X28379420Y-10650220D01*
G01X26283050Y-10650220D01*
G01X28536900Y-10755706D02*
G01X28418275Y-10755706D01*
G01X26226370Y-10694270D02*
G01X26225500Y-10693400D01*
G01X28418275Y-10755706D02*
G01X28356839Y-10694270D01*
G01X26226370Y-10694270D01*
G01X28575000Y-10805693D02*
G01X28397200Y-10805693D01*
G01X26206650Y-10736847D02*
G01X26174700Y-10736847D01*
G01X28397200Y-10805693D02*
G01X28328957Y-10737450D01*
G01X26207254Y-10737450D01*
G01X26206650Y-10736847D01*
G01X26898600Y-11201400D02*
G01X26123900Y-11201400D01*
G01X26863084Y-11251021D02*
G01X26077320Y-11251021D01*
G01X26073100Y-11246800D01*
G01X26022300Y-11296118D02*
G01X26023147Y-11295272D01*
G01X26822199Y-11295272D01*
G01X26781960Y-11340169D02*
G01X25978813Y-11340169D01*
G01X25972809Y-11346173D01*
G01X26733500Y-11391900D02*
G01X25920700Y-11391900D01*
G54D11*
G01X27266900Y-10299700D02*
G01X26708100Y-10299700D01*
G54D26*
G01X28397200Y-10477500D02*
G01X28638500Y-10718800D01*
G01X28638500Y-10922000D01*
G01X28397200Y-9813035D02*
G01X28397200Y-10477500D01*
G01X29997400Y-8636000D02*
G01X29019500Y-8636000D01*
G01X27038300Y-10109200D02*
G01X27444700Y-10109200D01*
G01X27393900Y-9144000D02*
G01X25679405Y-9144000D01*
G54D27*
G01X27127200Y-11950700D02*
G01X27622500Y-11950700D01*
G01X27635200Y-11938000D01*
G01X28600400Y-11938000D01*
G01X28675000Y-11863400D02*
G01X28675000Y-11747500D01*
G01X28600400Y-11938000D02*
G01X28675000Y-11863400D01*
G01X27635200Y-11938000D02*
G01X27635200Y-11671300D01*
G01X27317700Y-11353800D01*
G01X27317700Y-10820400D01*
G54D26*
G01X29908500Y-11569700D02*
G01X27711400Y-11569700D01*
G01X27622500Y-11480800D01*
G54D27*
G01X29400500Y-9601200D02*
G01X29641800Y-9359900D01*
G01X29641800Y-8846718D01*
G01X26962100Y-12255500D02*
G01X27114500Y-12255500D01*
G01X25590500Y-10883900D02*
G01X25857600Y-11151000D01*
G01X25857600Y-11418037D01*
G01X25894563Y-11455000D01*
G01X26161600Y-11455000D01*
G01X26962100Y-12255500D01*
G01X27432000Y-12954000D02*
G01X27279600Y-12954000D01*
G54D26*
G01X30742980Y-10880180D02*
G01X30598020Y-10880180D01*
G01X29908500Y-11569700D01*
G54D27*
G01X27597100Y-11125200D02*
G01X27941670Y-11469770D01*
G01X27942540Y-11469770D01*
G01X28994100Y-11468100D02*
G01X27944210Y-11468100D01*
G01X27942540Y-11469770D01*
G01X29400500Y-9601200D02*
G01X29400500Y-11061700D01*
G01X28994100Y-11468100D01*
G54D26*
G01X28860350Y-11747500D02*
G01X28994100Y-11613750D01*
G01X28181300Y-13119100D02*
G01X28181300Y-12827000D01*
G01X27546300Y-15055850D02*
G01X27616150Y-15055850D01*
G01X27711400Y-15151100D01*
G01X27787600Y-15151100D01*
G01X27851100Y-15087600D01*
G01X28041600Y-15087600D01*
G01X27456137Y-15301360D02*
G01X27453996Y-15303500D01*
G01X27355800Y-15303500D01*
G01X28206700Y-8610600D02*
G01X28206700Y-9188050D01*
G01X28591364Y-9495936D02*
G01X28587700Y-9499600D01*
G01X28206700Y-9188050D02*
G01X28657950Y-9639300D01*
G01X28587700Y-8605418D02*
G01X28591364Y-8609083D01*
G01X28591364Y-9495936D01*
G54D27*
G01X25590500Y-10375900D02*
G01X26238200Y-11023600D01*
G01X26758900Y-11023600D01*
G54D26*
G01X26947285Y-11734800D02*
G01X27025600Y-11656485D01*
G01X27025600Y-10795000D01*
G01X27025600Y-10553700D02*
G01X26873200Y-10401300D01*
G01X26517600Y-10401300D01*
G01X26432420Y-10316120D01*
G01X26432420Y-9350920D01*
G01X26301700Y-9220200D01*
G01X26301700Y-9207500D01*
G01X26466800Y-9321800D02*
G01X26428700Y-9283700D01*
G01X26466800Y-10274300D02*
G01X26466800Y-9321800D01*
G01X26555700Y-10363200D02*
G01X26466800Y-10274300D01*
G01X27074959Y-10517923D02*
G01X26920236Y-10363200D01*
G01X26555700Y-10363200D01*
G01X27077283Y-11734800D02*
G01X27077283Y-10858500D01*
G54D11*
G01X29781500Y-8216900D02*
G01X30467300Y-8216900D01*
G54D27*
G01X31241995Y-9344000D02*
G01X31238795Y-9347200D01*
G01X30086300Y-9347200D01*
G01X30060900Y-9372600D01*
G54D26*
G01X29019500Y-8636000D02*
G01X28702000Y-8953500D01*
G01X28702000Y-10922000D01*
G01X28892500Y-10782300D02*
G01X28968700Y-10858500D01*
G01X28892500Y-10109200D02*
G01X28892500Y-10782300D01*
G01X28822250Y-9791700D02*
G01X28848450Y-9817900D01*
G01X28848450Y-10842390D01*
G01X28950920Y-10944860D01*
G01X28765500Y-9827568D02*
G01X28803600Y-9865668D01*
G01X28803600Y-10883900D01*
G01X28867100Y-10947400D01*
G54D27*
G01X27355800Y-10363200D02*
G01X28010250Y-9708750D01*
G01X28117800Y-9708750D01*
G54D11*
G01X27076400Y-9448800D02*
G01X27076400Y-9664700D01*
G01X27501850Y-9715100D02*
G01X27508200Y-9708750D01*
G01X27076400Y-9664700D02*
G01X27126800Y-9715100D01*
G01X27501850Y-9715100D01*
G54D26*
G01X28613100Y-9855200D02*
G01X28359100Y-9601200D01*
G01X27228800Y-9601200D01*
G01X27736800Y-12108180D02*
G01X27736800Y-13677900D01*
G01X27660600Y-13754100D01*
G54D27*
G01X27571700Y-12915900D02*
G01X27470100Y-12915900D01*
G01X27432000Y-12954000D01*
G54D11*
G01X27546300Y-13360400D02*
G01X27635200Y-13271500D01*
G01X27635200Y-11938000D01*
G01X27254200Y-8204200D02*
G01X27419300Y-8204200D01*
G54D26*
G01X28244800Y-13208000D02*
G01X28244800Y-12846299D01*
G04 Track End*

M02*

